<svg width="134" height="44" viewBox="0 0 134 44" fill="none" xmlns="http://www.w3.org/2000/svg">
<g clip-path="url(#clip0_3_5289)">
<g clip-path="url(#clip1_3_5289)">
<g clip-path="url(#clip2_3_5289)">
<path d="M124.213 11.4152C119.797 6.26323 113.908 2.43523 106.989 0.963226C92.3409 -2.20177 77.5459 3.68623 67.5359 14.5802C66.2109 15.9792 65.0329 17.5242 63.8559 19.0702C63.8559 19.0702 50.6059 3.46622 39.7859 21.1312C39.7859 21.1312 26.9779 4.12823 10.7849 23.1922C-5.40907 42.1822 1.43693 42.1822 1.43693 42.1822L133.12 40.1222C133.341 36.9572 133.267 32.7622 132.31 28.0502C131.059 21.7942 128.262 16.0522 124.213 11.4152Z" fill="white"/>
</g>
</g>
</g>
<defs>
<clipPath id="clip0_3_5289">
<rect width="134" height="43" fill="white" transform="translate(0 0.110352)"/>
</clipPath>
<clipPath id="clip1_3_5289">
<rect width="134" height="43" fill="white" transform="translate(0 0.110352)"/>
</clipPath>
<clipPath id="clip2_3_5289">
<rect width="134" height="43" fill="white" transform="translate(0 0.110352)"/>
</clipPath>
</defs>
</svg>
