<svg width="16" height="17" viewBox="0 0 16 17" fill="none" xmlns="http://www.w3.org/2000/svg">
<path d="M15 5.11035C15.5312 5.11035 16 5.5791 16 6.11035V15.1104C16 15.6729 15.5312 16.1104 15 16.1104H5C4.4375 16.1104 4 15.6729 4 15.1104V1.11035C4 0.579102 4.4375 0.110352 5 0.110352H12.5625C12.8438 0.141602 13.0938 0.235352 13.2812 0.422852L14.6875 1.8291C14.875 2.0166 14.9688 2.2666 15 2.54785V5.11035ZM9 13.6104V12.6104C9 12.3604 8.75 12.1104 8.5 12.1104H7.5C7.21875 12.1104 7 12.3604 7 12.6104V13.6104C7 13.8916 7.21875 14.1104 7.5 14.1104H8.5C8.75 14.1104 9 13.8916 9 13.6104ZM9 9.61035V8.61035C9 8.36035 8.75 8.11035 8.5 8.11035H7.5C7.21875 8.11035 7 8.36035 7 8.61035V9.61035C7 9.8916 7.21875 10.1104 7.5 10.1104H8.5C8.75 10.1104 9 9.8916 9 9.61035ZM13 13.6104V12.6104C13 12.3604 12.75 12.1104 12.5 12.1104H11.5C11.2188 12.1104 11 12.3604 11 12.6104V13.6104C11 13.8916 11.2188 14.1104 11.5 14.1104H12.5C12.75 14.1104 13 13.8916 13 13.6104ZM13 9.61035V8.61035C13 8.36035 12.75 8.11035 12.5 8.11035H11.5C11.2188 8.11035 11 8.36035 11 8.61035V9.61035C11 9.8916 11.2188 10.1104 11.5 10.1104H12.5C12.75 10.1104 13 9.8916 13 9.61035ZM13 6.11035V4.11035H11.5C11.2188 4.11035 11 3.8916 11 3.61035V2.11035H6V6.11035H13ZM2 4.11035C2.53125 4.11035 3 4.5791 3 5.11035V15.1104C3 15.6729 2.53125 16.1104 2 16.1104H1C0.4375 16.1104 0 15.6729 0 15.1104V5.11035C0 4.5791 0.4375 4.11035 1 4.11035H2Z" fill="#00BBAE"/>
</svg>
