<svg width="61" height="61" viewBox="0 0 61 61" fill="none" xmlns="http://www.w3.org/2000/svg">
<rect x="0.5" y="0.0800781" width="60" height="60" rx="30" fill="white"/>
<g clip-path="url(#clip0_3_4141)">
<path d="M26.5841 32.8641C26.5091 32.8631 26.4375 32.8329 26.3844 32.7798C26.3314 32.7268 26.3011 32.6551 26.3001 32.5801V30.9751C26.3001 30.8996 26.3301 30.8271 26.3836 30.7736C26.437 30.7202 26.5095 30.6901 26.5851 30.6901C26.6607 30.6901 26.7332 30.7202 26.7866 30.7736C26.8401 30.8271 26.8701 30.8996 26.8701 30.9751V32.5801C26.8691 32.6553 26.8387 32.7271 26.7854 32.7802C26.7322 32.8332 26.6603 32.8634 26.5851 32.8641H26.5841ZM33.5501 36.0521C33.4748 36.0529 33.4027 36.0832 33.3494 36.1365C33.2962 36.1898 33.2659 36.2618 33.2651 36.3371V37.9411C33.2651 38.0167 33.2951 38.0892 33.3486 38.1427C33.402 38.1961 33.4745 38.2261 33.5501 38.2261C33.6257 38.2261 33.6982 38.1961 33.7516 38.1427C33.8051 38.0892 33.8351 38.0167 33.8351 37.9411V36.3361C33.8341 36.261 33.8037 36.1892 33.7504 36.1361C33.6972 36.0831 33.6253 36.0529 33.5501 36.0521ZM43.9581 34.9461C43.7132 38.516 42.0605 41.8424 39.3635 44.194C36.6665 46.5455 33.146 47.7297 29.5761 47.4861C27.3268 47.3312 25.1521 46.6154 23.2505 45.4041C21.3489 44.1927 19.781 42.5244 18.6898 40.5513C17.5987 38.5783 17.0191 36.3634 17.004 34.1088C16.9888 31.8542 17.5386 29.6317 18.6031 27.6441C19.2501 26.4741 19.7291 24.0851 19.3561 22.8741C19.2989 22.688 19.2944 22.4896 19.343 22.3009C19.3916 22.1123 19.4915 21.9409 19.6316 21.8055C19.7717 21.6702 19.9465 21.5763 20.1367 21.5342C20.3269 21.4921 20.525 21.5035 20.7091 21.5671C21.6142 21.8921 22.4206 22.444 23.0511 23.1701C23.6371 22.0191 24.2851 21.0981 24.8811 20.2511C26.3111 18.2191 27.1751 16.9931 26.2571 14.0061C26.1999 13.8205 26.1951 13.6227 26.2432 13.4345C26.2913 13.2463 26.3904 13.0751 26.5295 12.9396C26.6687 12.8041 26.8426 12.7097 27.0321 12.6667C27.2215 12.6238 27.4191 12.634 27.6031 12.6961C32.3671 14.3061 35.4151 17.6301 36.9041 22.8491C37.0191 22.1056 37.0493 21.3515 36.9941 20.6011C36.9804 20.3737 37.0407 20.148 37.166 19.9577C37.2913 19.7674 37.4748 19.6228 37.6891 19.5455C37.9034 19.4681 38.137 19.4623 38.3549 19.5287C38.5729 19.5952 38.7634 19.7304 38.8981 19.9141C40.5881 22.2271 41.8861 24.6261 42.7561 27.0461C43.7271 29.7511 44.1311 32.4091 43.9581 34.9461ZM26.5841 34.9741C27.2189 34.9736 27.8275 34.7212 28.2763 34.2724C28.7252 33.8235 28.9776 33.2149 28.9781 32.5801V30.9751C28.9781 30.3402 28.7259 29.7313 28.2769 29.2823C27.828 28.8334 27.219 28.5811 26.5841 28.5811C25.9492 28.5811 25.3403 28.8334 24.8913 29.2823C24.4423 29.7313 24.1901 30.3402 24.1901 30.9751V32.5801C24.1909 33.2148 24.4434 33.8233 24.8922 34.2721C25.341 34.7209 25.9494 34.9734 26.5841 34.9741ZM34.3941 30.3341C34.5524 30.108 34.6158 29.8288 34.5706 29.5565C34.5255 29.2841 34.3753 29.0403 34.1525 28.8774C33.9296 28.7145 33.6518 28.6454 33.3786 28.685C33.1054 28.7246 32.8586 28.8697 32.6911 29.0891L25.7401 38.5801C25.5831 38.8062 25.5207 39.0847 25.5662 39.3562C25.6116 39.6276 25.7614 39.8706 25.9835 40.0331C26.2056 40.1957 26.4824 40.2651 26.7549 40.2264C27.0274 40.1877 27.274 40.0441 27.4421 39.8261L34.3921 30.3341H34.3941ZM35.9441 36.3371C35.9441 35.7022 35.6919 35.0933 35.2429 34.6443C34.794 34.1954 34.185 33.9431 33.5501 33.9431C32.9152 33.9431 32.3062 34.1954 31.8573 34.6443C31.4083 35.0933 31.1561 35.7022 31.1561 36.3371V37.9411C31.1561 38.5761 31.4083 39.185 31.8573 39.634C32.3062 40.0829 32.9152 40.3351 33.5501 40.3351C34.185 40.3351 34.794 40.0829 35.2429 39.634C35.6919 39.185 35.9441 38.5761 35.9441 37.9411V36.3371Z" fill="#F88E0F"/>
</g>
<defs>
<clipPath id="clip0_3_4141">
<rect width="28" height="36" fill="white" transform="translate(16.5 12.0801)"/>
</clipPath>
</defs>
</svg>
