<svg width="123" height="70" viewBox="0 0 123 70" fill="none" xmlns="http://www.w3.org/2000/svg">
<g opacity="0.6" clip-path="url(#clip0_3_5245)">
<g clip-path="url(#clip1_3_5245)">
<g clip-path="url(#clip2_3_5245)">
<mask id="mask0_3_5245" style="mask-type:luminance" maskUnits="userSpaceOnUse" x="0" y="0" width="123" height="70">
<path d="M0.22998 0H122.13V70H0.22998V0Z" fill="white"/>
</mask>
<g mask="url(#mask0_3_5245)">
<path d="M27.5301 53.7998C43.7301 51.3998 68.7301 49.3998 93.9301 54.0998C105.63 56.2998 117.03 49.3998 120.93 37.7998C120.93 37.6998 120.93 37.6998 121.03 37.5998C125.03 24.8998 118.03 11.2998 105.53 7.59977C84.6301 1.29977 50.4301 -5.00023 16.7301 5.89977C4.23007 9.89977 -2.66993 23.6998 1.43007 36.5998C1.53007 36.7998 1.53007 36.9998 1.63007 37.1998C5.23007 48.4998 16.1301 55.4998 27.5301 53.7998Z" fill="url(#paint0_linear_3_5245)"/>
<path opacity="0.25" d="M97.7301 30.7996C97.7301 30.7996 98.2301 27.5996 101.43 27.6996C95.8301 24.9996 94.1301 27.3996 94.2301 27.9996C94.3301 28.5996 92.8301 29.4996 94.5301 30.3996C96.2301 31.2996 97.7301 30.7996 97.7301 30.7996Z" fill="#CE5800"/>
<path opacity="0.25" d="M95.9302 33.5999C95.9302 33.5999 104.33 36.5999 105.73 36.7999C107.13 36.9999 107.93 36.5999 108.33 35.3999C108.63 34.1999 108.83 25.9999 101.83 23.3999C105.33 27.6999 107.33 34.8999 95.9302 33.5999Z" fill="#CE5800"/>
<path opacity="0.3" d="M83.33 2.39972C87.63 3.09972 87.83 9.19972 83.63 10.1997C43.23 19.7997 40.23 53.2997 13.13 42.8997C2.32997 38.6997 -2.17003 25.7997 3.92997 15.9997C6.82997 11.3997 11.23 7.69972 16.73 5.89972C40.23 -1.70028 64.03 -0.900276 83.33 2.39972ZM98.83 5.69972C90.33 3.79972 87.73 9.49973 98.83 12.0997C109.93 14.5997 110.33 8.29972 98.83 5.69972Z" fill="url(#paint1_linear_3_5245)"/>
<path opacity="0.2" d="M19.3591 12.8156C19.4895 12.0119 19.4604 11.1904 19.2733 10.398C19.0862 9.60557 18.7449 8.85776 18.2688 8.19726C17.7927 7.53676 17.1912 6.97649 16.4986 6.54846C15.806 6.12042 15.0358 5.833 14.2321 5.70259C13.4284 5.57219 12.6069 5.60137 11.8145 5.78845C11.0221 5.97553 10.2743 6.31686 9.61379 6.79294C8.95328 7.26903 8.39302 7.87055 7.96499 8.56316C7.53695 9.25577 7.24953 10.0259 7.11912 10.8296C6.85577 12.4527 7.24798 14.114 8.20947 15.4479C9.17097 16.7819 10.623 17.6792 12.2461 17.9426C13.8692 18.206 15.5305 17.8137 16.8645 16.8522C18.1984 15.8907 19.0958 14.4387 19.3591 12.8156ZM114.03 23.5996C114.385 23.5996 114.736 23.5298 115.063 23.3941C115.391 23.2584 115.689 23.0595 115.939 22.8088C116.19 22.5581 116.389 22.2604 116.525 21.9328C116.66 21.6053 116.73 21.2542 116.73 20.8996C116.73 20.545 116.66 20.1939 116.525 19.8663C116.389 19.5388 116.19 19.2411 115.939 18.9904C115.689 18.7397 115.391 18.5408 115.063 18.4051C114.736 18.2694 114.385 18.1996 114.03 18.1996C113.314 18.1996 112.627 18.4841 112.121 18.9904C111.615 19.4968 111.33 20.1835 111.33 20.8996C111.33 21.6157 111.615 22.3024 112.121 22.8088C112.627 23.3151 113.314 23.5996 114.03 23.5996ZM95.5301 54.3996C95.2301 52.0996 93.5301 46.1996 85.2301 46.1996L85.8301 52.8996C88.5301 53.2996 91.2301 53.6996 93.8301 54.1996C94.4301 54.1996 95.0301 54.2996 95.5301 54.3996Z" fill="#49270D"/>
<path d="M85.23 66.8997H35.73C32.03 66.8997 29.03 63.8997 29.03 60.1997V52.8997C29.03 49.1997 32.03 46.1997 35.73 46.1997H85.23C88.93 46.1997 91.93 49.1997 91.93 52.8997V60.1997C91.93 63.8997 88.93 66.8997 85.23 66.8997Z" fill="url(#paint2_linear_3_5245)"/>
<path opacity="0.2" d="M34.23 66.6997C34.23 63.3997 32.83 60.7997 29.03 60.1997V60.6997C29.23 63.6997 31.43 66.0997 34.23 66.6997Z" fill="#49270D"/>
<path d="M35.53 50.6997C35.53 49.8997 36.23 49.1997 37.03 49.1997H40.13C41.43 49.1997 42.13 49.2997 42.73 49.4997C44.23 50.0997 45.13 51.3997 45.13 53.2997C45.13 54.6997 44.43 56.1997 43.13 56.8997C43.13 56.8997 43.33 57.0997 43.63 57.6997L45.33 60.7997C45.73 61.4997 45.23 62.2997 44.43 62.2997H43.23C42.83 62.2997 42.53 62.0997 42.33 61.7997L40.23 57.8997H38.73V61.3997C38.73 61.8997 38.33 62.3997 37.73 62.3997H36.53C36.03 62.3997 35.53 61.9997 35.53 61.3997V50.6997ZM40.13 55.1997C41.13 55.1997 41.83 54.5997 41.83 53.5997C41.83 52.8997 41.63 52.3997 41.03 52.1997C40.73 52.0997 40.33 51.9997 39.83 51.9997H38.73V55.1997H40.13ZM51.83 52.5997C54.83 52.5997 57.23 54.5997 57.23 57.5997C57.23 60.5997 54.83 62.5997 51.83 62.5997C48.83 62.5997 46.43 60.5997 46.43 57.5997C46.43 54.6997 48.83 52.5997 51.83 52.5997ZM51.83 59.8997C53.03 59.8997 54.03 58.9997 54.03 57.5997C54.03 56.1997 53.03 55.2997 51.83 55.2997C50.63 55.2997 49.63 56.1997 49.63 57.5997C49.63 59.0997 50.63 59.8997 51.83 59.8997ZM63.73 52.5997C66.73 52.5997 69.13 54.5997 69.13 57.5997C69.13 60.5997 66.73 62.5997 63.73 62.5997C60.73 62.5997 58.33 60.5997 58.33 57.5997C58.33 54.6997 60.73 52.5997 63.73 52.5997ZM63.73 59.8997C64.93 59.8997 65.93 58.9997 65.93 57.5997C65.93 56.1997 64.93 55.2997 63.73 55.2997C62.53 55.2997 61.53 56.1997 61.53 57.5997C61.53 59.0997 62.53 59.8997 63.73 59.8997ZM71.53 52.8997H73.03C73.43 52.8997 73.83 53.2997 73.83 53.6997V54.2997C74.23 53.5997 75.13 52.6997 76.63 52.6997C77.83 52.6997 78.83 53.1997 79.33 54.2997C79.83 53.4997 80.93 52.6997 82.43 52.6997C84.13 52.6997 85.53 53.5997 85.53 56.2997V61.4997C85.53 61.9997 85.13 62.3997 84.63 62.3997H83.23C82.73 62.3997 82.33 61.9997 82.33 61.4997V56.7997C82.33 56.0997 82.23 55.5997 81.63 55.5997C80.23 55.5997 79.83 56.9997 79.83 58.3997V61.4997C79.83 61.9997 79.43 62.3997 78.93 62.3997H77.63C77.13 62.3997 76.73 61.9997 76.73 61.4997V56.7997C76.73 56.0997 76.63 55.5997 76.03 55.5997C74.53 55.5997 74.23 57.0997 74.23 58.3997V61.4997C74.23 61.9997 73.83 62.3997 73.33 62.3997H72.03C71.53 62.3997 71.13 61.9997 71.13 61.4997V53.6997C70.73 53.1997 71.03 52.8997 71.53 52.8997Z" fill="white"/>
<path d="M117.83 54.3C118.36 54.3 118.869 54.0893 119.244 53.7142C119.619 53.3391 119.83 52.8304 119.83 52.3C119.83 51.7696 119.619 51.2609 119.244 50.8858C118.869 50.5107 118.36 50.3 117.83 50.3C117.3 50.3 116.791 50.5107 116.416 50.8858C116.041 51.2609 115.83 51.7696 115.83 52.3C115.83 52.8304 116.041 53.3391 116.416 53.7142C116.791 54.0893 117.3 54.3 117.83 54.3ZM19.43 3.4C19.8808 3.4 20.3133 3.22089 20.6321 2.90208C20.9509 2.58327 21.13 2.15087 21.13 1.7C21.13 1.24913 20.9509 0.81673 20.6321 0.497918C20.3133 0.179107 19.8808 0 19.43 0C18.9791 0 18.5467 0.179107 18.2279 0.497918C17.9091 0.81673 17.73 1.24913 17.73 1.7C17.73 2.15087 17.9091 2.58327 18.2279 2.90208C18.5467 3.22089 18.9791 3.4 19.43 3.4Z" fill="#008DD3"/>
<path d="M27.73 70C29.0561 70 30.3278 69.4732 31.2655 68.5355C32.2032 67.5979 32.73 66.3261 32.73 65C32.73 63.6739 32.2032 62.4021 31.2655 61.4645C30.3278 60.5268 29.0561 60 27.73 60C26.4039 60 25.1321 60.5268 24.1944 61.4645C23.2568 62.4021 22.73 63.6739 22.73 65C22.73 66.3261 23.2568 67.5979 24.1944 68.5355C25.1321 69.4732 26.4039 70 27.73 70Z" fill="url(#paint3_linear_3_5245)"/>
<path opacity="0.3" d="M23.23 64.7V65C23.23 66.3 24.43 67.4 25.73 67.3H25.83C28.03 67.2 29.83 65.4 30.03 63.1V63C30.13 61.7 29.03 60.5 27.73 60.5H27.43C25.13 60.7 23.33 62.5 23.23 64.7Z" fill="url(#paint4_linear_3_5245)"/>
<path opacity="0.3" d="M35.5301 47.6997C31.0301 47.6997 28.0301 55.9997 35.9301 55.9997H78.7301C86.3301 55.9997 87.3301 47.6997 78.1301 47.6997H35.5301Z" fill="url(#paint5_linear_3_5245)"/>
<path d="M9.63003 16.9998C11.6457 16.9998 13.5788 16.1991 15.004 14.7738C16.4293 13.3485 17.23 11.4154 17.23 9.3998C17.23 7.38416 16.4293 5.45107 15.004 4.02579C13.5788 2.60052 11.6457 1.7998 9.63003 1.7998C7.61438 1.7998 5.68129 2.60052 4.25602 4.02579C2.83074 5.45107 2.03003 7.38416 2.03003 9.3998C2.03003 11.4154 2.83074 13.3485 4.25602 14.7738C5.68129 16.1991 7.61438 16.9998 9.63003 16.9998Z" fill="url(#paint6_linear_3_5245)"/>
<path opacity="0.3" d="M2.83008 8.89971V9.29971C2.83008 11.2997 4.63008 12.9997 6.63008 12.8997H6.73008C10.1301 12.6997 12.8301 9.89971 13.0301 6.59971V6.49971C13.1301 4.49971 11.5301 2.69971 9.43008 2.69971H9.03008C5.73008 2.79971 3.03008 5.49971 2.83008 8.89971Z" fill="url(#paint7_linear_3_5245)"/>
<path d="M98.43 63.6998C98.9159 63.6998 99.397 63.6041 99.8459 63.4182C100.295 63.2322 100.703 62.9597 101.046 62.6161C101.39 62.2725 101.662 61.8646 101.848 61.4157C102.034 60.9668 102.13 60.4857 102.13 59.9998C102.13 59.5139 102.034 59.0328 101.848 58.5839C101.662 58.135 101.39 57.7271 101.046 57.3835C100.703 57.0399 100.295 56.7674 99.8459 56.5815C99.397 56.3955 98.9159 56.2998 98.43 56.2998C97.4487 56.2998 96.5076 56.6896 95.8137 57.3835C95.1198 58.0774 94.73 59.0185 94.73 59.9998C94.73 60.9811 95.1198 61.9222 95.8137 62.6161C96.5076 63.31 97.4487 63.6998 98.43 63.6998Z" fill="url(#paint8_linear_3_5245)"/>
<path opacity="0.3" d="M95.1301 59.7998V59.9998C95.1301 60.9998 96.0301 61.7998 96.9301 61.6998C98.5301 61.5998 99.9301 60.2998 100.03 58.5998C100.13 57.5998 99.3301 56.7998 98.3301 56.7998H98.1301C96.5301 56.7998 95.2301 58.0998 95.1301 59.7998Z" fill="url(#paint9_linear_3_5245)"/>
<path d="M111.13 22.9997C112.164 22.9997 113.156 22.5888 113.888 21.8574C114.619 21.126 115.03 20.1341 115.03 19.0997C115.03 18.0654 114.619 17.0734 113.888 16.342C113.156 15.6106 112.164 15.1997 111.13 15.1997C110.096 15.1997 109.104 15.6106 108.372 16.342C107.641 17.0734 107.23 18.0654 107.23 19.0997C107.23 20.1341 107.641 21.126 108.372 21.8574C109.104 22.5888 110.096 22.9997 111.13 22.9997Z" fill="url(#paint10_linear_3_5245)"/>
<path opacity="0.3" d="M107.73 18.8998V19.0998C107.73 20.0998 108.63 20.9998 109.63 20.8998C111.33 20.7998 112.73 19.3998 112.83 17.6998C112.93 16.6998 112.03 15.7998 111.03 15.7998H110.83C109.13 15.7998 107.73 17.1998 107.73 18.8998Z" fill="url(#paint11_linear_3_5245)"/>
<path opacity="0.25" d="M44.8301 39.1998C44.8301 39.1998 48.1301 41.1998 51.6301 38.2998C51.6301 38.9998 52.0301 39.5998 53.1301 39.5998H56.4301C57.2301 39.5998 58.0301 38.8998 57.9301 37.3998C57.9301 35.8998 57.8301 27.2998 57.7301 25.7998C57.6301 24.2998 56.4301 20.1998 52.0301 19.2998C52.9301 25.6998 54.7301 32.9998 54.7301 33.2998C54.7301 33.5998 50.0301 35.9998 50.0301 35.9998L44.8301 39.1998Z" fill="#CE5800"/>
<path d="M50.53 26.5996H51.03V26.2996C50.93 24.6996 49.73 24.1996 48.43 24.2996C47.23 24.3996 46.03 24.8996 45.03 25.5996C44.23 26.0996 43.33 25.7996 42.83 24.9996L42.23 23.7996C41.73 22.8996 41.93 21.5996 42.83 20.9996C44.43 19.9996 46.63 19.0996 48.83 18.8996C53.03 18.5996 56.93 21.0996 57.03 26.3996C57.13 29.8996 57.13 33.3996 57.23 36.8996C57.23 37.6996 56.73 38.3996 56.03 38.3996C55.13 38.3996 54.43 38.4996 53.53 38.4996C52.83 38.4996 52.23 37.8996 52.23 36.9996V36.1996H52.13C51.13 38.0996 49.23 39.1996 47.33 39.3996C44.13 39.6996 41.63 37.2996 41.43 34.0996C40.93 28.8996 46.73 26.6996 50.53 26.5996ZM48.53 34.4996C50.13 34.3996 51.33 32.3996 51.23 30.8996V30.3996H50.73C48.93 30.4996 46.73 31.1996 46.83 32.9996C46.93 33.8996 47.53 34.5996 48.53 34.4996Z" fill="url(#paint12_linear_3_5245)"/>
<path opacity="0.25" d="M17.8301 37.8998C17.8301 37.8998 21.9301 44.2998 28.5301 43.2998C35.2301 42.2998 36.1301 37.9998 36.1301 37.9998H33.8301C33.8301 37.9998 34.2301 40.7998 34.3301 41.3998C34.4301 41.9998 35.3301 41.9998 37.1301 41.6998C38.9301 41.4998 40.2301 41.2998 40.4301 40.2998C40.6301 39.1998 40.2301 35.3998 39.9301 32.9998C39.6301 30.5998 39.1301 26.9998 39.0301 25.9998C38.9301 24.9998 37.9301 24.6998 36.2301 24.8998C36.3301 27.2998 35.9301 34.5998 35.9301 34.5998L31.7301 37.5998L17.8301 37.8998Z" fill="#CE5800"/>
<path d="M25.5301 14.4997C27.9301 13.9997 31.1301 14.0997 33.7301 15.1997C34.8301 15.6997 35.3301 17.1997 34.8301 18.3997C34.6301 18.8997 34.4301 19.2997 34.2301 19.7997C33.8301 20.7997 32.8301 21.1997 31.9301 20.8997C30.4301 20.2997 28.5301 20.0997 27.0301 20.2997C23.2301 20.9997 20.1301 24.6997 20.9301 29.3997C21.7301 33.7997 25.2301 36.6997 29.0301 35.8997C30.5301 35.5997 32.0301 34.6997 33.2301 33.4997C33.5301 33.1997 33.6301 32.6997 33.4301 32.1997L33.2301 31.8997C33.0301 31.4997 32.7301 31.2997 32.3301 31.2997C32.0301 31.3997 31.5301 31.3997 31.3301 31.4997C30.6301 31.5997 29.9301 30.9997 29.8301 30.0997C29.7301 29.2997 29.6301 28.5997 29.5301 27.7997C29.2301 26.9997 29.7301 26.0997 30.5301 25.9997C32.7301 25.5997 34.3301 25.2997 36.5301 24.9997C37.3301 24.8997 38.0301 25.5997 38.1301 26.4997L39.3301 38.4997C39.4301 39.2997 38.9301 39.9997 38.2301 40.0997C37.4301 40.1997 36.8301 40.2997 36.0301 40.3997C35.3301 40.4997 34.7301 39.8997 34.6301 39.0997V38.6997H34.5301C33.3301 40.3997 31.0301 41.6997 28.8301 42.1997C22.4301 43.4997 16.4301 38.6997 14.9301 31.2997C13.2301 22.8997 18.9301 15.9997 25.5301 14.4997Z" fill="url(#paint13_linear_3_5245)"/>
<path opacity="0.25" d="M60.73 36.8C60.73 38.5 60.83 39.5 62.63 39.6C64.43 39.7 66.13 39.8 66.63 39.3C67.13 38.7 67.03 37.4 67.03 35.7C67.03 34 66.43 26 68.73 25C65.93 24.3 63.33 25.8 63.33 25.8L60.73 36.8ZM64.73 19C66.03 19 67.43 19.5 67.23 21.7C67.13 23.9 64.43 22.5 64.43 22.5L64.73 19ZM70.83 36.9C70.73 38.5 70.63 39.5 72.03 39.7C73.43 39.9 75.53 40.3 76.53 39.8C77.53 39.3 77.53 38.2 77.53 36.1C77.53 34 77.53 27.6 78.63 26.1C76.33 24.3 75.23 24.9 75.23 24.9L70.83 36.9ZM80.93 38.1C80.83 39.1 80.93 40.6 81.93 40.7C82.93 40.7 83.23 40.5 84.23 40.9C85.23 41.4 86.33 41.1 86.93 40.3C87.53 39.5 87.93 35.3 88.23 31.7C88.53 28.1 88.43 22.2 84.73 20.5C85.93 25.9 80.93 38.1 80.93 38.1Z" fill="#CE5800"/>
<path d="M62.3302 18.8999H64.8302C65.7302 18.8999 66.5302 19.8999 66.4302 20.9999V21.0999C66.4302 21.2999 66.6302 21.3999 66.7302 21.2999C67.7302 19.9999 69.4302 18.5999 71.8302 18.6999C73.9302 18.7999 75.5302 19.8999 76.4302 21.6999C76.5302 21.9999 76.9302 22.0999 77.1302 21.7999C78.3302 20.4999 80.4302 19.3999 82.7302 19.5999C89.4302 20.2999 87.2302 32.2999 86.5302 38.0999C86.3302 39.3999 85.5302 40.3999 84.5302 39.7999C84.0302 39.4999 83.3302 39.2999 82.7302 39.4999C81.7302 39.7999 80.8302 38.7999 80.9302 37.6999C81.2302 34.3999 81.5302 31.1999 81.8302 27.8999C81.9302 26.4999 81.8302 25.3999 80.6302 25.2999C78.0302 24.9999 77.0302 27.7999 76.8302 30.6999C76.6302 33.3999 76.5302 34.9999 76.4302 37.2999C76.3302 38.1999 75.7302 38.8999 74.9302 38.7999C73.9302 38.6999 73.1302 38.6999 72.1302 38.5999C71.3302 38.4999 70.7302 37.7999 70.8302 36.8999C70.9302 33.5999 71.1302 30.2999 71.2302 26.9999C71.3302 25.5999 71.1302 24.4999 69.9302 24.4999C67.2302 24.3999 66.4302 27.3999 66.4302 30.0999C66.3302 32.7999 66.3302 34.3999 66.3302 36.6999C66.3302 37.5999 65.6302 38.2999 64.9302 38.2999H62.1302C61.3302 38.2999 60.7302 37.5999 60.7302 36.5999V20.6999C60.6302 19.7999 61.4302 18.8999 62.3302 18.8999Z" fill="url(#paint14_linear_3_5245)"/>
<path opacity="0.25" d="M90.63 35.6997C90.63 35.6997 90.53 42.3997 97.13 44.2997C103.73 46.0997 107.33 43.5997 106.83 42.1997C106.33 40.7997 105.73 36.9997 103.53 37.6997C102.13 40.0997 100.23 40.6997 100.23 40.6997L90.63 35.6997Z" fill="#CE5800"/>
<path d="M100.83 22.9996C105.03 24.1996 108.43 28.8996 107.23 34.2996C106.93 35.3996 106.03 35.9996 105.13 35.7996C102.13 34.9996 99.1301 34.1996 96.0301 33.5996C96.1301 35.9996 97.6301 37.4996 99.4301 37.8996C100.63 38.1996 101.83 37.9996 103.03 37.5996C103.83 37.3996 104.53 37.8996 104.73 38.7996C104.93 39.3996 105.03 39.9996 105.13 40.6996C105.33 41.5996 104.93 42.4996 104.13 42.7996C102.23 43.4996 99.9301 43.4996 97.9301 43.0996C93.2301 42.1996 89.5301 36.5996 90.2301 31.0996C90.9301 25.5996 95.9301 21.5996 100.83 22.9996ZM101.13 30.9996C101.53 31.0996 101.93 30.6996 101.83 30.1996C101.73 28.9996 101.03 27.9996 99.8301 27.6996C98.1301 27.2996 97.1301 28.4996 96.5301 29.8996C98.4301 30.2996 99.5301 30.5996 101.13 30.9996Z" fill="url(#paint15_linear_3_5245)"/>
<path d="M5.83018 4C6.73018 3.1 8.03018 2.8 8.43018 3.2C8.83018 3.6 7.43018 4 6.73018 4.7C6.13018 5.4 4.83018 5.1 5.83018 4ZM96.3302 57.6C96.9302 57 97.8302 56.8 98.1302 57.1C98.4302 57.4 97.4302 57.7 97.0302 58.1C96.5302 58.6 95.6302 58.3 96.3302 57.6ZM55.6302 1.9C53.5302 1.9 53.0302 0.5 56.2302 0.5C58.5302 0.5 60.1302 0.6 60.4302 1C60.8302 1.4 60.5302 1.7 59.5302 1.6C58.3302 1.5 57.1302 1.9 55.6302 1.9ZM109.63 16C108.53 16.6 108.63 17.7 110.13 16.8C111.63 16.1 110.83 15.4 109.63 16ZM18.3302 23.9C16.9302 26.1 15.2302 24.7 16.4302 22.5C17.6302 20.3 20.2302 17.7 22.3302 16.8C24.4302 16 25.0302 17.4 22.6302 18.4C20.3302 19.4 19.2302 22.5 18.3302 23.9ZM31.8302 28.1C29.8302 28.5 29.2302 26.7 31.4302 26.3C33.7302 25.9 35.8302 25.7 36.0302 26.1C36.3302 26.5 34.1302 27.7 31.8302 28.1ZM43.7302 23C42.5302 23.5 41.7302 21.9 43.6302 20.9C45.6302 19.9 47.8302 19.2 48.6302 19.6C49.2302 19.9 46.9302 20.8 45.7302 21.3C44.6302 21.8 44.4302 22.6 43.7302 23ZM62.0302 24.5C60.9302 23.8 60.7302 20 62.2302 19.6C63.6302 19.2 65.0302 19.5 65.1302 20C65.2302 20.5 63.3302 20.4 62.9302 20.8C62.5302 21.1 63.0302 25.1 62.0302 24.5ZM93.6302 27C92.5302 27.1 93.1302 25.2 95.3302 24.1C97.6302 23 99.9302 23 100.53 23.9C101.23 24.8 99.1302 24.9 96.9302 25.1C95.0302 25.4 94.8302 26.9 93.6302 27Z" fill="white"/>
</g>
</g>
</g>
</g>
<defs>
<linearGradient id="paint0_linear_3_5245" x1="92.0861" y1="66.8418" x2="29.8451" y2="-7.33424" gradientUnits="userSpaceOnUse">
<stop stop-color="#FF7300"/>
<stop offset="1" stop-color="#FFDF43"/>
</linearGradient>
<linearGradient id="paint1_linear_3_5245" x1="1.19397" y1="22.4217" x2="107.291" y2="22.4217" gradientUnits="userSpaceOnUse">
<stop stop-color="white"/>
<stop offset="1" stop-color="white"/>
</linearGradient>
<linearGradient id="paint2_linear_3_5245" x1="79.42" y1="75.4967" x2="41.528" y2="37.6057" gradientUnits="userSpaceOnUse">
<stop stop-color="#FF881D"/>
<stop offset="1" stop-color="#FF531D"/>
</linearGradient>
<linearGradient id="paint3_linear_3_5245" x1="31.224" y1="68.542" x2="24.184" y2="61.501" gradientUnits="userSpaceOnUse">
<stop stop-color="#1367D7"/>
<stop offset="1" stop-color="#27ADFF"/>
</linearGradient>
<linearGradient id="paint4_linear_3_5245" x1="28.663" y1="65.98" x2="24.522" y2="61.84" gradientUnits="userSpaceOnUse">
<stop stop-color="white"/>
<stop offset="1" stop-color="white"/>
</linearGradient>
<linearGradient id="paint5_linear_3_5245" x1="31.0591" y1="51.8607" x2="84.7631" y2="51.8607" gradientUnits="userSpaceOnUse">
<stop stop-color="white"/>
<stop offset="1" stop-color="white"/>
</linearGradient>
<linearGradient id="paint6_linear_3_5245" x1="14.986" y1="14.7698" x2="4.25803" y2="4.04181" gradientUnits="userSpaceOnUse">
<stop stop-color="#1367D7"/>
<stop offset="1" stop-color="#27ADFF"/>
</linearGradient>
<linearGradient id="paint7_linear_3_5245" x1="11.0831" y1="10.8667" x2="4.77308" y2="4.55671" gradientUnits="userSpaceOnUse">
<stop stop-color="white"/>
<stop offset="1" stop-color="white"/>
</linearGradient>
<linearGradient id="paint8_linear_3_5245" x1="100.986" y1="62.6028" x2="95.793" y2="57.4098" gradientUnits="userSpaceOnUse">
<stop stop-color="#1367D7"/>
<stop offset="1" stop-color="#27ADFF"/>
</linearGradient>
<linearGradient id="paint9_linear_3_5245" x1="99.0961" y1="60.7138" x2="96.0421" y2="57.6588" gradientUnits="userSpaceOnUse">
<stop stop-color="white"/>
<stop offset="1" stop-color="white"/>
</linearGradient>
<linearGradient id="paint10_linear_3_5245" x1="113.863" y1="21.8587" x2="108.406" y2="16.4017" gradientUnits="userSpaceOnUse">
<stop stop-color="#1367D7"/>
<stop offset="1" stop-color="#27ADFF"/>
</linearGradient>
<linearGradient id="paint11_linear_3_5245" x1="111.878" y1="19.8738" x2="108.668" y2="16.6638" gradientUnits="userSpaceOnUse">
<stop stop-color="white"/>
<stop offset="1" stop-color="white"/>
</linearGradient>
<linearGradient id="paint12_linear_3_5245" x1="49.193" y1="39.5276" x2="49.193" y2="18.9146" gradientUnits="userSpaceOnUse">
<stop stop-color="#FFEEC8"/>
<stop offset="1" stop-color="white"/>
</linearGradient>
<linearGradient id="paint13_linear_3_5245" x1="26.9461" y1="42.4677" x2="26.9461" y2="14.2327" gradientUnits="userSpaceOnUse">
<stop stop-color="#FFEEC8"/>
<stop offset="1" stop-color="white"/>
</linearGradient>
<linearGradient id="paint14_linear_3_5245" x1="74.0752" y1="40.1959" x2="74.0752" y2="18.7849" gradientUnits="userSpaceOnUse">
<stop stop-color="#FFEEC8"/>
<stop offset="1" stop-color="white"/>
</linearGradient>
<linearGradient id="paint15_linear_3_5245" x1="98.8051" y1="43.4016" x2="98.8051" y2="22.7526" gradientUnits="userSpaceOnUse">
<stop stop-color="#FFEEC8"/>
<stop offset="1" stop-color="white"/>
</linearGradient>
<clipPath id="clip0_3_5245">
<rect width="122" height="70" fill="white" transform="translate(0.22998)"/>
</clipPath>
<clipPath id="clip1_3_5245">
<rect width="122" height="70" fill="white" transform="translate(0.22998)"/>
</clipPath>
<clipPath id="clip2_3_5245">
<rect width="122" height="70" fill="white" transform="translate(0.22998)"/>
</clipPath>
</defs>
</svg>
