<svg width="146" height="70" viewBox="0 0 146 70" fill="none" xmlns="http://www.w3.org/2000/svg">
<g opacity="0.6" clip-path="url(#clip0_3_5061)">
<g clip-path="url(#clip1_3_5061)">
<g clip-path="url(#clip2_3_5061)">
<mask id="mask0_3_5061" style="mask-type:luminance" maskUnits="userSpaceOnUse" x="0" y="0" width="145" height="70">
<path d="M0.200195 0H144.6V70H0.200195V0Z" fill="white"/>
</mask>
<g mask="url(#mask0_3_5061)">
<path d="M23.8001 57.3003C0.0001297 62.9003 -9.99987 39.9003 13.8001 26.9003C37.6001 13.9003 80.5001 4.1003 116.7 16.2003C158.8 30.3003 140.5 76.6003 100.1 62.7003C76.6001 54.7003 74.7001 45.3003 23.8001 57.3003Z" fill="url(#paint0_linear_3_5061)"/>
<path opacity="0.25" d="M115.8 49.9002C133.1 47.8002 136.3 24.2002 120.2 17.6002C119.1 17.1002 117.9 16.7002 116.7 16.3002C80.5 4.1002 37.6 13.9002 13.9 26.9002C9.79997 29.1002 6.69998 31.7002 4.49997 34.3002C-1.60003 41.6002 5.39997 52.5002 14.6 49.9002C18.9 48.7002 23.2 46.9002 27.1 44.8002C42.4 36.9002 64.5 36.1002 90.4 46.4002C99.1 49.8002 108.1 50.8002 115.8 49.9002Z" fill="url(#paint1_linear_3_5061)"/>
<path opacity="0.18" d="M32.3002 53.9C31.3002 54.2 30.2002 55.4 30.2002 55.4C30.2002 55.4 29.6002 54.6 29.4002 54.1C29.2002 53.6 28.5002 53.2 27.7002 53.3L28.1002 55.9L28.7002 56.1C30.7002 55.7 32.7002 55.2 34.5002 54.9C33.8002 53.6 33.2002 53.6 32.3002 53.9ZM11.0002 33.5C14.7002 35.2 13.4002 39 8.80016 38.2C4.30016 37.4 6.10016 31.3 11.0002 33.5ZM13.8002 39.7C14.4002 40.5 13.5002 41.3 12.6002 40.6C11.6002 39.9 13.0002 38.6 13.8002 39.7ZM68.9002 17.2C64.9002 16.5 64.9002 13.1 69.5002 12.5C75.4002 11.7 75.3001 18.4 68.9002 17.2ZM61.9002 12C53.9002 13.1 46.1002 14.7 38.9002 16.8L22.8002 24.8C39.7002 26.1 59.7002 24.5 61.9002 12Z" fill="#041A35"/>
<path d="M24.1 24.9C13 25.3 6.49999 15.2 22.5 6.99999C48.5 -6.20001 59.6 1.99999 59.7 9.09999C59.8 18.4 51 23.8 24.1 24.9Z" fill="url(#paint2_linear_3_5061)"/>
<path opacity="0.2" d="M22.5001 7.00007C15.2001 10.7001 12.5001 14.9001 12.9001 18.3001C15.2001 21.6001 25.3001 22.7001 35.8001 20.1001C52.6001 15.9001 57.5001 5.30007 51.8001 0.700072C45.9001 -0.999928 36.3001 7.20024e-05 22.5001 7.00007Z" fill="url(#paint3_linear_3_5061)"/>
<path d="M52.6003 59C50.1003 58.3 47.6003 54.6 62.8003 55.1C78.0003 55.6 87.9003 68.4 76.4003 69.9C68.0003 71 70.1003 63.6 52.6003 59Z" fill="url(#paint4_linear_3_5061)"/>
<path d="M65.5001 14.5001C60.6001 13.6001 60.6001 9.60013 66.3001 8.80013C73.5001 7.70013 73.4001 15.9001 65.5001 14.5001Z" fill="url(#paint5_linear_3_5061)"/>
<path d="M8.59989 31.2003C13.1999 33.3003 11.5999 38.1002 5.89989 37.1002C0.0998895 36.1002 2.39989 28.4003 8.59989 31.2003Z" fill="url(#paint6_linear_3_5061)"/>
<path d="M12.9002 39.2999C13.5002 40.0999 12.6002 40.8999 11.7002 40.1999C10.8002 39.4999 12.1002 38.1999 12.9002 39.2999Z" fill="#FFDF43"/>
<path d="M15.7002 6.89992C19.4002 3.99992 17.0002 -7.53403e-05 12.0002 3.59992C7.00018 7.29992 10.6002 10.9999 15.7002 6.89992ZM62.5002 6.39992C60.8002 6.39992 60.0002 4.79992 61.8002 3.79992C67.0002 0.899925 67.8002 6.39992 62.5002 6.39992Z" fill="#FFAF43"/>
<path d="M128.8 68.2003C117.4 70.0003 115.6 61.5003 124 58.2003C138.9 52.2003 143.4 65.9003 128.8 68.2003Z" fill="url(#paint7_linear_3_5061)"/>
<path d="M140.5 59.3001C138.9 58.8001 138.9 56.9001 141 56.6001C145.7 55.9001 146.1 61.0001 140.5 59.3001Z" fill="#FFAF43"/>
<path d="M77.6002 6.69997C77.3002 6.69997 77.0002 6.59997 76.7002 6.29997C76.2002 5.89997 76.2002 4.99997 76.7002 4.49997L77.9002 3.19997C78.3002 2.69997 79.0002 2.69997 79.5002 2.99997L80.3002 3.49997L80.8002 2.79997C81.2002 2.09997 82.0002 1.99997 82.6002 2.39997C83.2002 2.79997 83.4002 3.59997 83.0002 4.19997L81.8002 5.89997C81.4002 6.49997 80.6002 6.69997 80.0002 6.29997L79.0002 5.69997L78.5002 6.19997C78.3002 6.59997 78.0002 6.69997 77.6002 6.69997Z" fill="url(#paint8_linear_3_5061)"/>
<path d="M91.4002 66.5999H91.1002L88.1002 65.8999C87.8002 65.7999 87.5002 65.5999 87.3002 65.2999C87.1002 64.9999 87.1002 64.5999 87.2002 64.2999L87.5002 62.9999L86.4002 62.6999C85.7002 62.4999 85.3002 61.7999 85.5002 61.0999C85.7002 60.3999 86.4002 59.9999 87.1002 60.1999L89.4002 60.8999C90.1002 61.0999 90.5002 61.7999 90.3002 62.4999L90.0002 63.7999L91.7002 64.1999C92.4002 64.3999 92.8002 65.0999 92.7002 65.7999C92.5002 66.1999 92.0002 66.5999 91.4002 66.5999Z" fill="url(#paint9_linear_3_5061)"/>
<path d="M34.2 59.6002C33.7 59.6002 33.3 59.3002 33 58.9002L31.9 56.8002L29.2 57.9002C28.6 58.1002 27.9 57.9002 27.6 57.4002L26.4 55.4002C26 54.8002 26.2 54.0002 26.8 53.6002C27.4 53.2002 28.2 53.4002 28.6 54.0002L29.2 55.0002L31.9 53.9002C32.5 53.6002 33.2 53.9002 33.5 54.5002L35.2 57.7002C35.5 58.3002 35.3 59.1002 34.7 59.5002C34.7 59.6002 34.4 59.6002 34.2 59.6002Z" fill="url(#paint10_linear_3_5061)"/>
<path d="M109.3 15.5002C112.9 16.2002 114 12.0002 110.6 11.6002C107.3 11.1002 105.1 14.7002 109.3 15.5002Z" fill="url(#paint11_linear_3_5061)"/>
<path d="M116.4 12.7C114.2 12.3 114 14.2 116.3 14.6C118.7 15 118.3 13.1 116.4 12.7Z" fill="#FFAF43"/>
<path opacity="0.25" d="M24.8001 17.5001L25.6001 17.3001L25.4001 15.9001L22.9001 17.0001L22.4001 21.2001C22.4001 21.2001 22.6001 22.9001 24.3001 22.6001C26.0001 22.3001 25.7001 20.7001 25.5001 19.9001C25.2001 19.2001 24.8001 17.5001 24.8001 17.5001ZM30.3001 18.0001C29.7001 17.5001 28.3001 15.9001 27.6001 15.1001C27.9001 14.1001 28.5001 12.1001 28.6001 11.7001C28.8001 11.1001 28.6001 10.4001 27.7001 10.0001C26.7001 11.8001 26.5001 15.5001 26.5001 15.5001H26.7001L28.2001 20.3001C29.1001 21.3001 30.5001 21.1001 31.1001 20.4001C31.7001 19.6001 31.1001 18.6001 30.3001 18.0001ZM24.3001 15.3001C24.3001 15.3001 23.7001 12.5001 23.5001 11.8001C23.3001 11.1001 22.8001 10.8001 21.6001 11.0001L23.1001 15.5001C23.0001 15.6001 24.3001 15.3001 24.3001 15.3001ZM30.2001 10.0001C30.4001 10.6001 30.5001 11.4001 31.6001 11.1001C32.8001 10.8001 32.9001 10.2001 32.8001 9.60009C31.3001 9.70009 30.2001 10.0001 30.2001 10.0001ZM32.4001 19.0001C32.7001 19.8001 32.9001 20.5001 34.2001 20.2001C35.5001 19.9001 35.6001 19.5001 35.6001 19.0001C35.6001 18.5001 34.5001 13.9001 34.3001 13.0001C34.1001 12.1001 33.7001 11.6001 32.7001 11.6001C33.3001 13.7001 32.4001 19.0001 32.4001 19.0001ZM36.5001 17.0001C37.2001 18.2001 38.4001 19.0001 39.9001 18.8001C41.4001 18.6001 42.2001 18.0001 42.5001 16.6001C41.7001 15.4001 41.2001 16.4001 41.2001 16.4001C41.2001 16.4001 42.0001 18.2001 43.6001 18.0001C45.2001 17.9001 45.5001 16.9001 45.1001 15.7001C44.7001 14.5001 43.5001 9.40009 43.2001 8.20009C42.9001 7.10009 42.5001 6.10009 41.2001 6.30009C42.1001 8.20009 42.0001 15.1001 42.0001 15.1001L40.5001 16.4001L36.5001 17.0001Z" fill="#CE5800"/>
<path opacity="0.25" d="M38.7003 15.5001C38.0003 14.3001 38.4003 13.1001 39.4003 12.7001C40.4003 12.2001 41.5003 13.1001 41.5003 13.1001L40.7003 11.7001C40.7003 11.7001 39.2003 11.1001 38.6003 11.5001C38.1003 11.9001 37.3003 11.8001 37.3003 12.8001C37.3003 13.8001 37.9003 15.0001 37.9003 15.0001L38.7003 15.5001ZM46.3003 15.8001C46.5003 16.2001 47.3003 17.0001 49.2003 16.8001C51.1003 16.6001 52.2003 15.3001 52.4003 14.3001C52.7003 13.4001 52.1003 12.0001 50.5003 11.3001C51.2003 13.1001 49.3003 16.7001 46.3003 15.8001ZM48.5003 11.1001C47.8003 10.8001 48.0003 10.3001 49.1003 10.4001C50.2003 10.5001 51.5003 9.8001 50.2003 8.1001C48.1003 8.5001 46.3003 9.3001 46.3003 9.3001C46.3003 9.3001 45.7003 10.9001 46.1003 11.1001C46.4003 11.4001 48.1003 11.7001 48.1003 11.7001L48.5003 11.1001Z" fill="#CE5800"/>
<path d="M21.4002 11.0999C22.1002 10.8999 22.9002 11.3999 23.0002 12.0999L23.7002 14.9999L24.8002 14.6999L25.9002 10.6999C26.0002 10.1999 26.4002 9.89991 26.8002 9.79991C27.7002 9.59991 28.6002 10.4999 28.3002 11.3999L27.2002 15.1999L30.1002 18.3999C30.8002 19.1999 30.4002 20.3999 29.4002 20.5999C28.9002 20.6999 28.4002 20.5999 28.1002 20.1999L25.3002 16.8999L24.2002 17.1999L24.9002 20.2999C25.1002 20.9999 24.6002 21.6999 23.9002 21.8999H23.8002C23.1002 22.0999 22.4002 21.5999 22.2002 20.8999L20.2002 12.5999C20.2002 11.9999 20.6002 11.1999 21.4002 11.0999ZM31.7002 11.7999L32.3002 11.6999C32.9002 11.5999 33.4002 11.8999 33.6002 12.4999L35.0002 18.2999C35.1002 18.8999 34.8002 19.3999 34.2002 19.5999L33.6002 19.6999C33.0002 19.7999 32.5002 19.4999 32.3002 18.8999L30.9002 13.0999C30.8002 12.4999 31.1002 11.8999 31.7002 11.7999ZM31.0002 8.79991L31.5002 8.69991C32.1002 8.59991 32.6002 8.89991 32.8002 9.49991C32.9002 10.0999 32.6002 10.5999 32.0002 10.7999L31.5002 10.8999C30.9002 10.9999 30.4002 10.6999 30.2002 10.0999C30.1002 9.49991 30.5002 8.89991 31.0002 8.79991ZM38.2002 10.0999C38.9002 9.89991 39.8002 9.79991 40.4002 10.1999C40.4002 10.1999 40.3002 10.0999 40.3002 9.89991L39.9002 7.99991C39.7002 7.29991 40.2002 6.49991 40.9002 6.39991C41.6002 6.19991 42.4002 6.69991 42.5002 7.39991L44.6002 15.9999C44.8002 16.6999 44.3002 17.3999 43.7002 17.4999C43.0002 17.6999 42.3002 17.2999 42.2002 16.5999C41.9002 17.4999 41.1002 18.0999 40.2002 18.2999C38.1002 18.7999 36.3002 17.4999 35.7002 14.9999C35.0002 12.4999 36.1002 10.5999 38.2002 10.0999ZM40.3002 15.8999C41.1002 15.6999 41.7002 14.9999 41.4002 13.5999C41.2002 12.6999 40.5002 11.7999 39.4002 12.0999C38.6002 12.2999 38.0002 13.0999 38.3002 14.2999C38.5002 15.5999 39.3002 16.1999 40.3002 15.8999ZM46.1002 14.6999C46.3002 14.1999 46.8002 13.8999 47.4002 13.9999C47.9002 14.0999 48.4002 14.0999 48.8002 13.9999C49.3002 13.8999 49.5002 13.6999 49.4002 13.3999C49.2002 12.5999 45.6002 13.5999 45.0002 10.9999C44.6002 9.39991 45.9002 8.19991 47.7002 7.69991C48.3002 7.59991 49.0002 7.49991 49.6002 7.59991C50.2002 7.69991 50.6002 8.29991 50.5002 8.89991C50.4002 9.39991 49.9002 9.79991 49.3002 9.69991C48.9002 9.69991 48.5002 9.69991 48.1002 9.79991C47.5002 9.89991 47.4002 10.0999 47.5002 10.3999C47.7002 11.1999 51.3002 10.0999 51.9002 12.6999C52.2002 14.1999 51.3002 15.5999 49.3002 15.9999C48.5002 16.1999 47.7002 16.1999 46.9002 15.9999C46.3002 15.9999 45.9002 15.2999 46.1002 14.6999Z" fill="#FF4817"/>
<path opacity="0.3" d="M27.1999 15.2001L28.2999 11.4001C28.5999 10.5001 27.6999 9.60013 26.7999 9.80013C26.2999 9.90013 25.9999 10.3001 25.8999 10.7001L24.7999 14.7001L23.6999 15.0001L22.9999 12.1001C22.7999 11.4001 22.0999 10.9001 21.3999 11.1001C20.6999 11.3001 20.1999 12.0001 20.3999 12.7001L21.9999 19.4001C22.9999 19.2001 23.8999 18.9001 24.5999 18.5001L24.1999 17.2001L25.2999 16.9001L25.8999 17.6001C26.5999 17.0001 27.1999 16.3001 27.5999 15.6001L27.1999 15.2001Z" fill="url(#paint12_linear_3_5061)"/>
<path opacity="0.3" d="M34.0003 14.3001L33.6003 12.5001C33.5003 11.9001 32.9003 11.6001 32.3003 11.7001L31.7003 11.8001C31.1003 11.9001 30.8003 12.5001 30.9003 13.1001L31.7003 16.5001C32.9003 15.9001 33.6003 15.1001 34.0003 14.3001Z" fill="url(#paint13_linear_3_5061)"/>
<path opacity="0.3" d="M31.5 10.8L32 10.7C32.6 10.6 32.9 10 32.8 9.4C32.7 8.8 32.1 8.5 31.5 8.6L31 8.7C30.5 8.9 30.1 9.5 30.2 10C30.4 10.6 30.9 10.9 31.5 10.8Z" fill="url(#paint14_linear_3_5061)"/>
<path opacity="0.3" d="M43.5999 11.7999L42.4999 7.39991C42.2999 6.69991 41.5999 6.19991 40.8999 6.39991C40.1999 6.59991 39.6999 7.29991 39.8999 7.99991L40.2999 9.79991C40.2999 9.99991 40.3999 10.0999 40.3999 10.0999C39.7999 9.69991 38.8999 9.79991 38.1999 9.99991C36.0999 10.4999 34.9999 12.4999 35.5999 14.8999C35.6999 15.2999 35.7999 15.6999 35.9999 15.9999C36.5999 15.9999 37.7999 15.8999 38.9999 15.5999C38.6999 15.2999 38.3999 14.8999 38.1999 14.2999C37.8999 13.0999 38.4999 12.2999 39.2999 12.0999C40.2999 11.8999 41.0999 12.6999 41.2999 13.5999C41.3999 13.9999 41.3999 14.3999 41.3999 14.6999C42.4999 14.0999 43.3999 13.1999 43.5999 11.7999Z" fill="url(#paint15_linear_3_5061)"/>
<path opacity="0.3" d="M48.7999 13.1001C49.5999 12.8001 50.4999 12.4001 51.0999 11.5001C49.7999 10.6001 47.6999 11.1001 47.4999 10.5001C47.3999 10.3001 47.5999 10.1001 48.0999 9.90011C48.4999 9.80011 48.8999 9.80011 49.2999 9.80011C49.7999 9.90011 50.2999 9.50011 50.4999 9.00011C50.5999 8.40011 50.1999 7.80011 49.5999 7.70011C48.9999 7.60011 48.2999 7.70011 47.6999 7.80011C45.8999 8.20011 44.5999 9.40011 44.9999 11.1001C45.3999 13.0001 47.5999 12.9001 48.7999 13.1001Z" fill="url(#paint16_linear_3_5061)"/>
<path opacity="0.3" d="M4.70006 30.9003C2.70006 31.5003 2.60006 35.7003 7.10006 35.0003C11.7001 34.3003 8.60006 29.8003 4.70006 30.9003Z" fill="url(#paint17_linear_3_5061)"/>
<path opacity="0.3" d="M124.5 58.3003C118.6 60.3003 122.2 65.6003 127.9 64.0003C133.7 62.3003 135.6 54.5003 124.5 58.3003Z" fill="url(#paint18_linear_3_5061)"/>
<path opacity="0.3" d="M65.7002 9.00008C62.8002 9.70008 62.0002 12.4001 66.0002 11.8001C70.0002 11.1001 69.5002 8.00008 65.7002 9.00008Z" fill="url(#paint19_linear_3_5061)"/>
<path opacity="0.3" d="M32.1002 53.9002L29.4002 55.0002L28.8002 54.0002C28.4002 53.4002 27.6002 53.2002 27.0002 53.6002C26.4002 54.0002 26.2002 54.8002 26.6002 55.4002L27.8002 57.4002C28.1002 58.0002 28.8002 58.2002 29.4002 57.9002L32.1002 56.8002C32.9002 55.8002 33.2002 54.7002 33.3002 54.0002C32.8002 53.8002 32.4002 53.8002 32.1002 53.9002Z" fill="url(#paint20_linear_3_5061)"/>
<path opacity="0.3" d="M90.4002 62.1003C90.4002 61.5003 90.1002 60.9003 89.4002 60.8003L87.1002 60.1003C86.4002 59.9003 85.7002 60.3003 85.5002 61.0003C85.3002 61.7003 85.7002 62.4003 86.4002 62.6003L87.5002 62.9003L87.2002 64.0003C89.1002 63.9003 90.0002 63.0003 90.4002 62.1003Z" fill="url(#paint21_linear_3_5061)"/>
<path opacity="0.3" d="M76.3003 5.30008C77.5003 5.50008 80.9003 5.80008 83.1003 2.90008C83.0003 2.70008 82.8003 2.50008 82.6003 2.30008C82.0003 2.00008 81.2003 2.10008 80.8003 2.80008L80.3003 3.50008L79.5003 3.00008C79.0003 2.70008 78.3003 2.80008 77.9003 3.20008L76.7003 4.50008C76.4003 4.80008 76.3003 5.00008 76.3003 5.30008Z" fill="url(#paint22_linear_3_5061)"/>
<path d="M78.6 65.9C76.4 66.6 73.8 64.3 71.2 61.5C68.6 58.7 64.6 57 66.8 56.3C70.3 55.3 84.2 64 78.6 65.9Z" fill="url(#paint23_linear_3_5061)"/>
<path opacity="0.18" d="M19.8003 48.7002C20.6003 51.0002 22.5003 52.7002 24.9003 51.8002C27.4003 51.0002 27.7003 49.3002 27.4003 47.7002C27.0003 46.0002 26.5003 44.2002 26.5003 44.2002C26.5003 44.2002 32.6003 42.7002 35.4003 40.5002C38.1003 38.4002 38.9003 35.3002 37.2003 30.5002C35.6003 33.7002 31.4003 38.8002 31.4003 38.8002L27.0003 41.4002L23.4003 42.2002L22.0003 44.3002V49.1002L19.8003 48.7002ZM25.4003 39.8002L24.3003 35.1002C24.3003 35.1002 27.0003 33.5002 28.4003 33.2002C29.7003 32.9002 30.1003 33.2002 30.1003 33.2002L30.3003 32.0002H27.2003L21.9003 34.3002L21.1003 35.6002L23.4003 41.7002L25.4003 39.8002ZM40.1003 42.4002C40.1003 42.4002 39.6003 45.9002 44.3003 46.8002C49.0003 47.7002 53.7003 42.7002 53.7003 42.7002L53.1003 41.0002L51.3003 41.8002C51.3003 41.8002 51.5003 45.6002 53.3003 45.7002C55.0003 45.8002 57.0003 45.6002 58.1003 45.3002C59.2003 45.0002 59.5003 44.4002 59.4003 42.8002C59.3003 41.2002 59.1003 31.8002 58.9003 30.1002C58.7003 28.4002 56.4003 26.5002 53.5003 26.2002C55.7003 31.2002 55.0003 36.0002 55.0003 36.0002L50.1003 41.6002L44.0003 43.2002L40.1003 42.4002Z" fill="#041A35"/>
<path opacity="0.18" d="M46.5001 40.7999C46.5001 40.7999 48.3001 37.1999 52.2001 37.5999C52.5001 35.4999 51.9001 35.3999 51.9001 35.3999C51.9001 35.3999 47.8001 36.1999 46.9001 37.2999C46.0001 38.3999 45.5001 38.7999 45.5001 39.2999C45.5001 39.6999 46.5001 40.7999 46.5001 40.7999ZM41.6001 33.1999C42.9001 34.3999 43.8001 34.7999 44.9001 34.0999C46.0001 33.3999 49.7001 31.1999 52.1001 32.2999C51.9001 29.9999 49.0001 29.6999 49.0001 29.6999L44.7001 30.1999L41.6001 33.1999ZM62.8001 40.9999C62.8001 42.4999 63.0001 45.0999 65.8001 45.2999C68.5001 45.3999 70.0001 44.7999 70.6001 43.2999C71.2001 41.7999 71.3001 37.3999 71.4001 34.5999C71.5001 31.7999 74.7001 30.5999 76.7001 29.8999C78.7001 29.1999 80.5001 23.4999 77.2001 22.3999C75.6001 26.8999 70.9001 27.7999 70.9001 27.7999C70.9001 27.7999 72.0001 23.2999 68.1001 23.1999C66.8001 25.9999 62.8001 40.9999 62.8001 40.9999ZM80.2001 24.9999C80.2001 24.9999 79.4001 27.3999 80.6001 28.1999C81.7001 29.0999 84.1001 28.8999 84.1001 28.8999L81.9001 38.8999C81.9001 38.8999 81.9001 44.6999 86.5001 46.4999C90.4001 48.0999 93.5001 47.4999 93.8001 45.2999C94.0001 43.3999 94.9001 39.6999 91.6001 38.9999C88.5001 40.9999 87.9001 41.6999 87.9001 41.6999L86.0001 25.0999L80.2001 24.9999ZM124.1 24.7999C120.1 25.6999 118.7 27.1999 118.7 27.1999L102.3 54.9999H94.1001C94.4001 56.6999 94.9001 59.2999 100 59.4999C105.1 59.6999 106.8 56.2999 109.8 51.4999C111.3 49.0999 114.9 43.1999 118.2 38.0999C118.5 38.2999 118.9 38.4999 119.4 38.5999C123.2 39.4999 123.4 34.9999 120.5 34.7999H120.3C122.5 31.2999 124.1 28.7999 124.1 28.7999C124.1 28.7999 124.9 26.7999 124.1 24.7999Z" fill="#041A35"/>
<path opacity="0.18" d="M105.5 22.0001C109.4 23.4001 109.5 25.3001 109.8 26.6001C110 27.9001 110.5 37.6001 110.5 37.6001L108.4 38.6001L105.5 22.0001ZM89.7002 29.0001C89.7002 29.0001 92.3002 29.0001 93.7002 29.1001C95.1002 29.2001 96.1002 28.0001 96.4002 26.8001C96.7002 25.6001 97.4002 22.5001 94.5002 21.6001C90.7002 23.9001 89.7002 27.8001 89.7002 27.8001V29.0001Z" fill="#041A35"/>
<path d="M16.9 37.6999C16.3 35.4999 17.3 33.2999 19.3 32.1999C21.9 30.7999 24.5 29.4999 27.2 28.1999C31 26.3999 36.8 26.1999 37.5 31.8999C38.1 37.1999 33.8 40.9999 29.8 42.2999C28 42.8999 27.1 43.1999 25.4 43.7999C25.7 44.9999 25.9 46 26.1 46.9C26.4 48.5 25.5 50.0999 23.9 50.5999H23.8C22.1 51.1999 20.2 50.1 19.7 48.4C18.7 44.8 17.8 41.2999 16.9 37.6999ZM27.6 38.4999C29.9 37.5999 30.8 36 30.5 34.4C30.2 32.6999 28.9 32.0999 26.7 32.9999C25.3 33.5999 24.7 33.8999 23.3 34.4999C23.7 36.5999 24 37.5999 24.4 39.6999C25.7 39.2999 26.3 38.9999 27.6 38.4999ZM50.8 33.4C51 33.4 51.2 33.2999 51.4 33.2999V32.9999C51.3 31.4999 49.9 31.2999 48.3 31.5999C46.9 31.8999 45.4 32.6999 44.2 33.5999C43.4 34.1999 42.2 33.9999 41.6 33.1999C41.5 33.0999 41.4 32.9999 41.3 32.7999C40.6 31.9999 40.7 30.6999 41.6 29.9999C43.8 28.3999 46.2 27.2999 48.7 26.4999C52.8 25.1999 58.5 26.1999 58.5 32.0999C58.5 35.4999 58.6 38.8999 58.6 42.2999C58.6 43.2999 57.8 44.1999 56.8 44.2999C56.1 44.3999 55.4 44.3999 54.7 44.4999C53.6 44.5999 52.6 43.6999 52.6 42.4999V42.4H52.5C51.3 44.2999 49 45.3999 46.9 45.7999C44.2 46.1999 40.6 44.9999 40.1 41.7999C39.2 36.6999 47.3 34.1 50.8 33.4ZM48.4 41.0999C50.3 40.7999 51.7 38.7999 51.6 37.2999C51.6 36.9999 51.3 36.7999 51.1 36.9H51C48.9 37.2999 46.3 38.2999 46.4 39.9C46.4 40.6999 47.1 41.2999 48.4 41.0999ZM65.2 23.3999L67.3 23.0999C68.9 22.8999 70.3 24.0999 70.2 25.6999V26.1999C70.2 26.8999 70 27.4999 70 27.4999H70.1C71.3 24.2999 73.3 22.6999 75.1 21.9999C76.8 21.2999 78.6 22.5999 78.4 24.3999L78.3 25.2999C78.1 27.0999 76.9 28.6999 75.2 29.2999C73 29.9999 70.3 31.6999 70 35.5999L69.7 40.6999C69.7 42.5999 68.2 43.9999 66.5 43.9999H66.2C64.3 43.9999 62.8 42.4999 62.9 40.5999C63 35.6999 63.1 30.7999 63.1 25.8999C63.1 24.6999 64 23.5999 65.2 23.3999ZM82.8 27.8999H82.4C81.1 27.8999 80 26.7999 80.1 25.3999L80.3 23.7999C80.4 22.6999 81.3 21.8999 82.4 21.7999C82.8 21.7999 83.2 21.7999 83.8 21.6999C84 19.7999 84.2 18.5999 84.3 17.0999C84.4 15.8999 85.4 14.8999 86.7 14.7999C87.6 14.6999 88.5 14.6999 89.4 14.5999C91.1 14.4999 92.4 15.9999 92.2 17.5999C92 18.7999 91.9 19.8999 91.6 21.3999H93.8C95.4 21.3999 96.5 22.7999 96.3 24.2999L96 25.7999C95.8 26.9999 94.7 27.8999 93.4 27.8999C92.6 27.8999 91.8 27.7999 90.6 27.7999C90.1 30.7999 89.9 32.2999 89.5 35.2999C89.2 37.8999 90.2 38.7999 91.4 38.9999C92.8 39.2999 93.7 40.7999 93.4 42.1999L93.1 43.9999C92.9 45.2999 91.8 46.2999 90.4 46.2999C87 46.3999 81.2 45.2999 81.9 35.9999C82.1 33.2999 82.5 30.5999 82.8 27.8999ZM121.8 22.9999C118.8 22.5999 115.8 24.0999 114.4 26.7999C113 29.3999 109.6 36.2999 109.2 37.0999C108.9 33.5999 108.6 29.3999 108.3 26.0999C108.1 23.3999 105.9 21.2999 103.2 21.1999H103.1C100.7 21.0999 98.9 23.1999 99.4 25.4999C100.8 32.2999 102 39.1999 102.9 46.0999C103 46.8999 102.8 47.7999 102.4 48.5C101.4 50.2 99.9 50.2999 98.7 50C97.2 49.5999 95.5 50.2999 94.7 51.7C94.6 51.7999 94.6 51.9 94.5 52C93.4 53.7999 94.1 56.0999 96 57.0999C96.4 57.2999 96.9 57.5 97.3 57.5999C101.5 58.6999 105.5 56.0999 107.8 52.0999C112.9 43.7999 118.2 35.3999 123.8 27.0999C124.9 25.5999 123.9 23.2999 121.8 22.9999Z" fill="url(#paint24_linear_3_5061)"/>
<path d="M22.0002 32.9C20.7002 33.5 20.6002 32.1 22.0002 31.3C23.4002 30.5 26.3002 29.1 27.1002 28.8C27.9002 28.5 28.8002 29.1 26.8002 30C24.9002 30.8 23.6002 32.2 22.0002 32.9ZM42.6002 31.2C41.6002 31.8 41.3002 30.9 42.3002 30.1C43.2002 29.3 45.4002 28.2 45.6002 28.3C45.9002 28.3 46.3002 28.7 45.0002 29.3C43.7002 29.9 43.4002 30.7 42.6002 31.2ZM64.8002 25.2C64.2002 25.3 63.6002 24.4 64.8002 23.9C66.0002 23.4 67.2002 23.6 67.3002 23.8C67.4002 24 66.8002 24.1 66.1002 24.4C65.3002 24.6 65.3002 25.1 64.8002 25.2ZM85.9001 17C85.1001 17.2 84.7001 16.2 85.7001 15.7C86.7001 15.2 89.0001 15.3 89.3001 15.4C89.7001 15.5 89.8001 16.1 88.2001 16.1C86.7001 16.1 87.0001 16.7 85.9001 17ZM101.6 30.5C100.7 30.8 100.6 28.7 100.3 27.6C100 26.5 99.6002 24.4 100.3 23.9C101 23.4 101.7 23.7 101.8 26.1C101.9 28.6 102.4 30.2 101.6 30.5Z" fill="white"/>
<path d="M118.3 37.6001C122.9 38.7001 123.1 33.3001 119.6 33.0001C116.2 32.8001 114.4 36.7001 118.3 37.6001Z" fill="url(#paint25_linear_3_5061)"/>
<path d="M118.4 33.4002C116.3 33.8002 115.7 36.1002 118.6 35.8002C121.5 35.5002 121.9 32.8002 118.4 33.4002Z" fill="url(#paint26_linear_3_5061)"/>
<path d="M26.9003 54.7999C26.3003 55.0998 26.2003 54.2999 27.0003 53.7999C27.8003 53.1999 27.7003 54.2999 26.9003 54.7999ZM32.1003 4.49985C30.9003 4.89985 30.4003 3.99985 31.7003 3.39985C33.0003 2.79985 34.8003 2.19985 35.1003 2.39985C35.5003 2.59985 35.1003 3.39985 32.1003 4.49985ZM36.3003 2.49985C35.6003 2.59985 35.3003 2.19985 36.3003 1.89985C37.3003 1.59985 37.1003 2.29985 36.3003 2.49985Z" fill="white"/>
</g>
</g>
</g>
</g>
<defs>
<linearGradient id="paint0_linear_3_5061" x1="105.9" y1="82.5573" x2="38.1251" y2="4.5913" gradientUnits="userSpaceOnUse">
<stop stop-color="#5957FF"/>
<stop offset="1" stop-color="#27ADFF"/>
</linearGradient>
<linearGradient id="paint1_linear_3_5061" x1="101.041" y1="69.9022" x2="34.87" y2="3.73121" gradientUnits="userSpaceOnUse">
<stop stop-color="white"/>
<stop offset="1" stop-color="white"/>
</linearGradient>
<linearGradient id="paint2_linear_3_5061" x1="48.389" y1="25.148" x2="25.378" y2="2.13599" gradientUnits="userSpaceOnUse">
<stop stop-color="#FFAF43"/>
<stop offset="1" stop-color="#FFDF43"/>
</linearGradient>
<linearGradient id="paint3_linear_3_5061" x1="43.0451" y1="20.1311" x2="25.2151" y2="2.30007" gradientUnits="userSpaceOnUse">
<stop stop-color="white"/>
<stop offset="1" stop-color="white"/>
</linearGradient>
<linearGradient id="paint4_linear_3_5061" x1="63.1683" y1="52.394" x2="69.6423" y2="72.316" gradientUnits="userSpaceOnUse">
<stop stop-color="#5957FF"/>
<stop offset="1" stop-color="#27ADFF"/>
</linearGradient>
<linearGradient id="paint5_linear_3_5061" x1="63.6441" y1="8.98313" x2="70.1311" y2="14.2361" gradientUnits="userSpaceOnUse">
<stop stop-color="#FFDF43"/>
<stop offset="1" stop-color="#FFAF43"/>
</linearGradient>
<linearGradient id="paint6_linear_3_5061" x1="9.68989" y1="36.9862" x2="3.86089" y2="31.1572" gradientUnits="userSpaceOnUse">
<stop stop-color="#FFAF43"/>
<stop offset="1" stop-color="#FFDF43"/>
</linearGradient>
<linearGradient id="paint7_linear_3_5061" x1="133.383" y1="67.7423" x2="123.223" y2="57.5813" gradientUnits="userSpaceOnUse">
<stop stop-color="#FFAF43"/>
<stop offset="1" stop-color="#FFDF43"/>
</linearGradient>
<linearGradient id="paint8_linear_3_5061" x1="81.5682" y1="6.25497" x2="78.1972" y2="2.88397" gradientUnits="userSpaceOnUse">
<stop stop-color="#3EBF85"/>
<stop offset="1" stop-color="#3EE555"/>
</linearGradient>
<linearGradient id="paint9_linear_3_5061" x1="85.4332" y1="63.3649" x2="92.7222" y2="63.3649" gradientUnits="userSpaceOnUse">
<stop stop-color="#3EE555"/>
<stop offset="1" stop-color="#3EBF85"/>
</linearGradient>
<linearGradient id="paint10_linear_3_5061" x1="26.301" y1="56.4932" x2="35.55" y2="56.4932" gradientUnits="userSpaceOnUse">
<stop stop-color="#3EE555"/>
<stop offset="1" stop-color="#3EBF85"/>
</linearGradient>
<linearGradient id="paint11_linear_3_5061" x1="111.64" y1="15.2642" x2="108.215" y2="11.8392" gradientUnits="userSpaceOnUse">
<stop stop-color="#FFAF43"/>
<stop offset="1" stop-color="#FFDF43"/>
</linearGradient>
<linearGradient id="paint12_linear_3_5061" x1="26.8939" y1="16.6761" x2="21.1729" y2="10.9551" gradientUnits="userSpaceOnUse">
<stop stop-color="white"/>
<stop offset="1" stop-color="white"/>
</linearGradient>
<linearGradient id="paint13_linear_3_5061" x1="33.4553" y1="15.1431" x2="30.8063" y2="12.4941" gradientUnits="userSpaceOnUse">
<stop stop-color="white"/>
<stop offset="1" stop-color="white"/>
</linearGradient>
<linearGradient id="paint14_linear_3_5061" x1="32.37" y1="10.565" x2="30.679" y2="8.87401" gradientUnits="userSpaceOnUse">
<stop stop-color="white"/>
<stop offset="1" stop-color="white"/>
</linearGradient>
<linearGradient id="paint15_linear_3_5061" x1="42.0249" y1="14.3699" x2="37.3389" y2="9.68391" gradientUnits="userSpaceOnUse">
<stop stop-color="white"/>
<stop offset="1" stop-color="white"/>
</linearGradient>
<linearGradient id="paint16_linear_3_5061" x1="50.1999" y1="12.4131" x2="46.1329" y2="8.34611" gradientUnits="userSpaceOnUse">
<stop stop-color="white"/>
<stop offset="1" stop-color="white"/>
</linearGradient>
<linearGradient id="paint17_linear_3_5061" x1="8.22306" y1="34.9983" x2="4.29306" y2="31.0683" gradientUnits="userSpaceOnUse">
<stop stop-color="white"/>
<stop offset="1" stop-color="white"/>
</linearGradient>
<linearGradient id="paint18_linear_3_5061" x1="129.916" y1="63.3253" x2="124.219" y2="57.6273" gradientUnits="userSpaceOnUse">
<stop stop-color="white"/>
<stop offset="1" stop-color="white"/>
</linearGradient>
<linearGradient id="paint19_linear_3_5061" x1="67.3342" y1="11.7551" x2="64.6792" y2="9.10008" gradientUnits="userSpaceOnUse">
<stop stop-color="white"/>
<stop offset="1" stop-color="white"/>
</linearGradient>
<linearGradient id="paint20_linear_3_5061" x1="31.7522" y1="57.0212" x2="27.5882" y2="52.8582" gradientUnits="userSpaceOnUse">
<stop stop-color="white"/>
<stop offset="1" stop-color="white"/>
</linearGradient>
<linearGradient id="paint21_linear_3_5061" x1="89.3942" y1="63.3763" x2="86.1572" y2="60.1393" gradientUnits="userSpaceOnUse">
<stop stop-color="white"/>
<stop offset="1" stop-color="white"/>
</linearGradient>
<linearGradient id="paint22_linear_3_5061" x1="80.8923" y1="5.26808" x2="78.3523" y2="2.72808" gradientUnits="userSpaceOnUse">
<stop stop-color="white"/>
<stop offset="1" stop-color="white"/>
</linearGradient>
<linearGradient id="paint23_linear_3_5061" x1="78.801" y1="66.064" x2="67.792" y2="55.054" gradientUnits="userSpaceOnUse">
<stop stop-color="white"/>
<stop offset="1" stop-color="white"/>
</linearGradient>
<linearGradient id="paint24_linear_3_5061" x1="70.483" y1="58.0909" x2="70.483" y2="14.6679" gradientUnits="userSpaceOnUse">
<stop stop-color="#9DDAFF"/>
<stop offset="1" stop-color="white"/>
</linearGradient>
<linearGradient id="paint25_linear_3_5061" x1="121.095" y1="37.4011" x2="117.243" y2="33.5501" gradientUnits="userSpaceOnUse">
<stop stop-color="#FFAF43"/>
<stop offset="1" stop-color="#FFDF43"/>
</linearGradient>
<linearGradient id="paint26_linear_3_5061" x1="119.851" y1="35.6332" x2="117.662" y2="33.4442" gradientUnits="userSpaceOnUse">
<stop stop-color="white"/>
<stop offset="1" stop-color="white"/>
</linearGradient>
<clipPath id="clip0_3_5061">
<rect width="145" height="70" fill="white" transform="translate(0.200195)"/>
</clipPath>
<clipPath id="clip1_3_5061">
<rect width="145" height="70" fill="white" transform="translate(0.200195)"/>
</clipPath>
<clipPath id="clip2_3_5061">
<rect width="145" height="70" fill="white" transform="translate(0.200195)"/>
</clipPath>
</defs>
</svg>
