<svg width="104" height="70" viewBox="0 0 104 70" fill="none" xmlns="http://www.w3.org/2000/svg">
<g opacity="0.6" clip-path="url(#clip0_3_5188)">
<g clip-path="url(#clip1_3_5188)">
<g clip-path="url(#clip2_3_5188)">
<mask id="mask0_3_5188" style="mask-type:luminance" maskUnits="userSpaceOnUse" x="0" y="0" width="104" height="70">
<path d="M0.889893 0H103.557V70H0.889893V0Z" fill="white"/>
</mask>
<g mask="url(#mask0_3_5188)">
<path d="M0.944824 13.86C0.944824 13.86 6.29782 12.878 12.7918 8.818C20.6158 3.94 23.1428 0 23.1428 0L19.0758 17.866L0.945824 13.86H0.944824Z" fill="#06CBAD"/>
<path d="M0.889893 15.3882L18.8989 19.3612L11.6619 51.1522C11.6619 51.1522 10.8089 41.0462 7.86089 32.8502C6.29789 28.4952 0.889893 15.3882 0.889893 15.3882Z" fill="#F6CD01"/>
<path d="M38.5028 22.373C38.5028 22.373 34.0818 19.23 29.9698 12.834C25.0158 5.12995 24.4298 0.501953 24.4298 0.501953L20.3628 18.368L38.5028 22.373Z" fill="#FE466C"/>
<path d="M28.673 61.182C22.855 59.894 25.603 73.089 17.015 69.334C9.43501 66.028 12.681 52.276 12.903 51.349C12.903 51.338 12.903 51.338 12.914 51.327V51.306L20.007 20.103L38.016 24.053C38.016 24.053 27.454 33.637 24.14 36.922C21.801 39.247 19.607 41.953 17.79 44.409L18.787 38.526L17.335 42.477C16.7935 44.0066 16.3019 45.5534 15.861 47.115C9.91001 68.385 21.003 70.831 23.308 64.861C25.503 59.142 28.672 61.183 28.672 61.183L28.673 61.182Z" fill="#866AFB"/>
<path d="M58.396 27.5571C58.396 28.4961 58.052 29.3031 57.366 29.9801C56.678 30.6561 55.858 30.9951 54.905 30.9951C53.974 30.9951 53.165 30.6561 52.478 29.9801C51.791 29.3031 51.458 28.4951 51.458 27.5571C51.458 26.6401 51.802 25.8431 52.478 25.1771C53.165 24.5121 53.974 24.1851 54.905 24.1851C55.858 24.1851 56.678 24.5121 57.365 25.1781C58.052 25.8431 58.396 26.6401 58.396 27.5571Z" fill="#FE466C"/>
<path d="M31.4219 24.8179C32.8739 24.8179 33.9159 25.1779 34.5469 25.9089C35.1789 26.6399 35.4999 27.5689 35.4999 28.7029V42.6939C36.6478 41.2246 37.8045 39.7623 38.9699 38.3069C40.1439 36.8459 41.4172 35.4676 42.7809 34.1819C43.4909 33.5159 44.2109 33.0899 44.9529 32.9159C45.6959 32.7409 46.5489 32.6539 47.5029 32.6539H50.9049V32.8609C50.4839 33.2109 49.8629 33.8329 49.0209 34.6949C48.1779 35.5679 47.2909 36.5169 46.3499 37.5649C45.4013 38.6112 44.4666 39.6699 43.5459 40.7409C42.6159 41.8209 41.8509 42.7489 41.2299 43.5239C42.1829 44.6809 43.1249 45.8479 44.0899 47.0049C45.0439 48.1625 46.0454 49.2801 47.0919 50.3549C47.6239 50.8689 48.1009 51.2949 48.5109 51.6549C48.9319 52.0039 49.3089 52.2879 49.6629 52.5049C50.0179 52.7129 50.3509 52.8879 50.6719 53.0299C50.9929 53.1599 51.3259 53.2909 51.6689 53.3999C51.3479 54.3399 50.9159 55.0489 50.3509 55.5289C49.7849 56.0189 48.8879 56.2599 47.6579 56.2599C46.9448 56.2539 46.24 56.1057 45.5849 55.8239C44.912 55.5514 44.2986 55.1506 43.7789 54.6439C42.2573 53.1023 40.8183 51.4814 39.4679 49.7879C38.1151 48.0923 36.785 46.3788 35.4779 44.6479V56.0959L33.5829 56.1399C30.8679 56.1729 29.5049 54.7869 29.5049 52.0039V24.8289H31.4219V24.8179ZM62.6409 52.8219C62.6409 54.0979 62.3639 55.0039 61.8209 55.5389C61.2779 56.0739 60.3689 56.3469 59.1059 56.3469C56.8009 56.3469 55.0499 55.7249 53.8199 54.4799C52.5999 53.2359 51.9909 51.4249 51.9909 49.0459V33.1879H53.6759C54.9939 33.1879 56.0359 33.5379 56.7789 34.2469C57.5209 34.9559 57.8979 36.0469 57.8979 37.5209V48.4999C57.8979 49.6899 58.1749 50.4969 58.7179 50.9339C59.2609 51.3699 60.2029 51.5769 61.5219 51.5769H62.6419L62.6409 52.8219ZM83.9959 45.3139C83.9959 47.0269 83.7859 48.5769 83.3649 49.9629C82.9439 51.3489 82.2679 52.5489 81.3589 53.5529C80.4499 54.5579 79.2639 55.3329 77.8009 55.8669C76.3379 56.4019 74.5979 56.6749 72.5709 56.6749C71.0079 56.6749 69.5449 56.3579 68.1929 55.7359C66.8573 55.1276 65.6586 54.2555 64.6689 53.1719C63.6663 52.0695 62.8736 50.7932 62.3299 49.4059C61.7649 47.9869 61.4879 46.4709 61.4879 44.8559C61.4879 42.9339 61.7209 41.1879 62.1859 39.6159C62.6519 38.0559 63.3389 36.7139 64.2359 35.5899C65.1281 34.4753 66.2815 33.598 67.5939 33.0359C68.9359 32.4459 70.4759 32.1519 72.2159 32.1519C72.8029 32.1519 73.4019 32.2389 73.9999 32.4249C74.5955 32.6109 75.1654 32.8713 75.6959 33.1999C76.2159 33.5269 76.6929 33.9199 77.1259 34.3779C77.5569 34.8369 77.8899 35.3169 78.1119 35.8409V24.8179H79.9179C81.3249 24.8179 82.3559 25.1779 82.9979 25.9089C83.6419 26.6399 83.9739 27.6009 83.9739 28.7899V45.3139H83.9959ZM78.0459 45.0519C78.0459 43.5679 77.8899 42.3119 77.5799 41.3079C77.2699 40.2929 76.8599 39.4749 76.3379 38.8529C75.8179 38.2309 75.2079 37.7729 74.5099 37.4889C73.8002 37.1954 73.0389 37.0468 72.2709 37.0519C71.4959 37.0519 70.8079 37.2159 70.1989 37.5539C69.5874 37.8935 69.0608 38.3674 68.6589 38.9399C68.2369 39.5299 67.9049 40.2389 67.6719 41.0569C67.4311 41.9164 67.3116 42.8053 67.3169 43.6979C67.3169 44.9209 67.4729 46.0229 67.7829 47.0049C68.0929 47.9979 68.5139 48.8499 69.0459 49.5479C69.5408 50.2231 70.1808 50.7787 70.9189 51.1739C71.652 51.5523 72.4659 51.7472 73.2909 51.7419C74.9529 51.7419 76.1719 51.1629 76.9259 49.9959C77.6679 48.8389 78.0459 47.1909 78.0459 45.0519ZM103.557 48.7519C103.557 51.2399 102.704 53.1819 100.997 54.5799C99.2899 55.9759 96.8299 56.6749 93.6269 56.6749C92.5299 56.6749 91.5209 56.5439 90.6019 56.2819C89.6709 56.0199 88.8619 55.6819 88.1749 55.2559C87.4869 54.8309 86.9449 54.3389 86.5679 53.7939C86.1909 53.2369 85.9909 52.6589 85.9909 52.0479V49.4179H86.2009C86.5837 49.7467 87.0043 50.0287 87.4539 50.2579C87.9749 50.5309 88.5509 50.7709 89.2049 50.9779C89.8479 51.1849 90.5349 51.3379 91.2449 51.4579C91.9539 51.5679 92.6629 51.6329 93.3719 51.6329C96.2419 51.6329 97.6829 50.7819 97.6829 49.0679C97.6829 48.7299 97.6169 48.4349 97.4829 48.1839C97.3509 47.9339 97.1179 47.7139 96.7629 47.5079C96.4089 47.2999 95.9099 47.1249 95.2669 46.9619C94.432 46.769 93.5892 46.6122 92.7409 46.4919C90.2139 46.1539 88.3299 45.4779 87.1109 44.4739C85.8909 43.4689 85.2819 42.0729 85.2819 40.2719C85.2819 39.1799 85.5259 38.1439 86.0019 37.1499C86.4874 36.148 87.1872 35.2652 88.0519 34.5639C88.9389 33.8329 89.9919 33.2439 91.2329 32.8179C92.4749 32.3809 93.8599 32.1739 95.3889 32.1739C96.7409 32.1739 97.8939 32.3269 98.8469 32.6319C99.7999 32.9379 100.587 33.3309 101.207 33.8219C101.828 34.3119 102.271 34.8479 102.559 35.4479C102.836 36.0379 102.981 36.6159 102.981 37.1719V39.3769H102.77C102.149 38.7659 101.218 38.2529 99.9659 37.8379C98.7139 37.4229 97.3839 37.2159 95.9539 37.2159C94.1479 37.2159 92.8959 37.4659 92.2089 37.9579C91.5209 38.4489 91.1889 39.0709 91.1889 39.8239C91.1889 40.1079 91.2549 40.3589 91.3769 40.5769C91.4989 40.7959 91.7319 40.9919 92.0649 41.1669C92.3969 41.3409 92.8849 41.5049 93.4949 41.6469C94.1149 41.7889 94.9349 41.9409 95.9549 42.1169C98.4699 42.5309 100.365 43.2729 101.651 44.3429C102.914 45.3899 103.557 46.8629 103.557 48.7519Z" fill="#360872"/>
<path d="M35.0239 61.9679C34.9239 61.8369 34.8019 61.7279 34.6579 61.6399C34.5094 61.5542 34.3538 61.4812 34.1929 61.4219C33.8896 61.3191 33.5712 61.2674 33.2509 61.2689C32.9738 61.2689 32.699 61.3208 32.4409 61.4219C32.1991 61.5167 31.9803 61.6619 31.7989 61.8479C31.6152 62.0351 31.4719 62.258 31.3779 62.5029C31.2736 62.7706 31.221 63.0556 31.2229 63.3429C31.2229 63.7139 31.2779 64.0409 31.3779 64.3249C31.4779 64.6089 31.6219 64.8489 31.7979 65.0349C31.9759 65.2199 32.1979 65.3619 32.4529 65.4599C32.7079 65.5589 32.9849 65.6019 33.2949 65.6019C33.4499 65.6019 33.6159 65.5919 33.7829 65.5579C33.9449 65.5276 34.1041 65.4841 34.2589 65.4279C34.4052 65.3756 34.5461 65.3096 34.6799 65.2309C34.8129 65.1549 34.9239 65.0669 35.0129 64.9809H35.0569V65.4609C35.0628 65.6643 35.0005 65.8639 34.8799 66.0279C34.7547 66.1867 34.6003 66.3201 34.4249 66.4209C34.2304 66.5243 34.0214 66.5978 33.8049 66.6389C33.5786 66.6827 33.3485 66.7045 33.1179 66.7039C32.6849 66.7039 32.2749 66.6279 31.8879 66.4749C31.5097 66.3277 31.1634 66.1091 30.8679 65.8309C30.572 65.545 30.3348 65.2039 30.1699 64.8269C29.9974 64.4119 29.9107 63.9663 29.9149 63.5169C29.9149 63.0269 29.9929 62.5789 30.1589 62.1639C30.3089 61.7668 30.5402 61.4054 30.8379 61.1028C31.1356 60.8002 31.4933 60.5632 31.8879 60.4069C32.3184 60.2375 32.7774 60.1526 33.2399 60.1569C33.5059 60.1569 33.7499 60.1779 33.9709 60.2329C34.1929 60.2869 34.3919 60.3629 34.5579 60.4729C34.7249 60.5819 34.8459 60.7229 34.9459 60.8879C35.0349 61.0509 35.0789 61.2479 35.0789 61.4549V61.9569H35.0239V61.9679ZM40.9419 66.6499C40.7471 66.6457 40.5611 66.5674 40.4219 66.4309C40.2659 66.2889 40.1889 66.0709 40.1889 65.7979V63.9099H37.5729V66.6499H37.0629C36.8534 66.6525 36.651 66.5741 36.4979 66.4309C36.3429 66.2889 36.2769 66.0709 36.2769 65.7979V60.2649H36.9079C37.0969 60.2649 37.2519 60.3299 37.3739 60.4609C37.4945 60.5877 37.5618 60.7559 37.5619 60.9309V62.8299H40.1899V60.2539H40.7769C40.8604 60.2525 40.9433 60.2675 41.0209 60.2979C41.1046 60.3277 41.1805 60.3758 41.2429 60.4389C41.3126 60.4973 41.366 60.5728 41.3979 60.6579C41.4384 60.743 41.4573 60.8368 41.4529 60.9309V66.6489H40.9429L40.9419 66.6499ZM43.9789 66.6499C43.8842 66.6475 43.7905 66.6289 43.7019 66.5949C43.605 66.5615 43.5175 66.5053 43.4469 66.4309C43.3669 66.3596 43.3058 66.2696 43.2689 66.1689C43.2228 66.0508 43.2004 65.9247 43.2029 65.7979V60.2539H43.7899C43.8789 60.2539 43.9569 60.2639 44.0339 60.2979C44.1162 60.3303 44.1916 60.3782 44.2559 60.4389C44.3232 60.502 44.3793 60.5761 44.4219 60.6579C44.4662 60.7421 44.4892 60.8358 44.4889 60.9309V66.6379H43.9789V66.6499ZM50.4839 65.7869C50.4839 65.9289 50.4619 66.0599 50.4179 66.1689C50.3725 66.2826 50.3005 66.3838 50.2079 66.4639C50.1079 66.5509 49.9629 66.6059 49.7859 66.6489C49.5677 66.697 49.3444 66.7192 49.1209 66.7149H48.6109C47.8469 66.7149 47.2589 66.5069 46.8609 66.1039C46.4509 65.6999 46.2509 65.1109 46.2509 64.3359V60.2539H46.7829C47.3149 60.2539 47.5919 60.5699 47.5919 61.1929V64.2589C47.5919 64.4989 47.6139 64.7069 47.6469 64.8699C47.6757 65.0214 47.7405 65.1638 47.8359 65.2849C47.9304 65.3981 48.0581 65.4786 48.2009 65.5149C48.3569 65.5579 48.5559 65.5799 48.7999 65.5799H49.1319C49.4419 65.5799 49.7089 65.5579 49.9519 65.5029C50.1849 65.4489 50.3739 65.4049 50.4839 65.3509V65.7869ZM56.9449 63.3529C56.9449 63.8449 56.8669 64.2809 56.7229 64.6959C56.5793 65.0843 56.3654 65.4429 56.0919 65.7539C55.8239 66.0529 55.4959 66.292 55.1292 66.4557C54.7625 66.6194 54.3655 66.704 53.9639 66.7039H53.4209C52.8669 66.7039 52.4339 66.5939 52.1129 66.3659C51.7919 66.1469 51.6249 65.7759 51.6249 65.2859V60.4829C51.7029 60.4509 51.8029 60.4289 51.9349 60.3959C52.0689 60.3739 52.2129 60.3409 52.3569 60.3199C52.5009 60.2979 52.6559 60.2759 52.7999 60.2649C52.9549 60.2549 53.0879 60.2429 53.2209 60.2429H53.8969C54.2629 60.2429 54.6399 60.3089 54.9939 60.4289C55.3599 60.5489 55.6819 60.7449 55.9809 60.9959C56.2689 61.2469 56.5009 61.5749 56.6789 61.9669C56.8559 62.3599 56.9449 62.8189 56.9449 63.3529ZM55.6259 63.5389C55.6259 63.1789 55.5819 62.8619 55.4819 62.5889C55.4028 62.3293 55.2665 62.0908 55.0829 61.8909C54.9135 61.706 54.7051 61.5608 54.4729 61.4659C54.2269 61.3667 53.9632 61.3184 53.6979 61.3239H53.4209C53.3759 61.3239 53.3319 61.3239 53.2769 61.3339C53.2209 61.3449 53.1659 61.3449 53.1209 61.3669C53.0589 61.379 52.9961 61.3864 52.9329 61.3889V65.0449C52.9329 65.2309 52.9769 65.3729 53.0769 65.4599C53.1769 65.5469 53.3429 65.5899 53.5869 65.5899H53.8089C54.0571 65.5888 54.3022 65.5347 54.5278 65.4312C54.7533 65.3277 54.9542 65.1773 55.1169 64.9899C55.2776 64.7983 55.4047 64.5809 55.4929 64.3469C55.5819 64.0959 55.6259 63.8229 55.6259 63.5389ZM63.3059 66.4969C63.2454 66.5726 63.1646 66.6295 63.0729 66.6609C62.9959 66.6929 62.8629 66.7039 62.6849 66.7039C62.4749 66.7039 62.2869 66.6609 62.1199 66.5739C61.9434 66.4785 61.8062 66.3237 61.7329 66.1369L61.2559 64.9799C61.1915 64.8367 61.1173 64.698 61.0339 64.5649C60.9746 64.4759 60.8998 64.3983 60.8129 64.3359C60.7422 64.2863 60.6633 64.2494 60.5799 64.2269C60.5019 64.2049 60.4249 64.1829 60.3359 64.1719C60.1919 64.1509 60.0699 64.1289 59.9589 64.1179C59.8489 64.1069 59.7589 64.0959 59.6929 64.0959V66.6609H59.2729C58.9839 66.6609 58.7629 66.5839 58.6069 66.4309C58.4629 66.2789 58.3859 66.0709 58.3859 65.8099V60.4499C58.4519 60.4289 58.5629 60.3959 58.6959 60.3739C58.8289 60.3419 58.9839 60.3199 59.1389 60.2979C59.3009 60.2735 59.4637 60.2552 59.6269 60.2429C59.7929 60.2329 59.9369 60.2219 60.0589 60.2219H60.7789C61.1009 60.2219 61.3999 60.2649 61.6549 60.3519C61.9209 60.4399 62.1419 60.5709 62.3309 60.7349C62.5184 60.897 62.6681 61.0982 62.7695 61.3244C62.8709 61.5505 62.9216 61.7961 62.9179 62.0439C62.9179 62.2629 62.8849 62.4699 62.8179 62.6659C62.7519 62.8629 62.6519 63.0259 62.5419 63.1789C62.4231 63.3284 62.2805 63.4575 62.1199 63.5609C61.9577 63.6597 61.7764 63.7231 61.5879 63.7469C61.7659 63.8119 61.9209 63.9319 62.0649 64.1069C62.2089 64.2819 62.3089 64.4569 62.3969 64.6419L62.9179 65.8319C63.0069 66.0169 63.0839 66.1589 63.1509 66.2569C63.2169 66.3659 63.2729 66.4419 63.3059 66.4969ZM60.2699 61.3019C60.2359 61.3019 60.1919 61.3019 60.1479 61.3129C60.1029 61.3129 60.0479 61.3239 59.9919 61.3239C59.9369 61.3339 59.8819 61.3339 59.8259 61.3459C59.7709 61.3559 59.7259 61.3679 59.6929 61.3679V63.0589C59.8369 63.0919 59.9819 63.1029 60.1369 63.1139H60.6239C60.8899 63.1139 61.1229 63.0369 61.3109 62.8959C61.4999 62.7539 61.5989 62.5359 61.5989 62.2409C61.5989 62.0439 61.5769 61.8909 61.5329 61.7709C61.4927 61.6573 61.4238 61.556 61.3329 61.4769C61.2448 61.4017 61.1375 61.3525 61.0229 61.3349C60.8953 61.3082 60.7654 61.2935 60.6349 61.2909H60.2699V61.3019ZM69.0469 65.9069C69.0469 66.0379 69.0249 66.1469 68.9799 66.2459C68.9318 66.3487 68.8551 66.4355 68.7589 66.4959C68.659 66.5619 68.5149 66.6159 68.3259 66.6489C68.0953 66.687 67.8618 66.7054 67.6279 66.7039H66.9409C66.1429 66.7039 65.5449 66.4969 65.1349 66.0709C64.7249 65.6559 64.5249 65.0339 64.5249 64.2049V63.0149C64.5249 62.7089 64.5359 62.4039 64.5589 62.0869C64.5809 61.7709 64.6139 61.4769 64.6469 61.2139C64.6909 60.8319 64.8129 60.5809 64.9799 60.4499C65.1569 60.3199 65.3789 60.2539 65.6329 60.2539H69.0249V60.6789C69.0249 61.1269 68.7369 61.3559 68.1489 61.3559H65.9439C65.9231 61.4788 65.9084 61.6026 65.8999 61.7269L65.8659 62.1199C65.8559 62.2509 65.8559 62.3819 65.8439 62.5019V62.8299H68.3379V63.2879C68.3379 63.4949 68.2709 63.6479 68.1379 63.7349C68.0049 63.8229 67.806 63.8769 67.5509 63.8769H65.8439V64.2479C65.8439 64.5319 65.866 64.7499 65.9109 64.9249C65.9448 65.0802 66.0259 65.2213 66.1429 65.3289C66.2663 65.4331 66.4162 65.5009 66.5759 65.5249C66.7529 65.5579 66.9629 65.5799 67.2179 65.5799H67.6389C67.8719 65.5799 68.1159 65.5689 68.3489 65.5469C68.5809 65.5249 68.8249 65.4919 69.0579 65.4369L69.0469 65.9069ZM75.1309 66.6499C75.0003 66.6508 74.87 66.6361 74.7429 66.6059C74.5877 66.5665 74.4437 66.4919 74.3219 66.3879C74.1383 66.2382 73.9743 66.0658 73.8339 65.8749C73.6276 65.5829 73.4425 65.2764 73.2799 64.9579L72.0939 62.6879C71.917 62.3379 71.7729 62.0879 71.6619 61.9459V66.6499H71.1519C71.0536 66.6475 70.9563 66.6289 70.8639 66.5949C70.7683 66.5588 70.6814 66.5029 70.6089 66.4309C70.5316 66.3575 70.4712 66.268 70.4319 66.1689C70.3849 66.0514 70.3624 65.9254 70.3659 65.7989V60.2429H71.0079C71.4409 60.2429 71.7949 60.3529 72.0829 60.5709C72.3709 60.7889 72.6259 61.1159 72.8479 61.5419L73.9779 63.7789C74.0449 63.9099 74.1229 64.0629 74.1889 64.2269C74.255 64.3899 74.3109 64.5319 74.3659 64.6409V60.2319H74.9429C75.0309 60.2319 75.1089 60.2539 75.1979 60.2869C75.2847 60.3213 75.3609 60.3778 75.4189 60.4509C75.4889 60.5197 75.5452 60.6012 75.5849 60.6909C75.6291 60.7787 75.652 60.8756 75.6519 60.9739V66.6279H75.1309V66.6499ZM84.6499 62.1969C84.6499 62.5349 84.5949 62.8409 84.4839 63.1139C84.3739 63.3869 84.2189 63.6159 84.0299 63.8009C83.8299 63.9869 83.5979 64.1389 83.3319 64.2379C83.0553 64.3399 82.7628 64.3917 82.4679 64.3909C82.0129 64.3909 81.6479 64.3139 81.3809 64.1719V66.6609H80.8709C80.7772 66.6613 80.6839 66.6465 80.5949 66.6169C80.5019 66.5808 80.4156 66.529 80.3399 66.4639C80.2596 66.382 80.1955 66.2856 80.1509 66.1799C80.1042 66.0432 80.0818 65.8993 80.0849 65.7549V60.5269C80.2012 60.487 80.3197 60.4543 80.4399 60.4289C80.584 60.3959 80.7389 60.3629 80.8939 60.3309C81.0489 60.2979 81.2039 60.2759 81.3699 60.2649C81.5249 60.2429 81.6699 60.2319 81.7799 60.2319H82.5119C82.8329 60.2319 83.1219 60.2759 83.3869 60.3629C83.6529 60.4509 83.8749 60.5819 84.0749 60.7449C84.2629 60.9089 84.4069 61.1269 84.5179 61.3669C84.5949 61.6069 84.6499 61.8799 84.6499 62.1969ZM83.3199 62.3169C83.3199 61.9459 83.2429 61.6839 83.0769 61.5309C82.9219 61.3779 82.6669 61.2909 82.3349 61.2909H81.9129C81.8359 61.2909 81.7469 61.3019 81.6359 61.3239C81.5359 61.3459 81.4479 61.3669 81.3699 61.3779V63.1899C81.4809 63.2229 81.6249 63.2449 81.7909 63.2659C81.9579 63.2879 82.1239 63.2989 82.2909 63.2989C82.6229 63.2989 82.8779 63.2119 83.0549 63.0369C83.2319 62.8629 83.3199 62.6229 83.3199 62.3169ZM90.1589 65.7869C90.1589 65.9289 90.1359 66.0599 90.0919 66.1689C90.0465 66.2826 89.9745 66.3838 89.8819 66.4639C89.7819 66.5509 89.6379 66.6059 89.4599 66.6489C89.242 66.6969 89.0191 66.7191 88.7959 66.7149H88.2859C87.521 66.7149 86.9339 66.5069 86.5349 66.1039C86.1249 65.6999 85.9249 65.1109 85.9249 64.3359V60.2539H86.4569C86.9889 60.2539 87.2669 60.5699 87.2669 61.1929V64.2589C87.2669 64.4989 87.2879 64.7069 87.3219 64.8699C87.3504 65.0213 87.4149 65.1637 87.5099 65.2849C87.6046 65.3983 87.7327 65.4788 87.8759 65.5149C88.0309 65.5579 88.2299 65.5799 88.4739 65.5799H88.8069C89.1169 65.5799 89.3829 65.5579 89.6269 65.5029C89.8589 65.4489 90.0469 65.4049 90.1589 65.3509V65.7869ZM95.9429 66.6499C95.6769 66.6499 95.4669 66.5839 95.3229 66.4529C95.1789 66.3219 95.09 66.1799 95.0679 66.0269C95.0292 65.6853 94.9697 65.3463 94.8899 65.0119H92.3079C92.2419 65.2849 92.1749 65.5579 92.1309 65.8309C92.0759 66.1039 92.0209 66.3759 91.9759 66.6489H91.4659C91.2559 66.6489 91.0999 66.5949 91.0009 66.4859C90.9109 66.3759 90.8679 66.2239 90.8679 66.0269C90.8679 65.8739 90.9009 65.6449 90.9679 65.3509C91.034 65.0559 91.1109 64.7279 91.2219 64.3569C91.3329 63.9869 91.4549 63.6039 91.5989 63.2009C91.7429 62.7969 91.8989 62.4039 92.0639 62.0329C92.2309 61.6509 92.3969 61.3129 92.5739 60.9959C92.7164 60.7307 92.8874 60.4819 93.0839 60.2539H93.6159C93.8819 60.2539 94.1039 60.3089 94.2699 60.4289C94.4469 60.5489 94.5689 60.6789 94.6579 60.8429C94.8019 61.1049 94.9679 61.4539 95.1449 61.9019C95.3339 62.3489 95.5109 62.8399 95.6879 63.3749C95.867 63.9223 96.0261 64.476 96.1649 65.0349C96.3089 65.6019 96.4089 66.1359 96.4749 66.6489L95.9429 66.6499ZM94.6029 63.9969C94.5448 63.7643 94.4744 63.535 94.3919 63.3099C94.3139 63.0699 94.2259 62.8399 94.1369 62.6109C94.0553 62.3918 93.9629 62.1769 93.8599 61.9669C93.7757 61.7903 93.687 61.616 93.5939 61.4439C93.4939 61.6069 93.4049 61.7929 93.3059 61.9999C93.2169 62.2069 93.1169 62.4259 93.0289 62.6439C92.9361 62.8652 92.8547 63.0912 92.7849 63.3209C92.7096 63.5436 92.6429 63.7691 92.5849 63.9969H94.6029ZM102.316 60.7559C102.316 60.8319 102.282 60.9519 102.216 61.1159C102.139 61.2996 102.05 61.4783 101.95 61.6509C101.832 61.8626 101.706 62.07 101.573 62.2729C101.429 62.4909 101.296 62.7089 101.152 62.9169C101.008 63.1239 100.875 63.3209 100.742 63.4949C100.609 63.6699 100.498 63.8229 100.398 63.9319V66.6599H99.8549C99.7602 66.6578 99.6665 66.6395 99.5779 66.6059C99.481 66.5726 99.3935 66.5163 99.3229 66.4419C99.2457 66.3684 99.1853 66.279 99.1459 66.1799C99.0988 66.062 99.0764 65.9358 99.0799 65.8089V63.9199C98.8758 63.6554 98.6833 63.3821 98.5029 63.1009C98.3149 62.7959 98.1269 62.4909 97.9489 62.1629C97.7778 61.8437 97.6154 61.5199 97.4619 61.1919C97.3229 60.8841 97.1971 60.5705 97.0849 60.2519H97.6949C97.9489 60.2519 98.1489 60.3079 98.2929 60.4059C98.4104 60.4768 98.5062 60.5785 98.5699 60.6999C98.6469 60.8859 98.7359 61.0819 98.8469 61.2899C98.9469 61.4969 99.0569 61.6939 99.1569 61.8899C99.2679 62.0859 99.3789 62.2719 99.4899 62.4579C99.5999 62.6429 99.7109 62.7959 99.8109 62.9379C100.086 62.5565 100.337 62.1591 100.565 61.7479C100.698 61.5062 100.82 61.2586 100.93 61.0059C101.041 60.7549 101.141 60.5039 101.207 60.2639H101.773C101.939 60.2639 102.072 60.3079 102.161 60.4059C102.271 60.4819 102.316 60.6029 102.316 60.7559Z" fill="#866AFB"/>
</g>
</g>
</g>
</g>
<defs>
<clipPath id="clip0_3_5188">
<rect width="103" height="70" fill="white" transform="translate(0.889893)"/>
</clipPath>
<clipPath id="clip1_3_5188">
<rect width="103" height="70" fill="white" transform="translate(0.889893)"/>
</clipPath>
<clipPath id="clip2_3_5188">
<rect width="103" height="70" fill="white" transform="translate(0.889893)"/>
</clipPath>
</defs>
</svg>
