<svg width="89" height="70" viewBox="0 0 89 70" fill="none" xmlns="http://www.w3.org/2000/svg">
<g opacity="0.6" clip-path="url(#clip0_3_5161)">
<g clip-path="url(#clip1_3_5161)">
<g clip-path="url(#clip2_3_5161)">
<mask id="mask0_3_5161" style="mask-type:luminance" maskUnits="userSpaceOnUse" x="0" y="0" width="89" height="70">
<path d="M0.969971 0H88.47V70H0.969971V0Z" fill="white"/>
</mask>
<g mask="url(#mask0_3_5161)">
<path d="M34.9251 55.1848C34.6931 55.8988 34.3771 56.5928 34.0811 57.2858C33.4914 58.6961 32.88 60.0972 32.2471 61.4888C31.9941 62.0348 31.8041 62.7288 31.1071 62.7488H30.6861C30.0961 62.7488 29.4841 62.6868 28.8931 62.6658C25.8991 62.5818 22.9041 62.5188 19.9091 62.3718C19.7191 62.3718 19.5091 62.3508 19.3191 62.3508C18.0321 62.2878 16.7461 62.1608 15.4811 61.9088C15.1851 61.8458 14.8911 61.7828 14.5951 61.6988C14.4261 61.6568 14.2361 61.5938 14.0681 61.5518C13.8141 61.4678 13.7931 61.5308 13.7931 61.2788C13.7931 61.0268 14.0891 60.6488 14.1941 60.4168C14.3001 60.1868 14.4261 59.9338 14.5321 59.7028C14.6161 59.5348 14.6791 59.3868 14.7641 59.2188C14.8271 59.0928 14.8901 58.9458 14.9541 58.8198C14.9541 58.8198 14.9541 58.7998 14.9741 58.7998L16.3661 55.9618C16.7671 55.1848 17.1461 54.4068 17.5681 53.6288C18.1581 52.5158 18.7491 51.4018 19.3611 50.2888C19.4241 50.1618 19.4451 50.0358 19.4031 49.9308C19.3611 49.7628 19.2131 49.6368 19.0451 49.5738C18.9391 49.4268 18.7711 49.3218 18.5391 49.4058C18.2641 49.4898 17.9901 49.5528 17.7161 49.6358C16.7671 49.8888 15.8181 50.0568 14.8481 50.1618C14.2151 50.2248 13.6041 50.2878 12.9711 50.2878C12.2331 50.3088 11.0511 50.4778 10.5031 49.8678C10.0401 49.3418 9.99713 48.4808 9.91313 47.8078C9.79391 46.8238 9.71651 45.8353 9.68113 44.8448C9.66013 44.4248 9.61813 43.9418 9.89113 43.5848C10.1031 43.3108 10.4821 43.1428 10.7991 43.0168C12.5109 42.2867 14.2408 41.5998 15.9871 40.9568C16.5571 40.7468 17.1471 40.5368 17.7161 40.3268C19.2316 39.7967 20.7652 39.3201 22.3141 38.8978C22.3341 38.8978 22.3561 38.8778 22.3771 38.8778C23.4843 38.581 24.6029 38.3285 25.7301 38.1208C26.0461 38.0578 26.3841 37.9948 26.7001 37.9518C28.5338 37.6545 30.3896 37.514 32.2471 37.5318C32.6891 37.5318 33.1321 37.5318 33.5541 37.5948C34.0811 37.6578 34.1441 37.9318 34.1441 38.4148C34.1661 39.3188 34.0181 40.2008 33.7651 41.0628C33.1951 43.1228 32.2471 45.0548 31.4031 46.9888C31.3611 47.0728 31.3401 47.1358 31.2981 47.2198C31.1711 47.5348 31.0241 47.8498 30.8971 48.1658C30.8971 48.1858 30.8761 48.2078 30.8761 48.2078C30.1591 49.8468 29.4631 51.4648 28.7461 53.1038C28.6829 53.2586 28.6829 53.432 28.7461 53.5868C28.7881 53.7138 28.8931 53.7968 29.0411 53.8188L33.5331 54.6168C33.8701 54.6798 34.2291 54.7428 34.5661 54.8068C34.6511 54.8268 34.8201 54.8268 34.9041 54.8898C35.0521 54.9948 35.0091 54.9948 34.9251 55.1848Z" fill="white"/>
<path d="M48.7602 41.8612C47.9162 40.4952 46.5032 39.5502 44.9842 39.0872C41.6312 38.1002 38.2142 39.7172 36.2742 42.4922C33.9542 45.8332 34.0812 50.2042 35.6212 53.8402C35.6503 53.8984 35.6671 53.9621 35.6705 54.0271C35.674 54.0921 35.664 54.1572 35.6412 54.2182C35.9372 54.4702 36.0632 54.8482 35.9372 55.3112L35.8742 55.5002C37.5612 58.5262 41.7582 59.6402 44.7102 57.7482C46.3552 56.6982 47.5572 54.9752 48.4002 53.2302C49.2264 51.4899 49.7066 49.6056 49.8142 47.6822C49.9192 45.7282 49.8142 43.5642 48.7592 41.8622L48.7602 41.8612ZM43.2552 51.8852C42.0532 52.3692 40.2602 51.9062 40.0072 50.4772C39.7972 49.3222 40.5562 47.8722 41.7792 47.7032C42.7492 47.3462 43.9722 47.7242 44.4992 48.6492C45.1742 49.8472 44.4792 51.3812 43.2552 51.8852Z" fill="#33B6B7"/>
<path d="M66.0311 41.5882C65.5891 41.2942 64.9981 41.2732 64.4911 41.2312C63.7549 41.1679 63.0157 41.1465 62.2771 41.1672C61.9611 41.1882 61.6451 41.1882 61.3501 41.2312C61.0751 41.2732 61.0121 41.3362 60.9281 41.6302C60.5901 42.9752 60.4221 44.3622 60.1681 45.7072C59.9161 47.0942 59.6411 48.4602 59.3881 49.8472C59.3041 50.3092 58.7131 50.2672 58.5021 49.9732C56.1824 46.9235 54.2884 43.5725 52.8721 40.0122C51.6701 40.2012 50.5311 40.6422 49.4971 41.2522C49.7931 41.6922 50.0461 42.1762 50.2361 42.6812C51.0161 44.7612 50.9531 47.1572 50.6161 49.3212C50.4261 50.4772 50.1301 51.6332 49.6871 52.7262C49.7931 52.8102 49.8771 52.9362 49.8981 53.1042C50.0512 55.175 50.4188 57.2243 50.9951 59.2192C51.9021 59.2402 52.8081 59.2402 53.6951 59.2612H54.4531C54.6011 59.2612 54.8961 59.2192 55.0231 59.2612H55.0651C55.0651 59.1982 55.0441 59.1142 55.0441 59.0512C55.0231 58.7992 54.9811 58.5262 54.9601 58.2732C54.7271 56.2772 54.5171 54.2812 54.2851 52.2842C54.2431 51.8222 54.8331 51.6962 55.1281 51.9482C56.3301 52.9982 57.5111 54.0712 58.7131 55.1212L60.4221 56.6342C60.9921 57.1392 61.4971 57.8112 62.3411 57.6642C63.0581 57.5382 63.8381 57.4332 64.5131 57.2232C64.8501 57.1182 64.8081 56.9712 64.8501 56.6342L64.9771 55.6892L65.4831 51.4862C65.8201 48.7332 66.2001 46.0012 66.4531 43.2482C66.5161 42.6382 66.5801 41.9242 66.0311 41.5882Z" fill="#F9DE6A"/>
<path d="M77.4202 55.1222C76.4282 55.3322 75.4582 55.5632 74.4672 55.7522C73.5602 55.9422 72.5692 56.0462 71.8102 55.4372C71.1982 54.9542 70.9032 54.1132 71.3252 53.3992C71.6832 52.7692 72.4432 52.5792 73.1172 52.5582C74.4042 52.4742 75.8592 52.8102 76.8922 51.8012C77.8842 50.8142 77.1882 49.0282 75.7962 48.9432C74.3832 48.8592 72.6752 49.8472 71.5562 48.5032C70.7562 47.5562 70.9462 45.9802 72.0212 45.3292C73.3712 44.5092 74.9312 45.5182 76.3232 44.9932C77.6932 44.4672 77.7152 42.5972 76.9132 41.6092C75.8172 40.2432 73.9612 40.0332 72.3372 40.1802C70.5872 40.3272 68.7522 40.6642 67.1702 41.4412C67.4232 41.9242 67.5082 42.5342 67.4442 43.1852C67.1282 46.4432 66.6852 49.7002 66.2842 52.9572V53.0002C66.3294 53.032 66.3678 53.0725 66.397 53.1194C66.4262 53.1663 66.4456 53.2186 66.4542 53.2732C66.8752 54.9132 67.2762 56.5732 67.6972 58.2122C67.7822 58.5482 67.8032 58.9472 68.1612 59.0732C68.4572 59.1792 68.8782 59.1362 69.1742 59.1362C69.9752 59.1362 70.7982 59.1162 71.5992 59.0732C73.2693 58.9752 74.9317 58.7718 76.5762 58.4642C76.8502 58.4222 77.3782 58.4222 77.5462 58.1702C77.7152 57.9182 77.6732 57.2452 77.6732 56.9512C77.6732 56.3212 77.5882 55.7102 77.4202 55.1222Z" fill="#7CB413"/>
<path d="M83.7051 15.3609C83.6841 15.4239 83.6841 15.4869 83.6621 15.5709C83.5361 16.2859 83.3041 17.0429 82.7981 17.5679L82.7771 17.5879C82.6921 17.6729 82.6081 17.7359 82.5241 17.7989C81.8281 18.3239 81.2371 18.2399 80.668 17.9459C80.014 17.5889 79.4021 16.9159 78.7701 16.5169C78.5215 16.3595 78.2513 16.2392 77.9681 16.1599C76.8291 15.8449 75.648 16.2439 74.699 16.9999C74.594 17.0849 74.4681 17.1899 74.3621 17.2949L74.2991 17.3579C73.8771 17.7779 73.4971 18.2819 73.3711 18.8499C73.2231 19.4169 73.3501 19.9849 73.6241 20.4889C73.8142 20.8011 74.0487 21.084 74.3201 21.3289C75.2901 22.2119 76.682 22.6109 77.905 22.9889C78.285 23.1159 78.6851 23.2209 79.0651 23.3469C79.9931 23.6619 80.9211 24.0399 81.6801 24.6499C81.8281 24.7759 81.9751 24.9019 82.1021 25.0499C83.0931 26.1199 83.4521 27.6759 83.3041 29.1049C83.2831 29.3149 83.2621 29.5049 83.2201 29.6929C83.1312 30.1262 82.9967 30.5488 82.819 30.9539C82.6853 31.252 82.5303 31.5401 82.3551 31.8159C82.2056 32.0669 82.0364 32.3057 81.849 32.5299C80.626 34.0859 78.8121 35.2409 77.0401 35.9349C76.5341 36.1449 76.0281 36.2919 75.5001 36.4389C74.1721 36.7749 72.8011 36.9009 71.4101 36.9009C70.9671 36.9009 70.5241 36.9009 70.0801 36.8809C69.5751 36.8589 69.0691 36.8379 68.5411 36.7959C67.6981 36.7119 66.9601 36.4599 66.4111 35.7879C65.4621 34.6529 65.5681 33.0139 66.7071 32.0469C67.0078 31.7922 67.3602 31.6059 67.74 31.5009C68.056 31.3959 68.415 31.3749 68.752 31.3959C68.858 31.4159 68.9421 31.4159 69.0481 31.4379C69.7221 31.5429 70.3341 31.7529 71.0081 31.5009C71.3681 31.3749 71.6841 31.1849 71.9581 30.9539C72.1481 30.7859 72.3161 30.5969 72.4641 30.3869C72.6851 30.0572 72.8349 29.685 72.9038 29.2941C72.9727 28.9032 72.9591 28.5023 72.864 28.1169C72.7384 27.6381 72.5083 27.1931 72.1901 26.8139C72.0227 26.6232 71.839 26.4475 71.641 26.2889C70.988 25.7849 70.2071 25.6369 69.4271 25.4489C68.7311 25.2799 67.9091 25.0069 67.7191 24.2289C67.7048 24.1601 67.6744 24.0957 67.6305 24.0409C67.5865 23.9862 67.5301 23.9426 67.4661 23.9139C67.4451 23.9139 67.4241 23.8939 67.4031 23.8939C67.5711 22.8429 67.6341 21.7709 67.6341 20.7409C67.6341 20.1739 67.592 19.6059 67.529 19.0599C67.339 17.5469 66.9181 16.0549 66.2431 14.6889C66.1161 14.4579 65.99 14.2059 65.863 13.9739L65.99 13.5959C66.3532 12.6019 66.8962 11.6832 67.5921 10.8859C68.2558 10.1201 69.0393 9.467 69.9121 8.95189C70.393 8.66299 70.9019 8.42345 71.431 8.23689C71.536 8.19489 71.621 8.17389 71.726 8.13189C71.747 8.13189 71.7681 8.11189 71.7891 8.11189C73.4551 7.58589 75.1631 7.69089 76.8721 8.02689C76.9561 8.04789 77.0401 8.06889 77.1251 8.06889C77.8001 8.19489 78.495 8.34189 79.17 8.55289C79.888 8.76289 80.583 9.01489 81.2371 9.37289C81.9121 9.72889 82.503 10.1919 82.946 10.7589C83.3867 11.3193 83.6704 11.9867 83.768 12.6929C83.873 13.5959 83.8311 14.4999 83.7051 15.3609Z" fill="white"/>
<path d="M66.601 19.7118C66.475 17.9038 65.969 16.0968 65.061 14.5218C64.935 14.4368 64.83 14.3108 64.83 14.1418C64.6873 13.9168 64.5324 13.6998 64.366 13.4918C62.995 11.7048 61.096 10.6538 58.904 10.1918C54.728 9.30881 48.823 9.39281 46.44 13.5958C46.398 13.6588 46.355 13.7008 46.313 13.7428L46.376 17.1688C46.398 17.1888 46.44 17.2318 46.461 17.2528C49.287 21.4128 49.814 26.5408 50.489 31.3748C50.573 31.9628 50.637 32.5518 50.742 33.1188C50.869 33.7288 51.079 33.8758 51.692 33.9588C52.9174 34.1027 54.155 34.1101 55.382 33.9808C57.659 33.7488 59.874 32.9718 61.751 31.6478C63.459 30.4498 64.851 28.7688 65.589 26.8148C66.475 24.6078 66.77 22.0858 66.601 19.7118ZM60.042 23.2218C58.777 24.2508 57.111 23.9568 55.592 24.0408C55.382 24.0608 55.171 23.8728 55.129 23.6828C54.812 22.5908 54.623 21.4768 54.496 20.3628C54.243 19.8168 54.433 19.2278 54.939 18.8928C55.466 18.5348 56.246 18.4928 56.858 18.4928C58.144 18.4928 59.494 18.9128 60.358 19.9008C61.287 20.9728 61.139 22.3398 60.042 23.2218Z" fill="#F8526B"/>
<path d="M45.47 24.4818C45.47 25.6378 45.47 26.7938 45.448 27.9708C45.448 28.8738 45.428 29.7568 45.428 30.6608C44.3482 30.766 43.2647 30.8287 42.18 30.8488C41.505 30.8698 40.809 30.8698 40.134 30.8698C39.3393 30.8523 38.5449 30.8243 37.751 30.7858C37.73 30.4708 37.688 30.1558 37.666 29.8618C37.624 29.3578 37.561 28.8528 37.519 28.3488C37.392 27.2348 37.287 26.1418 37.139 25.0288C37.076 24.4608 36.992 23.9148 36.929 23.3468L36.485 20.0268C36.422 19.6268 36.38 19.2278 36.317 18.8288C36.232 18.3038 36.169 17.7788 36.085 17.2738C35.937 16.3698 35.81 15.4878 35.642 14.5838C35.579 14.1638 35.494 13.7638 35.431 13.3438C35.4246 13.2834 35.4041 13.2252 35.3711 13.1741C35.3381 13.1231 35.2935 13.0805 35.241 13.0498C35.578 12.3148 35.916 11.5998 36.253 10.8428C36.464 10.3598 36.717 9.83485 36.675 9.28785C36.633 8.67885 36.19 8.27985 35.621 8.11185L35.368 8.04885C35.3903 7.9875 35.3998 7.92225 35.396 7.85708C35.3922 7.79191 35.3752 7.72821 35.346 7.66985C34.63 6.11485 35.6 4.43385 36.928 3.59285C36.97 3.57285 37.034 3.52985 37.076 3.50885C37.5924 3.20332 38.1451 2.96346 38.721 2.79485C39.817 2.47985 40.999 2.45885 42.031 2.81485C42.433 2.96285 42.791 3.15185 43.086 3.40485C43.403 3.65685 43.656 3.97185 43.866 4.30785C44.288 5.02185 44.457 5.88385 44.436 6.78785C44.415 7.53931 44.2126 8.27456 43.846 8.93085C43.547 9.45604 43.1275 9.90265 42.622 10.2338C42.58 10.2548 42.559 10.2758 42.517 10.2968C42.412 10.3178 42.306 10.3598 42.243 10.4438C42.1076 10.5124 41.9664 10.5686 41.821 10.6118C41.231 10.8018 41.484 11.7468 42.074 11.5578C42.306 11.4948 42.517 11.3898 42.728 11.2848L45.28 11.4108C45.3 11.9568 45.3 12.5248 45.322 13.0708C45.364 14.5208 45.385 15.9708 45.406 17.4208C45.448 19.7538 45.47 22.1068 45.47 24.4818Z" fill="white"/>
<path d="M11.1781 33.3708C11.3261 33.9388 11.4521 34.5058 11.6001 35.0518C11.6631 35.3258 11.7471 35.6198 11.8101 35.8928C11.8741 36.1028 11.8951 36.5438 12.1061 36.6908C12.2961 36.8178 12.7601 36.7758 12.9921 36.7968C13.2241 36.8168 13.4771 36.8168 13.7091 36.8168C14.2571 36.8168 14.8051 36.8168 15.3331 36.7548C16.3187 36.668 17.2933 36.4848 18.2431 36.2078C18.4892 33.6239 18.5667 31.0267 18.4751 28.4328C18.4541 28.0548 18.8971 27.8438 19.2131 28.0128C21.2801 29.1258 22.3551 31.2698 24.0431 32.8028C24.2751 33.0138 24.5061 33.2028 24.7601 33.3708C25.1401 33.6228 25.3291 33.6438 25.7501 33.4338C26.4471 33.0768 27.1431 32.7408 27.8391 32.3838L31.8041 30.3658C30.9265 28.2284 29.8972 26.1564 28.7241 24.1658C28.3708 24.6859 28.0054 25.1977 27.6281 25.7008C27.2691 26.2048 26.4051 25.7208 26.7841 25.2178C28.4941 22.8683 30.0848 20.4342 31.5501 17.9248C32.8409 15.689 34.0164 13.3887 35.0721 11.0328C35.2201 10.6958 35.3681 10.3808 35.5151 10.0448C35.6001 9.83479 35.7891 9.45579 35.6841 9.24579C35.4941 8.82579 34.5031 8.88879 34.1441 8.84679C32.7505 8.6748 31.3508 8.55572 29.9481 8.48979C29.2456 8.44778 28.5419 8.42677 27.8381 8.42679C27.2901 8.42679 26.5311 8.30079 26.1301 8.76279C25.6881 9.26679 25.3711 9.98179 25.0341 10.5698C24.6961 11.1378 24.3801 11.6838 24.0431 12.2508C22.5872 14.7053 21.1389 17.1643 19.6981 19.6278C19.3821 20.1528 18.5801 19.7118 18.8331 19.1648C18.9601 17.3158 18.9181 15.4448 18.7071 13.5958C18.5168 11.9625 18.1991 10.3466 17.7571 8.76279C17.5891 8.13279 17.4421 7.33379 16.9571 6.85079C16.4291 6.32479 15.6071 6.51379 14.9531 6.66079C11.7956 7.40091 8.65908 8.22789 5.54712 9.14079C6.09512 11.5578 6.64412 13.9748 7.19212 16.4118C8.22512 20.9298 9.28012 25.4498 10.3771 29.9668C10.6301 31.1228 10.9041 32.2368 11.1781 33.3708Z" fill="#F8C013"/>
<path d="M2.23607 4.83301C1.54573 6.03367 1.11447 7.36559 0.970072 8.74301C0.906072 9.37301 1.87607 9.35101 1.94007 8.74301C2.07148 7.53309 2.45945 6.3651 3.07807 5.31701C3.39507 4.77001 2.55107 4.28701 2.23507 4.83301H2.23607ZM87.5001 34.716C87.1421 35.662 86.7201 36.586 86.2351 37.49C85.9401 38.037 86.7831 38.541 87.0781 37.974C87.6061 37.007 88.0701 35.998 88.4491 34.969C88.6601 34.401 87.7111 34.149 87.5001 34.716ZM74.0881 67.12C72.6531 67.394 71.1981 67.667 69.7641 67.92C69.1531 68.024 69.4061 68.97 70.0171 68.865C71.4565 68.5885 72.8979 68.3222 74.3411 68.066C74.9521 67.94 74.6991 67.015 74.0881 67.12ZM6.72807 52.326C6.55907 51.717 5.61007 51.99 5.77907 52.579C6.09507 53.692 6.43307 54.806 6.74907 55.899C6.91807 56.509 7.86707 56.235 7.69907 55.647C7.38545 54.5375 7.06211 53.4308 6.72907 52.327L6.72807 52.326ZM47.4521 0.441013C47.2831 0.231013 46.9251 0.273013 46.7561 0.441013C46.5451 0.651013 46.5871 0.924013 46.7561 1.13501C47.1781 1.66001 47.5781 2.20601 47.9581 2.77401C48.2951 3.29901 49.1601 2.81601 48.8011 2.29001C48.3871 1.64816 47.9374 1.0308 47.4521 0.441013ZM70.1021 3.63601C69.0422 3.67015 68.0185 4.02977 67.1701 4.66601C66.6641 5.04401 67.1701 5.88401 67.6561 5.50601C68.3721 4.96001 69.1741 4.64401 70.0811 4.60201C70.7341 4.58201 70.7341 3.59401 70.1011 3.63601H70.1021Z" fill="#572C54"/>
<path d="M10.144 14.5839C10.924 14.5839 11.557 13.9539 11.557 13.1759C11.5567 12.9906 11.5199 12.8072 11.4488 12.6362C11.3776 12.4652 11.2734 12.3098 11.1422 12.1791C11.011 12.0483 10.8553 11.9447 10.684 11.8741C10.5127 11.8036 10.3292 11.7675 10.144 11.7679C9.36396 11.7679 8.73096 12.3979 8.73096 13.1759C8.73122 13.3611 8.76798 13.5445 8.83915 13.7155C8.91031 13.8865 9.01448 14.0419 9.1457 14.1726C9.27693 14.3034 9.43263 14.407 9.60391 14.4776C9.7752 14.5481 9.95871 14.5842 10.144 14.5839ZM18.327 21.0358C18.2697 20.8592 18.1681 20.7001 18.032 20.5738C17.9086 20.4333 17.7476 20.3309 17.568 20.2788C17.3971 20.1951 17.2092 20.1519 17.019 20.1529C16.8937 20.1772 16.7666 20.1913 16.639 20.1948C16.4035 20.2638 16.1872 20.3864 16.007 20.5528L15.775 20.8469C15.648 21.0569 15.585 21.3089 15.585 21.5609V21.6659C15.585 21.8559 15.627 22.0448 15.712 22.2128C15.775 22.3808 15.859 22.5488 16.007 22.6748C16.1304 22.8151 16.2914 22.9171 16.471 22.9689C16.64 23.0528 16.83 23.0948 17.019 23.0948C17.146 23.0748 17.272 23.0528 17.399 23.0528C17.631 22.9899 17.842 22.8638 18.032 22.6958C18.116 22.5908 18.179 22.5069 18.264 22.4019C18.39 22.1919 18.454 21.9399 18.454 21.6869V21.5819C18.454 21.3929 18.411 21.2038 18.327 21.0358ZM14.13 33.0559C14.91 33.0559 15.543 32.4259 15.543 31.6479C15.5427 31.4626 15.5059 31.2792 15.4348 31.1082C15.3636 30.9372 15.2594 30.7818 15.1282 30.6511C14.997 30.5203 14.8413 30.4167 14.67 30.3461C14.4987 30.2756 14.3152 30.2395 14.13 30.2399C13.35 30.2399 12.717 30.8699 12.717 31.6479C12.7172 31.8331 12.754 32.0165 12.8251 32.1875C12.8963 32.3585 13.0005 32.5139 13.1317 32.6446C13.2629 32.7754 13.4186 32.879 13.5899 32.9496C13.7612 33.0201 13.9447 33.0562 14.13 33.0559ZM26.544 31.3919C26.7289 31.3819 26.91 31.3356 27.077 31.2556C27.244 31.1756 27.3936 31.0635 27.5173 30.9257C27.641 30.7879 27.7363 30.6271 27.7979 30.4525C27.8594 30.2778 27.8859 30.0928 27.876 29.9079C27.8543 29.5345 27.6853 29.185 27.4061 28.9362C27.1269 28.6874 26.7603 28.5595 26.387 28.5809C26.2021 28.5908 26.0209 28.6371 25.8539 28.7171C25.6869 28.7971 25.5373 28.9092 25.4136 29.047C25.2899 29.1848 25.1946 29.3456 25.133 29.5202C25.0715 29.6949 25.045 29.8799 25.055 30.0649C25.098 30.8409 25.765 31.4349 26.545 31.3919H26.544ZM28.787 18.8919C29.567 18.8919 30.2 18.2618 30.2 17.4839C30.1997 17.2986 30.1629 17.1152 30.0918 16.9442C30.0206 16.7732 29.9164 16.6178 29.7852 16.4871C29.654 16.3563 29.4983 16.2527 29.327 16.1821C29.1557 16.1116 28.9722 16.0755 28.787 16.0759C28.007 16.0759 27.374 16.7059 27.374 17.4839C27.3742 17.6691 27.411 17.8525 27.4821 18.0235C27.5533 18.1945 27.6575 18.3499 27.7887 18.4806C27.9199 18.6114 28.0756 18.715 28.2469 18.7856C28.4182 18.8561 28.6017 18.8922 28.787 18.8919ZM27.459 13.2599C28.239 13.2599 28.872 12.6299 28.872 11.8519C28.8717 11.6666 28.8349 11.4832 28.7638 11.3122C28.6926 11.1412 28.5884 10.9858 28.4572 10.8551C28.326 10.7243 28.1703 10.6207 27.999 10.5501C27.8277 10.4796 27.6442 10.4435 27.459 10.4439C26.679 10.4439 26.046 11.0739 26.046 11.8519C26.0462 12.0371 26.083 12.2205 26.1541 12.3915C26.2253 12.5625 26.3295 12.7179 26.4607 12.8486C26.5919 12.9794 26.7476 13.083 26.9189 13.1536C27.0902 13.2241 27.2737 13.2602 27.459 13.2599ZM53.42 11.4739C53.3971 11.4169 53.3607 11.3665 53.314 11.3269C53.2741 11.3055 53.2385 11.277 53.209 11.2429C53.1307 11.2024 53.0441 11.1808 52.956 11.1799C52.914 11.1799 52.872 11.1999 52.829 11.1999C52.7483 11.2213 52.6754 11.2653 52.619 11.3269C52.597 11.3469 52.576 11.3689 52.534 11.4109C52.4922 11.4546 52.4568 11.5041 52.429 11.5579C52.408 11.6209 52.386 11.6839 52.386 11.7479C52.386 11.8099 52.408 11.8729 52.429 11.9359C52.449 11.9989 52.492 12.0409 52.534 12.0829C52.5742 12.1041 52.6101 12.1326 52.64 12.1669C52.7182 12.2074 52.8049 12.2289 52.893 12.2299C52.935 12.2299 52.977 12.2099 53.019 12.2099C53.1 12.1886 53.1732 12.1445 53.23 12.0829L53.314 11.9989C53.3561 11.9551 53.3918 11.9056 53.42 11.8519C53.441 11.7889 53.462 11.7259 53.462 11.6629C53.4582 11.5977 53.444 11.5335 53.42 11.4729V11.4739ZM50.826 14.0589C50.193 14.0589 50.193 15.0249 50.826 15.0249C51.459 15.0249 51.459 14.0589 50.826 14.0589ZM50.383 18.4089C49.75 18.4089 49.75 19.3749 50.383 19.3749C51.016 19.3749 51.016 18.4089 50.383 18.4089ZM56.752 14.8569C56.7294 14.8001 56.6933 14.7496 56.647 14.7099C56.6067 14.6883 56.5707 14.6595 56.541 14.6249C56.4627 14.5843 56.3761 14.5628 56.288 14.5619C56.246 14.5619 56.204 14.5839 56.161 14.5839C56.0804 14.6051 56.0076 14.6488 55.951 14.7099L55.866 14.7939C55.8242 14.8376 55.7888 14.8871 55.761 14.9409C55.737 15.0012 55.7228 15.065 55.719 15.1299C55.719 15.1929 55.739 15.2559 55.761 15.3189C55.781 15.3819 55.824 15.4239 55.866 15.4659C55.908 15.4869 55.929 15.5079 55.972 15.5499C56.0502 15.5903 56.1369 15.6119 56.225 15.6129C56.267 15.6129 56.309 15.5929 56.351 15.5929C56.432 15.5716 56.5052 15.5275 56.562 15.4659L56.646 15.3819C56.688 15.3381 56.7237 15.2886 56.752 15.2349C56.773 15.1719 56.794 15.1089 56.794 15.0449C56.79 14.9804 56.7758 14.9169 56.752 14.8569ZM60.97 14.6469C60.337 14.6469 60.337 15.6139 60.97 15.6139C61.603 15.6139 61.603 14.6469 60.97 14.6469ZM60.633 12.3139C60.6316 12.2456 60.6097 12.1794 60.57 12.1239C60.5016 12.0146 60.3967 11.9331 60.274 11.8939C60.232 11.8939 60.19 11.8729 60.148 11.8729C60.0599 11.8738 59.9732 11.8954 59.895 11.9359C59.852 11.9559 59.789 11.9779 59.747 12.0199C59.7171 12.0288 59.6898 12.045 59.6677 12.067C59.6455 12.0889 59.6292 12.116 59.62 12.1459C59.5797 12.1948 59.551 12.2523 59.536 12.3139C59.5149 12.3751 59.5149 12.4416 59.536 12.5029C59.536 12.5659 59.557 12.6289 59.599 12.6929C59.663 12.7969 59.769 12.8809 59.895 12.9229C59.937 12.9229 59.979 12.9439 60.021 12.9439C60.1091 12.9429 60.1957 12.9214 60.274 12.8809C60.316 12.8609 60.38 12.8389 60.422 12.7969C60.4517 12.7877 60.4787 12.7715 60.5006 12.7495C60.5226 12.7276 60.5389 12.7006 60.548 12.6709C60.5889 12.6222 60.618 12.5647 60.633 12.5029V12.3129V12.3139ZM62.003 18.1769C61.37 18.1769 61.37 19.1438 62.003 19.1438C62.636 19.1438 62.636 18.1769 62.003 18.1769ZM64.006 16.6219C63.374 16.6219 63.374 17.5889 64.006 17.5889C64.639 17.6089 64.639 16.6219 64.006 16.6219ZM65.04 21.4348C65.019 21.3719 64.977 21.3299 64.935 21.2879C64.8948 21.2666 64.8588 21.2381 64.829 21.2039C64.7507 21.1633 64.6641 21.1417 64.576 21.1409C64.534 21.1409 64.492 21.1608 64.449 21.1608C64.3683 21.1824 64.2955 21.2264 64.239 21.2879L64.154 21.3719C64.1122 21.4156 64.0768 21.4651 64.049 21.5188C64.025 21.5792 64.0108 21.643 64.007 21.7079C64.007 21.7709 64.027 21.8339 64.049 21.8979C64.069 21.9599 64.112 22.0019 64.154 22.0439C64.1941 22.0651 64.2301 22.0936 64.26 22.1279C64.3382 22.1683 64.4249 22.1899 64.513 22.1909C64.555 22.1909 64.597 22.1708 64.639 22.1708C64.72 22.1496 64.7932 22.1055 64.85 22.0439L64.935 21.9598C64.9767 21.9161 65.0121 21.8666 65.04 21.8128C65.0639 21.7525 65.0781 21.6887 65.082 21.6239C65.0784 21.5586 65.0643 21.4955 65.04 21.4348ZM63.205 23.5568C63.163 23.4308 63.1 23.3259 62.973 23.2629C62.931 23.2419 62.868 23.2209 62.826 23.1789C62.7704 23.1393 62.7042 23.1174 62.636 23.1158C62.5744 23.0947 62.5075 23.0947 62.446 23.1158C62.384 23.1308 62.3263 23.1595 62.277 23.1999C62.225 23.2306 62.1817 23.2739 62.151 23.3259C62.1181 23.3825 62.0973 23.4453 62.0901 23.5104C62.0829 23.5755 62.0893 23.6414 62.109 23.7039C62.151 23.8299 62.214 23.9348 62.341 23.9978C62.383 24.0188 62.446 24.0409 62.488 24.0819C62.5434 24.1218 62.6096 24.1441 62.678 24.1459C62.7395 24.1669 62.8064 24.1669 62.868 24.1459C62.93 24.1306 62.9877 24.1015 63.037 24.0609C63.0889 24.0302 63.1323 23.9868 63.163 23.9348C63.1959 23.8782 63.2167 23.8154 63.2239 23.7503C63.2311 23.6852 63.2247 23.6193 63.205 23.5568ZM63.627 25.6999C62.994 25.6999 62.994 26.6669 63.627 26.6669C64.26 26.6879 64.26 25.6999 63.627 25.6999ZM60.21 25.2599C60.105 25.1749 60 25.1118 59.873 25.1118H59.726C59.5986 25.1158 59.4777 25.1684 59.388 25.2589C59.3461 25.303 59.3108 25.3528 59.283 25.4068C59.262 25.4698 59.24 25.5329 59.24 25.5959C59.24 25.7219 59.283 25.8478 59.388 25.9318C59.494 26.0158 59.599 26.0789 59.726 26.0789H59.873C60.0003 26.0748 60.1212 26.0222 60.211 25.9318C60.2527 25.8881 60.2881 25.8386 60.316 25.7849C60.337 25.7219 60.358 25.6588 60.358 25.5948C60.3443 25.4705 60.293 25.3533 60.211 25.2589L60.21 25.2599ZM60.295 29.1689C59.662 29.1689 59.662 30.1349 60.295 30.1349C60.928 30.1559 60.928 29.1689 60.295 29.1689ZM56.309 31.1649C55.676 31.1649 55.676 32.1309 56.309 32.1309C56.92 32.1309 56.92 31.1649 56.309 31.1649ZM53.462 31.3749C53.357 31.2909 53.252 31.2269 53.125 31.2269H52.977C52.8499 31.2314 52.7293 31.2844 52.64 31.3749C52.5978 31.4185 52.5621 31.468 52.534 31.5219C52.514 31.5849 52.492 31.6479 52.492 31.7109C52.492 31.8369 52.534 31.9629 52.64 32.0469C52.745 32.1309 52.85 32.1939 52.977 32.1939H53.125C53.2519 32.1896 53.3725 32.137 53.462 32.0469C53.5037 32.0031 53.5391 31.9536 53.567 31.8999C53.5914 31.8392 53.6059 31.7751 53.61 31.7099C53.6068 31.583 53.5536 31.4626 53.462 31.3749ZM52.619 29.1679C52.5975 29.0872 52.5535 29.0143 52.492 28.9579L52.408 28.8739C52.3639 28.832 52.314 28.7966 52.26 28.7689C52.197 28.7488 52.134 28.7269 52.07 28.7269C52.007 28.7269 51.944 28.7479 51.88 28.7689C51.8232 28.7914 51.7727 28.8275 51.733 28.8739C51.7116 28.9137 51.6832 28.9493 51.649 28.9789C51.6081 29.0566 51.5862 29.143 51.585 29.2309C51.585 29.2729 51.606 29.3149 51.606 29.3579C51.6273 29.4386 51.6713 29.5115 51.733 29.5679L51.817 29.6519C51.8611 29.6937 51.9109 29.729 51.965 29.7569C52.028 29.7769 52.091 29.7989 52.155 29.7989C52.218 29.7989 52.281 29.7779 52.345 29.7569C52.408 29.7359 52.45 29.6939 52.492 29.6519C52.513 29.6099 52.534 29.5889 52.576 29.5469C52.617 29.4688 52.6389 29.3821 52.64 29.2939C52.64 29.2519 52.64 29.2099 52.619 29.1679ZM56.077 27.6969C55.444 27.6969 55.444 28.6629 56.077 28.6629C56.71 28.6629 56.71 27.6969 56.077 27.6969ZM58.144 29.0199C57.511 29.0199 57.511 29.9869 58.144 29.9869C58.776 30.0079 58.776 29.0199 58.144 29.0199ZM56.014 25.6379C55.9911 25.5809 55.9547 25.5305 55.908 25.4908C55.8642 25.4491 55.8147 25.4137 55.761 25.3858C55.7002 25.3619 55.6361 25.3477 55.571 25.3439C55.529 25.3439 55.486 25.3639 55.444 25.3639C55.3633 25.3853 55.2904 25.4294 55.234 25.4908C55.212 25.5328 55.191 25.5539 55.149 25.5959C55.1084 25.6737 55.0868 25.7601 55.086 25.8478V25.9318C55.086 25.9948 55.106 26.0578 55.128 26.1219C55.1507 26.1783 55.1867 26.2283 55.233 26.2678C55.2771 26.3097 55.3269 26.345 55.381 26.3728C55.4416 26.3972 55.5057 26.4117 55.571 26.4159C55.613 26.4159 55.655 26.3949 55.697 26.3949C55.778 26.3736 55.8512 26.3295 55.908 26.2678C55.9293 26.2278 55.9582 26.1921 55.993 26.1629C56.0335 26.085 56.055 25.9986 56.056 25.9108V25.8268C56.056 25.7639 56.035 25.7009 56.014 25.6379ZM52.239 24.9019C51.606 24.9019 51.606 25.8688 52.239 25.8688C52.85 25.8688 52.85 24.9019 52.239 24.9019ZM53.378 22.0859C53.3629 22.0243 53.3342 21.9668 53.294 21.9178C53.263 21.8658 53.2193 21.8224 53.167 21.7919C53.11 21.759 53.0468 21.7383 52.9814 21.731C52.916 21.7238 52.8498 21.7302 52.787 21.7499C52.7245 21.766 52.6661 21.7948 52.6153 21.8345C52.5646 21.8743 52.5226 21.9241 52.492 21.9809C52.472 22.0229 52.45 22.0859 52.408 22.1279C52.3683 22.1834 52.3463 22.2496 52.345 22.3179C52.3241 22.3788 52.3241 22.4449 52.345 22.5059C52.3599 22.5675 52.3887 22.6249 52.429 22.6739C52.4597 22.7263 52.5035 22.7701 52.556 22.8009C52.6129 22.8338 52.6761 22.8545 52.7415 22.8618C52.807 22.869 52.8732 22.8626 52.936 22.8429C53.062 22.8009 53.167 22.7379 53.23 22.6109C53.252 22.5698 53.273 22.5059 53.315 22.4639C53.3545 22.4086 53.3764 22.3427 53.378 22.2748C53.3991 22.2136 53.3991 22.1471 53.378 22.0859ZM48.865 15.9499C48.8637 15.862 48.8418 15.7757 48.801 15.6979C48.781 15.6559 48.759 15.6349 48.717 15.5929C48.6601 15.5316 48.5869 15.4879 48.506 15.4669C48.485 15.4669 48.401 15.4459 48.379 15.4459L48.253 15.4659C48.253 15.4659 48.148 15.5089 48.126 15.5089L48.084 15.5509C48.064 15.5709 48.042 15.5709 48.021 15.5929L47.937 15.6979C47.937 15.6979 47.894 15.8029 47.894 15.8239C47.894 15.8449 47.874 15.9289 47.874 15.9499L47.894 16.0759C47.894 16.0969 47.916 16.1179 47.916 16.1389C47.916 16.1599 47.936 16.1809 47.936 16.2019C47.936 16.2019 48 16.3068 48.021 16.3068L48.126 16.3919C48.126 16.3919 48.232 16.4329 48.253 16.4329L48.38 16.4539C48.4 16.4539 48.506 16.4339 48.506 16.4339C48.568 16.4186 48.6258 16.3896 48.675 16.3489C48.7269 16.3182 48.7703 16.2748 48.801 16.2229C48.8405 16.1676 48.8624 16.1017 48.864 16.0339L48.865 15.9499ZM53.63 17.1479C53.6074 17.091 53.5714 17.0406 53.525 17.0009C53.4812 16.9588 53.4317 16.9231 53.378 16.8949C53.314 16.8749 53.251 16.8539 53.188 16.8539C53.146 16.8539 53.104 16.8739 53.061 16.8739C52.9803 16.8954 52.9075 16.9394 52.851 17.0009C52.8293 17.0408 52.8005 17.0764 52.766 17.1059C52.7254 17.1837 52.7038 17.2701 52.703 17.3579V17.4419C52.703 17.5049 52.724 17.5679 52.745 17.6319C52.7678 17.6882 52.8038 17.7383 52.85 17.7779C52.8941 17.8197 52.9439 17.855 52.998 17.8829C53.0587 17.9068 53.1228 17.921 53.188 17.9248C53.23 17.9248 53.272 17.9049 53.314 17.9049C53.395 17.8835 53.4682 17.8394 53.525 17.7779C53.5466 17.7379 53.5754 17.7023 53.61 17.6729C53.6505 17.595 53.672 17.5086 53.673 17.4209V17.3369C53.673 17.2739 53.673 17.2109 53.631 17.1469L53.63 17.1479ZM56.225 11.6199C56.202 11.5633 56.1656 11.5132 56.119 11.4739C56.077 11.4529 56.056 11.4319 56.014 11.3899C55.9357 11.3494 55.8491 11.3278 55.761 11.3269C55.718 11.3269 55.676 11.3469 55.634 11.3469C55.5533 11.3683 55.4804 11.4123 55.424 11.4739L55.339 11.5579C55.2968 11.6016 55.2611 11.6511 55.233 11.7049C55.213 11.7679 55.191 11.8309 55.191 11.8949C55.191 11.9569 55.212 12.0199 55.233 12.0829C55.2558 12.1397 55.2922 12.1902 55.339 12.2299C55.3788 12.2512 55.4144 12.2797 55.444 12.3139C55.5222 12.3544 55.6089 12.3759 55.697 12.3769C55.74 12.3769 55.782 12.3569 55.824 12.3569C55.9046 12.3353 55.9775 12.2913 56.034 12.2299C56.056 12.2099 56.077 12.1879 56.119 12.1459C56.1611 12.1022 56.1968 12.0527 56.225 11.9989C56.2489 11.9385 56.2631 11.8747 56.267 11.8099C56.267 11.7469 56.267 11.6839 56.225 11.6199ZM59.22 16.8319C59.2181 16.7638 59.1958 16.698 59.156 16.6429C59.0878 16.5338 58.9833 16.4524 58.861 16.4129C58.819 16.4129 58.777 16.3909 58.735 16.3909C58.6465 16.3916 58.5595 16.4132 58.481 16.4539C58.439 16.4749 58.376 16.4959 58.334 16.5379C58.3041 16.5468 58.2768 16.563 58.2547 16.585C58.2326 16.6069 58.2162 16.634 58.207 16.6639C58.1667 16.7128 58.138 16.7703 58.123 16.8319C58.1016 16.8934 58.1016 16.9603 58.123 17.0219C58.123 17.0849 58.144 17.1479 58.186 17.2109C58.2539 17.32 58.3585 17.4015 58.481 17.4409C58.524 17.4409 58.566 17.4629 58.608 17.4629C58.6961 17.4619 58.7827 17.4403 58.861 17.3999C58.903 17.3789 58.967 17.3579 59.009 17.3159C59.0387 17.3067 59.0657 17.2905 59.0876 17.2685C59.1096 17.2466 59.1259 17.2196 59.135 17.1899C59.1759 17.1412 59.205 17.0837 59.22 17.0219C59.2413 16.9603 59.2413 16.8934 59.22 16.8319ZM58.819 13.8269C58.7961 13.77 58.7597 13.7195 58.713 13.6799C58.6731 13.6585 58.6375 13.63 58.608 13.5959C58.5297 13.5553 58.4431 13.5338 58.355 13.5329C58.313 13.5329 58.271 13.5539 58.228 13.5539C58.1474 13.5751 58.0746 13.6188 58.018 13.6799L57.933 13.7639C57.8911 13.8079 57.8557 13.8578 57.828 13.9119C57.8037 13.9722 57.7891 14.036 57.785 14.1009C57.785 14.1639 57.807 14.2269 57.828 14.2899C57.848 14.3529 57.891 14.3949 57.933 14.4369C57.975 14.4569 57.996 14.4789 58.038 14.5209C58.1165 14.5615 58.2035 14.5831 58.292 14.5839C58.334 14.5839 58.376 14.5629 58.418 14.5629C58.4989 14.5419 58.5721 14.4982 58.629 14.4369L58.713 14.3529C58.7551 14.3091 58.7907 14.2596 58.819 14.2059C58.839 14.1429 58.861 14.0799 58.861 14.0159C58.861 13.9529 58.861 13.8899 58.819 13.8269ZM63.037 13.9119C62.404 13.9119 62.404 14.8779 63.037 14.8779C63.67 14.8779 63.67 13.9119 63.037 13.9119ZM50.995 22.0859C50.9736 22.0051 50.9295 21.9322 50.868 21.8758L50.784 21.7919C50.7399 21.75 50.69 21.7146 50.636 21.6869C50.5753 21.6625 50.5112 21.648 50.446 21.6438C50.3807 21.648 50.3166 21.6625 50.256 21.6869C50.1992 21.7095 50.1488 21.7455 50.109 21.7919C50.0874 21.8318 50.0585 21.8674 50.024 21.8968C49.9834 21.9747 49.9618 22.0611 49.961 22.1489C49.961 22.1909 49.982 22.2329 49.982 22.2748C50.0033 22.3556 50.0474 22.4285 50.109 22.4849L50.193 22.5689C50.2371 22.6107 50.2869 22.646 50.341 22.6739C50.4017 22.6978 50.4658 22.712 50.531 22.7158C50.5961 22.712 50.6602 22.6978 50.721 22.6739C50.7777 22.6512 50.8281 22.6152 50.868 22.5689C50.8892 22.529 50.9177 22.4934 50.952 22.4639C50.9928 22.3861 51.0148 22.2997 51.016 22.2119C51.016 22.1699 50.995 22.1279 50.995 22.0859ZM63.037 28.8739C63.015 28.8109 62.973 28.7689 62.931 28.7269C62.8868 28.685 62.837 28.6497 62.783 28.6219C62.7222 28.5979 62.6581 28.5837 62.593 28.5799C62.552 28.5799 62.509 28.6009 62.467 28.6009C62.3864 28.622 62.3135 28.6657 62.257 28.7269C62.235 28.7689 62.214 28.7899 62.172 28.8319C62.1315 28.9097 62.1099 28.9961 62.109 29.0839V29.1689C62.109 29.2319 62.129 29.2949 62.151 29.3579C62.171 29.4209 62.214 29.4629 62.256 29.5049C62.3 29.5467 62.3499 29.5821 62.404 29.6099C62.4647 29.6338 62.5288 29.648 62.594 29.6519C62.636 29.6519 62.678 29.6309 62.72 29.6309C62.8009 29.6098 62.8741 29.5661 62.931 29.5049C62.952 29.4629 62.973 29.4419 63.015 29.3999C63.0558 29.3221 63.0778 29.2357 63.079 29.1479V29.0629C63.079 28.9999 63.079 28.9369 63.037 28.8739ZM59.705 31.7529C59.6821 31.6959 59.6457 31.6455 59.599 31.6059C59.5549 31.564 59.505 31.5287 59.451 31.5009C59.388 31.4799 59.325 31.4589 59.261 31.4589C59.22 31.4589 59.177 31.4799 59.135 31.4799C59.0544 31.501 58.9815 31.5447 58.925 31.6059C58.903 31.6479 58.882 31.6689 58.84 31.7109C58.7994 31.7887 58.7778 31.8751 58.777 31.9629V32.0469C58.777 32.1099 58.797 32.1739 58.819 32.2369C58.839 32.2999 58.882 32.3419 58.924 32.3839C58.968 32.4257 59.0179 32.4611 59.072 32.4888C59.135 32.5089 59.198 32.5308 59.262 32.5308C59.304 32.5308 59.346 32.5098 59.388 32.5098C59.4689 32.4889 59.5421 32.4452 59.599 32.3839C59.6203 32.3438 59.6492 32.3081 59.684 32.2789C59.7246 32.2007 59.7462 32.114 59.747 32.0259V31.9419C59.747 31.8789 59.747 31.8159 59.705 31.7529ZM59.346 27.2559C58.713 27.2559 58.713 28.2219 59.346 28.2219C59.957 28.2219 59.957 27.2559 59.346 27.2559Z" fill="white"/>
<path d="M43.8451 4.30792C43.5501 4.64392 43.2131 4.93792 42.7701 5.14792C42.1161 5.44292 41.4201 5.54792 40.7241 5.54792C40.0701 5.54792 39.1421 5.61092 38.5521 5.27492C38.0671 5.00092 37.7081 4.45492 37.3921 3.97192C37.2441 3.82492 37.1181 3.67792 37.0551 3.50892C37.5713 3.20347 38.1236 2.96362 38.6991 2.79492C39.3531 3.29892 39.9861 3.71992 40.8931 3.80392C41.6407 3.8861 42.3959 3.74701 43.0651 3.40392C43.3811 3.65692 43.6351 3.95092 43.8451 4.30792ZM45.3221 13.0499C45.3011 13.0289 45.3221 13.0289 45.3221 13.0499C45.1741 12.8599 44.9221 12.7769 44.7101 12.9029C44.6261 12.9449 44.5631 12.9869 44.5201 13.0709C43.2131 14.4159 41.8631 15.7809 40.4081 16.9589C39.2061 17.9249 37.7721 18.4289 36.2961 18.8289C36.3591 19.2289 36.4221 19.6269 36.4641 20.0269C38.5741 19.9849 40.6401 19.3969 42.5801 18.5969C43.0651 18.4089 43.6771 18.2189 44.1831 17.9249H44.2891C44.6051 17.9049 44.9631 17.9879 45.2161 17.7359C45.3047 17.6516 45.3643 17.5413 45.3861 17.4209C45.3861 15.9289 45.3641 14.4789 45.3221 13.0499ZM40.9981 23.0949C39.9441 22.9899 38.9531 23.1579 37.9191 23.2849C37.6031 23.3259 37.2651 23.3049 36.9281 23.3049C36.9911 23.8729 37.0761 24.4189 37.1381 24.9859C38.0041 24.9659 38.8891 25.1759 39.7541 25.3859C40.9561 25.6799 42.1791 25.9959 43.3601 26.4359C43.8661 26.6259 44.3731 26.8559 44.7731 27.2139C45.0261 27.4449 45.1951 27.7599 45.4691 27.9489C45.4691 26.7939 45.4901 25.6379 45.4901 24.4609C44.0561 23.7889 42.5591 23.2629 40.9981 23.0949ZM36.0631 17.2319C35.9161 16.3279 35.7891 15.4459 35.6201 14.5419C35.9581 14.2269 36.3371 13.9319 36.7381 13.6589C37.4131 13.2189 38.6361 12.3989 39.4381 13.0079C41.0611 14.2269 37.5391 16.4539 36.0631 17.2319ZM42.1801 30.8279C41.5041 30.8489 40.8081 30.8489 40.1331 30.8489C39.9231 30.6599 39.7331 30.4499 39.4801 30.3029C39.3094 30.2203 39.1329 30.1501 38.9521 30.0929C38.7201 30.0509 38.4671 30.0299 38.2351 29.9459L38.0451 29.8829C37.9201 29.8586 37.7934 29.8445 37.6661 29.8409L37.5181 28.3279C37.5821 28.3279 37.6241 28.3279 37.6881 28.3479C38.8471 28.3069 39.9861 28.7059 40.8931 29.3989C40.9655 29.4259 41.0305 29.4694 41.0831 29.5259L41.2511 29.6939C41.6101 30.0089 41.9271 30.3869 42.1801 30.8279ZM43.8241 8.93092C43.5255 9.45605 43.1063 9.90266 42.6011 10.2339C42.146 10.1768 41.6997 10.0639 41.2721 9.89792C40.6611 9.66692 39.4371 9.26792 39.5011 8.44792C39.5851 7.41792 40.8081 7.83792 41.3571 8.15392C41.4621 8.21692 41.5671 8.30092 41.6731 8.36392C42.3691 8.55292 43.0861 8.74192 43.8241 8.93092Z" fill="#F75A1B"/>
<path d="M77.9892 16.1399C76.8502 15.8239 75.6692 16.2229 74.7202 16.9799C74.6142 17.0639 74.4882 17.1699 74.3822 17.2739C74.1922 16.7489 74.2982 16.1809 74.1292 15.6559C73.8762 14.8569 72.9692 14.3959 72.5272 13.7019C71.9372 12.7349 72.3582 11.8099 72.4212 10.7809C72.5272 9.37288 71.0082 9.09888 69.9112 8.99388H69.8702C70.3512 8.70533 70.8601 8.46612 71.3892 8.27988C71.4942 8.29988 71.5792 8.34288 71.6842 8.36388C71.6842 8.30088 71.7052 8.21688 71.7472 8.15388C73.4132 7.62788 75.1222 7.73388 76.8302 8.06988C76.9142 8.08988 76.9992 8.11188 77.0832 8.11188C77.1462 8.36388 77.1672 8.59488 77.1672 8.84688C77.4632 9.85588 77.0202 10.8859 76.5972 11.8099C76.8092 12.4399 77.1472 13.0299 77.2732 13.7229C77.3152 13.9959 77.3572 14.2479 77.3782 14.4999C77.3992 14.5419 77.4422 14.5839 77.4632 14.6259C77.7496 15.0845 77.9297 15.6015 77.9902 16.1389L77.9892 16.1399ZM73.6232 20.4899C73.4132 20.4049 73.2232 20.2799 73.0332 20.1109C72.5902 19.6909 72.1262 19.8379 71.5562 19.8169C70.6712 19.7959 69.8062 19.3969 69.1732 18.7869C68.8543 18.4697 68.6032 18.091 68.4352 17.6739C68.2452 17.1899 68.1822 16.6439 67.9292 16.1809C67.5492 15.4879 66.9382 15.0049 66.2212 14.7309C66.0942 14.5009 65.9682 14.2479 65.8412 14.0169L65.9682 13.6389H65.9882C66.3515 12.6445 66.8949 11.7255 67.5912 10.9279C68.4772 11.0119 69.4472 11.1799 70.1222 11.7049C70.8182 12.2309 70.9452 13.1129 70.9872 13.9329C71.0292 14.9409 71.0922 16.1599 72.2952 16.4129C72.6532 16.4759 72.9272 16.6019 73.1592 16.8119H73.2012C73.6442 16.7909 74.0452 17.0219 74.3192 17.3579C73.8972 17.7779 73.5182 18.2829 73.3912 18.8499C73.2432 19.4389 73.3492 19.9849 73.6232 20.4899ZM83.6622 15.1729C83.4722 14.3329 82.7772 13.9529 82.3972 13.2179C82.1232 12.6929 82.4812 12.3779 82.6712 11.9149C82.8192 11.5789 82.9032 11.2219 82.9242 10.8439V10.8229C82.4812 10.2549 81.8912 9.79288 81.2162 9.43588C80.5622 9.07888 79.8662 8.82588 79.1492 8.61588C79.2132 8.90988 79.2132 9.22588 79.1072 9.56188C78.7482 10.7179 77.6942 11.6629 78.0742 13.0079C78.4542 14.2899 79.8872 14.7529 80.4992 15.8879C80.8582 16.5379 80.7942 17.2319 80.6682 17.9259C81.2382 18.2199 81.8282 18.3039 82.5242 17.7789C82.6082 17.7159 82.6922 17.6309 82.7772 17.5689C82.7772 17.5479 82.7972 17.5259 82.7972 17.5049V17.5479C83.3042 17.0219 83.5362 16.2659 83.6622 15.5509C83.6842 15.4879 83.6842 15.4249 83.7052 15.3409C83.6984 15.2832 83.684 15.2267 83.6622 15.1729ZM79.0652 23.3689C79.0162 23.4182 78.9562 23.4554 78.8902 23.4773C78.8242 23.4991 78.7539 23.5052 78.6852 23.4949C78.1582 23.4319 77.5882 23.3689 77.0822 23.4319C76.9255 23.5677 76.7369 23.6616 76.5342 23.7049C76.4072 23.7249 76.2812 23.7679 76.1542 23.7889C76.0702 23.8519 75.9862 23.9149 75.9012 23.9989C75.2052 24.7139 74.4042 24.9869 73.3912 25.0919C72.336 25.1988 71.2703 25.0697 70.2712 24.7139C69.8092 24.5538 69.3638 24.3496 68.9412 24.1039C68.6799 23.9876 68.4266 23.8539 68.1832 23.7039C67.9722 23.6419 67.7612 23.6419 67.5922 23.8099C67.5502 23.8729 67.4872 23.8939 67.4442 23.9149C67.4242 23.9149 67.4022 23.8939 67.3812 23.8939C67.5502 22.8439 67.6132 21.7709 67.6132 20.7419C67.6103 20.18 67.5753 19.6187 67.5082 19.0609C68.0142 19.2289 68.3722 19.5859 68.7102 19.9639C68.9422 20.0269 69.1742 20.1739 69.3212 20.3209C69.4482 20.4259 69.5322 20.5739 69.5962 20.7209C69.8492 20.8469 70.0592 21.0569 70.1862 21.2669C70.3132 21.2879 70.4182 21.3089 70.5662 21.3299C71.4092 21.3509 72.2322 21.0149 73.0962 21.0359C73.5182 21.0559 73.8762 21.1619 74.2772 21.2879C74.2992 21.2879 74.2992 21.2879 74.3202 21.3089C75.2902 22.1919 76.6822 22.5909 77.9052 22.9689C78.2852 23.1159 78.6852 23.2419 79.0652 23.3689ZM83.3042 29.1259C83.2832 29.3359 83.2622 29.5259 83.2192 29.7139C82.8805 29.4342 82.4563 29.2789 82.0172 29.2739C81.4902 29.2739 81.0682 29.4619 80.5412 29.3359C80.1412 29.2519 79.7612 29.1469 79.3612 29.1049C79.0862 29.1469 78.8332 29.1679 78.5592 29.2099C78.4016 29.232 78.2411 29.2102 78.0952 29.1469C77.8652 29.1805 77.6391 29.2368 77.4202 29.3149C76.4082 29.6299 75.6702 30.5129 74.6152 30.6809C73.8772 30.8069 73.1602 30.6609 72.4642 30.4079C72.6852 30.0782 72.835 29.706 72.9039 29.3151C72.9728 28.9242 72.9592 28.5232 72.8642 28.1379C72.7385 27.6591 72.5083 27.2141 72.1902 26.8349C72.8012 26.7509 73.4552 26.8559 74.1092 27.0029C74.4042 27.0669 74.8052 27.1509 75.0792 26.9399C75.2692 26.7719 75.2892 26.4569 75.4382 26.2469C75.6912 25.8469 76.1762 25.6169 76.6182 25.5319C76.7882 25.4909 76.9772 25.4689 77.1462 25.4479C78.0952 25.0279 78.9802 25.2379 79.9722 25.3639C80.1822 25.3849 80.3942 25.4269 80.6042 25.4269C80.7312 25.3849 80.8582 25.3219 80.9842 25.2379C81.0902 25.0489 81.2582 24.9019 81.4692 24.7759C81.5532 24.7339 81.6382 24.6919 81.7222 24.6709C81.8702 24.7969 82.0172 24.9229 82.1442 25.0709C83.0932 26.1409 83.4512 27.6969 83.3042 29.1259ZM70.0602 36.9019C69.5463 36.8843 69.0329 36.8563 68.5202 36.8179C67.6762 36.7339 66.9382 36.4819 66.3902 35.8099C65.4402 34.6749 65.5462 33.0349 66.6852 32.0689C66.9861 31.8137 67.3389 31.6271 67.7192 31.5219C67.6972 31.5649 67.6972 31.6069 67.6762 31.6279C67.3602 32.1739 68.0352 32.5309 68.3092 32.9299C68.6042 33.3719 68.5832 33.8129 68.7092 34.2959C68.8572 34.8219 69.3632 35.2419 69.6162 35.7259C69.8062 36.1039 69.9552 36.4819 70.0602 36.9019ZM81.8482 32.5519C80.6252 34.1069 78.8112 35.2619 77.0402 35.9559C76.5342 36.1659 76.0282 36.3129 75.5002 36.4599C75.1202 36.2299 74.6782 36.0609 74.3832 35.9139C73.6442 35.5139 72.9272 35.1359 72.1892 34.7369C71.0092 34.0859 69.3002 33.1819 69.0052 31.7319C68.9803 31.6483 68.9874 31.5585 69.0252 31.4799C69.7012 31.5849 70.3122 31.7949 70.9872 31.5429C71.3462 31.4169 71.6622 31.2279 71.9372 30.9969C72.3372 31.3329 72.6742 31.5849 73.1812 31.8579C73.3712 31.8999 73.5612 31.9209 73.7502 31.9209C74.2982 31.9419 74.8262 31.7949 75.3532 31.7949C75.8802 31.7749 76.3232 31.9209 76.8082 32.1309C77.4202 32.4049 77.8842 32.2579 78.4952 32.1109C79.0419 31.9914 79.6037 31.9556 80.1612 32.0049C80.7942 32.0679 81.4272 32.1949 81.8482 32.5519Z" fill="#41ACE6"/>
<path d="M82.798 30.9761C82.6643 31.2739 82.5092 31.5616 82.334 31.8371C82.292 31.8171 82.228 31.7951 82.186 31.7741C81.87 31.6271 81.596 31.3751 81.237 31.3541C80.436 31.3341 79.655 31.2911 78.854 31.1231C78.242 30.9971 78.495 30.0731 79.107 30.1771C79.909 30.3241 80.71 30.3031 81.532 30.3671C81.87 30.4081 82.102 30.5971 82.397 30.7661C82.545 30.8711 82.672 30.9341 82.798 30.9761Z" fill="#41ACE6"/>
<path d="M25.477 38.7091C21.28 40.9371 19.297 45.3921 17.695 49.6371C16.745 49.8891 15.797 50.0571 14.826 50.1621C15.1195 46.7257 16.0948 43.3823 17.695 40.3271C19.2101 39.7971 20.7434 39.3204 22.292 38.8981C22.271 38.9401 22.271 38.9611 22.229 39.0031C22.2656 38.9621 22.3081 38.9267 22.355 38.8981C23.4625 38.6016 24.5814 38.3494 25.709 38.1421C25.7484 38.2485 25.7463 38.3658 25.7034 38.4708C25.6604 38.5757 25.5796 38.6608 25.477 38.7091ZM31.276 47.2411C27.143 46.8001 22.925 47.8081 19.382 49.9731C19.4089 50.0934 19.3941 50.2193 19.34 50.3301C18.728 51.4441 18.138 52.5581 17.547 53.6721C21.2277 52.8735 25.0345 52.8517 28.724 53.6081C28.6609 53.4533 28.6609 53.2799 28.724 53.1251C29.421 51.4851 30.137 49.8681 30.854 48.2291C30.834 48.2081 30.834 48.1871 30.812 48.1661H30.876C31.002 47.8711 31.129 47.5561 31.276 47.2411ZM23.494 57.9801C22.1498 57.3701 20.7607 56.8643 19.339 56.4671C18.391 56.2151 17.357 55.9411 16.345 55.9831C15.8641 56.9204 15.4 57.8662 14.953 58.8201V58.8621H14.932C14.869 58.9881 14.805 59.1351 14.742 59.2621C14.658 59.4301 14.594 59.5771 14.51 59.7451C16.24 60.3551 17.863 61.2581 19.297 62.3931C19.487 62.4131 19.698 62.4131 19.887 62.4131C22.882 62.5401 25.877 62.6031 28.872 62.7081C29.462 62.7291 30.074 62.7711 30.665 62.7921C28.5527 60.8088 26.1298 59.1834 23.494 57.9801Z" fill="#7CB413"/>
<path d="M40.134 42.0722C39.374 42.0722 38.721 42.7232 38.721 43.4802C38.721 44.2362 39.375 44.8882 40.134 44.8882C40.894 44.8882 41.547 44.2362 41.547 43.4802C41.547 42.7232 40.893 42.0722 40.134 42.0722ZM48.274 51.0872C48.2051 50.8523 48.0825 50.6366 47.916 50.4572C47.81 50.3722 47.726 50.3092 47.621 50.2252C47.4032 50.0992 47.1556 50.0339 46.904 50.0362H46.798C46.608 50.0362 46.418 50.0782 46.25 50.1622C46.0729 50.2191 45.9132 50.3203 45.786 50.4562C45.6453 50.579 45.5429 50.7398 45.491 50.9192C45.4069 51.0889 45.3635 51.2758 45.364 51.4652C45.385 51.5912 45.406 51.7172 45.406 51.8432C45.469 52.0752 45.596 52.2852 45.765 52.4732C45.87 52.5582 45.955 52.6212 46.06 52.7052C46.27 52.8312 46.524 52.8952 46.777 52.8952H46.882C47.072 52.8952 47.262 52.8522 47.431 52.7682C47.6 52.7052 47.768 52.6212 47.895 52.4742C48.0355 52.3516 48.1379 52.1912 48.19 52.0122C48.274 51.8432 48.317 51.6542 48.317 51.4652C48.2918 51.3407 48.2775 51.2142 48.274 51.0872ZM41.926 55.3952C41.8571 55.1603 41.7345 54.9446 41.568 54.7652C41.462 54.6812 41.378 54.6182 41.273 54.5342C41.055 54.4076 40.807 54.342 40.555 54.3442H40.45C40.26 54.3442 40.07 54.3872 39.902 54.4712C39.7248 54.528 39.5651 54.6292 39.438 54.7652C39.2971 54.8877 39.1944 55.048 39.142 55.2272C39.0582 55.3973 39.0151 55.5845 39.016 55.7742C39.037 55.9002 39.058 56.0262 39.058 56.1522C39.121 56.3832 39.248 56.5932 39.417 56.7822C39.522 56.8672 39.607 56.9302 39.712 57.0142C39.922 57.1402 40.176 57.2032 40.429 57.2032H40.534C40.724 57.2032 40.914 57.1612 41.083 57.0772C41.251 57.0142 41.42 56.9292 41.547 56.7822C41.6875 56.6596 41.7899 56.4992 41.842 56.3202C41.926 56.1522 41.968 55.9632 41.968 55.7742C41.968 55.6482 41.948 55.5222 41.926 55.3952ZM41.378 40.4952C41.3567 40.4145 41.3126 40.3416 41.251 40.2852C41.2112 40.2638 41.1756 40.2354 41.146 40.2012C41.0677 40.1607 40.9811 40.1391 40.893 40.1382H40.788C40.7229 40.142 40.6587 40.1562 40.598 40.1802C40.5409 40.2027 40.4901 40.2387 40.45 40.2852C40.4082 40.329 40.3729 40.3785 40.345 40.4322C40.3209 40.4929 40.3068 40.557 40.303 40.6222C40.303 40.6642 40.323 40.7062 40.323 40.7482C40.3444 40.8289 40.3885 40.9018 40.45 40.9582C40.492 40.9782 40.513 41.0002 40.556 41.0422C40.6342 41.0827 40.7209 41.1043 40.809 41.1052H40.914C40.9792 41.1013 41.0433 41.0871 41.104 41.0632C41.1612 41.0408 41.212 41.0047 41.252 40.9582C41.2938 40.9144 41.3291 40.8649 41.357 40.8112C41.378 40.7482 41.399 40.6852 41.399 40.6212C41.379 40.5802 41.378 40.5372 41.378 40.4952ZM38.13 44.3412C37.498 44.3412 37.498 45.3082 38.13 45.3082C38.763 45.3082 38.763 44.3412 38.13 44.3412ZM41.568 45.3302C40.935 45.3302 40.935 46.2962 41.568 46.2962C42.2 46.2962 42.2 45.3292 41.568 45.3292V45.3302ZM47.346 48.6912C47.2565 48.601 47.136 48.5484 47.009 48.5442C46.9451 48.5415 46.8815 48.5534 46.8229 48.5791C46.7643 48.6047 46.7124 48.6434 46.671 48.6922L46.439 48.9222C46.3486 49.0115 46.2959 49.1321 46.292 49.2592C46.2963 49.3863 46.3488 49.507 46.4389 49.5967C46.529 49.6864 46.6499 49.7384 46.777 49.7422C46.8406 49.7448 46.9041 49.733 46.9624 49.7075C47.0208 49.6821 47.0727 49.6436 47.114 49.5952L47.346 49.3642C47.4366 49.2753 47.4896 49.155 47.494 49.0282C47.494 48.9022 47.452 48.7552 47.346 48.6912ZM45.364 53.0002C45.3427 52.9194 45.2986 52.8465 45.237 52.7902C45.1971 52.7686 45.1615 52.7397 45.132 52.7052C45.0538 52.6647 44.9671 52.6431 44.879 52.6422H44.773C44.71 52.6422 44.647 52.6632 44.583 52.6842C44.52 52.7052 44.478 52.7472 44.436 52.7892C44.3942 52.833 44.3589 52.8825 44.331 52.9362C44.31 52.9992 44.288 53.0622 44.288 53.1262C44.288 53.1672 44.31 53.2102 44.31 53.2522C44.331 53.3328 44.3748 53.4057 44.436 53.4622C44.4759 53.4835 44.5114 53.512 44.541 53.5462C44.6195 53.5869 44.7066 53.6085 44.795 53.6092H44.9C44.9652 53.6053 45.0293 53.5912 45.09 53.5672C45.1468 53.5445 45.1972 53.5085 45.237 53.4622C45.2791 53.4185 45.3148 53.369 45.343 53.3152C45.363 53.2522 45.385 53.1882 45.385 53.1252C45.385 53.0832 45.385 53.0422 45.364 53.0002ZM46.566 53.6302C45.933 53.6302 45.933 54.5972 46.566 54.5972C47.198 54.5972 47.198 53.6302 46.566 53.6302ZM41.02 53.0832C40.387 53.0832 40.387 54.0502 41.02 54.0502C41.631 54.0502 41.652 53.0832 41.02 53.0832Z" fill="white"/>
<path d="M38.4682 55.29C37.8352 55.29 37.8352 56.257 38.4682 56.257C39.0792 56.257 39.0792 55.29 38.4682 55.29ZM42.5592 56.509C41.9262 56.509 41.9262 57.475 42.5592 57.475C43.1922 57.475 43.1922 56.509 42.5592 56.509ZM47.5152 43.29C46.8822 43.29 46.8822 44.257 47.5152 44.257C48.1482 44.257 48.1482 43.29 47.5152 43.29ZM38.1512 51.045C38.1301 50.9644 38.0864 50.8915 38.0252 50.835L37.9192 50.73C37.8754 50.6883 37.8259 50.6529 37.7722 50.625C37.7092 50.603 37.6452 50.583 37.5822 50.583C37.5192 50.583 37.4552 50.603 37.3922 50.624C37.3292 50.646 37.2872 50.688 37.2452 50.73C37.2236 50.77 37.1947 50.8056 37.1602 50.835C37.1196 50.9129 37.0981 50.9993 37.0972 51.087C37.0972 51.129 37.1182 51.171 37.1182 51.213C37.1395 51.2938 37.1836 51.3666 37.2452 51.423L37.3502 51.528C37.3943 51.5698 37.4441 51.6052 37.4982 51.633C37.5589 51.657 37.623 51.6712 37.6882 51.675C37.7533 51.6711 37.8174 51.657 37.8782 51.633C37.9412 51.613 37.9832 51.57 38.0252 51.528C38.0465 51.4882 38.075 51.4526 38.1092 51.423C38.1497 51.3452 38.1713 51.2588 38.1722 51.171C38.1722 51.15 38.1512 51.108 38.1512 51.045Z" fill="white"/>
<path d="M69.2582 41.3569C68.6252 41.3569 68.6252 42.3239 69.2582 42.3239C69.8912 42.3239 69.8912 41.3569 69.2582 41.3569ZM75.7332 41.8609C75.7118 41.7802 75.6677 41.7073 75.6062 41.6509C75.5663 41.6296 75.5307 41.6011 75.5012 41.5669C75.4226 41.5262 75.3356 41.5047 75.2472 41.5039H75.1632C75.098 41.5078 75.0339 41.522 74.9732 41.5459C74.9102 41.5659 74.8682 41.6089 74.8262 41.6509C74.784 41.6947 74.7483 41.7442 74.7202 41.7979C74.7002 41.8609 74.6782 41.9239 74.6782 41.9879C74.6782 42.0289 74.6992 42.0709 74.6992 42.1129C74.7206 42.1936 74.7646 42.2665 74.8262 42.3229C74.8682 42.3439 74.8892 42.3649 74.9312 42.4069C75.0093 42.4478 75.096 42.4697 75.1842 42.4709H75.2692C75.3343 42.4671 75.3984 42.4529 75.4592 42.4289C75.5159 42.4063 75.5663 42.3703 75.6062 42.3239C75.648 42.2798 75.6834 42.23 75.7112 42.1759C75.7358 42.1157 75.7504 42.0519 75.7542 41.9869C75.7322 41.9449 75.7332 41.9029 75.7332 41.8609ZM71.1142 43.4799C70.4812 43.4799 70.4812 44.4459 71.1142 44.4459C71.7472 44.4669 71.7472 43.4799 71.1142 43.4799ZM68.7302 47.6819C68.0982 47.6819 68.0982 48.6489 68.7302 48.6489C69.3632 48.6689 69.3632 47.6819 68.7302 47.6819ZM74.6572 49.6779C74.0252 49.6779 74.0252 50.6449 74.6572 50.6449C75.2902 50.6649 75.2902 49.6779 74.6572 49.6779ZM71.3252 51.1699C71.3042 51.1079 71.2612 51.0659 71.2192 51.0239C71.1754 50.9821 71.1259 50.9468 71.0722 50.9189C71.0082 50.8979 70.9452 50.8769 70.8822 50.8769C70.8402 50.8769 70.7972 50.8969 70.7552 50.8969C70.6745 50.9183 70.6016 50.9624 70.5452 51.0239C70.5235 51.0639 70.4947 51.0995 70.4602 51.1289C70.4196 51.2068 70.398 51.2931 70.3972 51.3809V51.4649C70.3972 51.5279 70.4172 51.5909 70.4392 51.6539C70.4602 51.7169 70.5022 51.7589 70.5442 51.8009C70.5883 51.8428 70.6381 51.8781 70.6922 51.9059C70.7529 51.9298 70.817 51.944 70.8822 51.9479C70.9242 51.9479 70.9662 51.9279 71.0082 51.9279C71.0892 51.9067 71.1625 51.8626 71.2192 51.8009C71.2405 51.7608 71.2694 51.7252 71.3042 51.6959C71.3447 51.6181 71.3663 51.5317 71.3672 51.4439V51.3599C71.3882 51.2759 71.3672 51.2129 71.3252 51.1699ZM69.0682 55.5839C69.0471 55.5033 69.0034 55.4305 68.9422 55.3739L68.8572 55.2899C68.8134 55.2482 68.7639 55.2128 68.7102 55.1849C68.6472 55.1639 68.5832 55.1429 68.5202 55.1429C68.4572 55.1429 68.3942 55.1629 68.3302 55.1849C68.2672 55.2049 68.2252 55.2479 68.1832 55.2899C68.1622 55.3319 68.1402 55.3529 68.0982 55.3949C68.0576 55.4728 68.036 55.5591 68.0352 55.6469C68.0352 55.6889 68.0562 55.7309 68.0562 55.7729C68.0775 55.8537 68.1216 55.9265 68.1832 55.9829L68.2672 56.0669C68.3112 56.1088 68.3611 56.1441 68.4152 56.1719C68.4759 56.1959 68.54 56.21 68.6052 56.2139C68.6703 56.21 68.7344 56.1959 68.7952 56.1719C68.8519 56.1493 68.9024 56.1133 68.9422 56.0669C68.9622 56.0249 68.9842 56.0039 69.0262 55.9619C69.0667 55.8841 69.0883 55.7977 69.0892 55.7099C69.0692 55.6679 69.0682 55.6259 69.0682 55.5839ZM71.8522 57.4329C71.8312 57.3699 71.7892 57.3279 71.7472 57.2859C71.7042 57.2659 71.6832 57.2439 71.6412 57.2019C71.5629 57.1614 71.4763 57.1398 71.3882 57.1389C71.3462 57.1389 71.3042 57.1599 71.2612 57.1599C71.1806 57.1811 71.1077 57.2248 71.0512 57.2859L70.9662 57.3699C70.9244 57.4137 70.889 57.4632 70.8612 57.5169C70.8402 57.5799 70.8192 57.6439 70.8192 57.7069C70.8192 57.7699 70.8392 57.8329 70.8612 57.8959C70.8837 57.9527 70.9198 58.0032 70.9662 58.0429C71.0064 58.0642 71.0423 58.0927 71.0722 58.1269C71.1504 58.1674 71.2371 58.189 71.3252 58.1899C71.3672 58.1899 71.4092 58.1689 71.4512 58.1689C71.5321 58.1479 71.6053 58.1042 71.6622 58.0429L71.7472 57.9589C71.7889 57.9152 71.8243 57.8657 71.8522 57.8119C71.8762 57.7513 71.8904 57.6871 71.8942 57.6219C71.8903 57.5571 71.8761 57.4933 71.8522 57.4329ZM76.3022 56.6979C75.6692 56.6979 75.6692 57.6639 76.3022 57.6639C76.9142 57.6639 76.9142 56.6979 76.3022 56.6979ZM68.5202 52.1169C67.8882 52.1169 67.8882 53.0829 68.5202 53.0829C69.1532 53.0829 69.1532 52.1169 68.5202 52.1169Z" fill="#A8FF05"/>
<path d="M86.172 12.714C86.151 10.549 85.328 8.764 83.81 7.544C82.291 6.346 80.435 5.821 79.17 5.506C77.715 5.149 76.133 4.833 74.53 4.833H74.425C74.003 4.833 73.602 4.854 73.223 4.917C69.912 5.337 66.833 7.313 65.103 10.15C63.9897 9.10029 62.6574 8.31065 61.202 7.838C59.62 7.313 57.954 7.145 56.689 7.061C56.1276 7.0198 55.5649 6.99879 55.002 6.998H54.791C53.757 6.998 52.829 7.082 51.923 7.25C50.109 7.565 48.485 8.259 47.177 9.225C47.0298 9.05812 46.8506 8.92244 46.65 8.826L46.713 6.262C46.756 4.728 46.333 3.257 45.511 2.207C44.373 0.799 42.601 0 40.534 0H40.45C38.404 0.021 36.316 0.82 34.903 2.122C33.786 3.132 33.132 4.539 33.09 5.968V6.158L31.487 6.031C31.276 6.011 31.044 6.011 30.833 5.989C29.968 5.926 29.083 5.863 28.197 5.863H28.007C27.585 5.863 27.185 5.884 26.827 5.926C24.97 6.094 24.169 7.544 23.599 8.616C23.515 8.784 23.409 8.952 23.325 9.099L21.048 13.05C20.8378 11.3063 20.4778 9.58394 19.972 7.902C19.592 6.641 18.918 4.308 16.345 4.161H16.07C15.311 4.161 14.573 4.371 13.94 4.539C13.793 4.581 13.666 4.623 13.519 4.644C12.633 4.854 11.726 5.107 10.819 5.338C8.75124 5.89011 6.69136 6.4715 4.64004 7.082C3.94404 7.292 3.48004 7.902 3.45904 8.616L3.29004 14.92C3.29004 15.068 3.31104 15.215 3.33204 15.362C4.45004 20.112 5.63204 24.902 6.81204 29.652C7.44504 32.173 8.03504 34.485 8.58404 36.692L8.64704 36.902C8.94204 38.037 9.21704 39.15 9.51204 40.285C9.55404 40.453 9.59604 40.621 9.63804 40.811C8.45804 41.546 8.12004 42.555 8.05704 43.332C8.03504 43.479 8.03504 43.648 8.03504 43.837L7.84504 50.12C7.82504 50.96 7.93004 51.78 8.01504 52.579C8.03504 52.705 8.03504 52.831 8.05704 52.979C8.07704 53.083 8.07704 53.189 8.09904 53.314C8.20404 54.239 8.30904 55.29 8.85804 56.235C9.80704 57.895 11.558 57.938 12.148 57.959H13.244C13.118 58.211 13.013 58.463 12.886 58.736L12.759 58.988C12.612 59.282 12.422 59.661 12.338 60.102C12.3133 60.234 12.2989 60.3677 12.295 60.502L12.105 66.785C12.085 67.793 12.76 68.613 13.898 68.949C15.353 69.391 16.956 69.622 19.086 69.748C21.533 69.895 24 69.916 26.404 69.958C27.395 69.979 28.408 69.979 29.42 70C29.631 70 29.863 70.021 30.116 70.021C30.453 70.042 30.791 70.063 31.149 70.063H31.255C31.571 70.063 31.866 70.042 32.141 70C32.225 69.979 32.309 69.979 32.415 69.958C32.435 69.958 32.457 69.937 32.478 69.937L32.668 69.874C32.689 69.874 32.71 69.853 32.731 69.853C32.8136 69.831 32.892 69.7955 32.963 69.748C32.984 69.748 33.005 69.727 33.026 69.727C33.09 69.706 33.153 69.664 33.196 69.643C33.216 69.622 33.237 69.622 33.258 69.601C33.3362 69.5644 33.4076 69.5147 33.469 69.454C33.469 69.454 33.49 69.433 33.511 69.433C33.5637 69.3856 33.6206 69.3431 33.681 69.306L33.722 69.265L33.849 69.138L33.891 69.096C33.933 69.054 33.975 68.991 34.018 68.949L34.038 68.929L34.06 68.886L34.102 68.844C34.123 68.824 34.144 68.781 34.165 68.76C34.186 68.74 34.186 68.718 34.207 68.697C34.228 68.655 34.25 68.634 34.271 68.592C34.291 68.571 34.291 68.55 34.313 68.529C34.333 68.487 34.355 68.466 34.376 68.424C34.376 68.403 34.397 68.382 34.397 68.382C34.418 68.319 34.46 68.277 34.482 68.214C34.587 67.983 34.713 67.73 34.819 67.499L34.903 67.289C34.988 67.1 35.073 66.911 35.156 66.722L35.199 66.617L35.219 66.554C35.325 66.322 35.409 66.112 35.515 65.881L35.557 65.755L35.81 65.188L35.895 64.978C35.958 64.809 36.042 64.641 36.105 64.473L36.19 64.263C36.232 64.158 36.274 64.032 36.337 63.927C37.929 65.2221 39.9159 65.9338 41.968 65.944H42.053C42.981 65.944 43.887 65.776 44.731 65.461C44.858 65.419 44.984 65.356 45.111 65.314C45.131 65.293 45.174 65.293 45.195 65.272L45.216 65.251L45.469 65.125L45.596 65.062C45.68 65.019 45.764 64.978 45.849 64.936L45.869 64.914C45.912 64.894 45.933 64.872 45.954 64.872L46.27 64.683C46.292 64.683 46.292 64.663 46.313 64.663C46.418 64.599 46.523 64.515 46.65 64.431L46.713 64.368L46.734 64.348C46.819 64.284 46.882 64.242 46.966 64.178C47.0053 64.1557 47.041 64.1277 47.072 64.095C47.135 64.032 47.22 63.99 47.282 63.927L47.304 63.906C47.325 63.885 47.367 63.864 47.388 63.843C47.473 63.78 47.557 63.696 47.62 63.633L47.684 63.569C47.768 63.485 47.874 63.401 47.958 63.296L48.021 63.233L48.042 63.213C48.105 63.149 48.169 63.086 48.232 63.003C48.274 62.96 48.295 62.939 48.316 62.897C48.38 62.834 48.443 62.771 48.485 62.707C48.485 62.707 48.548 62.645 48.569 62.603C48.633 62.519 48.696 62.456 48.759 62.372L48.78 62.351C48.991 63.275 49.223 64.2 49.518 65.104C49.6239 65.4402 49.8346 65.7336 50.1193 65.9415C50.4039 66.1493 50.7476 66.2606 51.1 66.259H55.507C55.55 66.259 55.613 66.259 55.655 66.239H55.676C55.719 66.239 55.761 66.239 55.803 66.217H55.845C55.887 66.217 55.929 66.197 55.972 66.197H56.014C56.077 66.175 56.119 66.175 56.162 66.154L56.204 66.134C56.246 66.112 56.288 66.112 56.351 66.091L56.393 66.071C56.457 66.049 56.52 66.028 56.563 65.986L56.604 65.966C56.646 65.944 56.689 65.923 56.752 65.881C56.773 65.861 56.794 65.861 56.815 65.839C56.8625 65.8108 56.9054 65.7754 56.942 65.734L56.962 65.713L56.984 65.692C57.047 65.65 57.089 65.587 57.153 65.545C57.173 65.524 57.173 65.503 57.195 65.503C57.2209 65.479 57.2423 65.4506 57.258 65.419C57.279 65.398 57.3 65.356 57.321 65.335C57.343 65.314 57.343 65.293 57.364 65.272C57.384 65.23 57.427 65.167 57.448 65.125L57.469 65.104L57.49 65.04C57.532 64.977 57.553 64.893 57.574 64.81C57.574 64.788 57.596 64.767 57.596 64.746C57.596 64.704 57.616 64.662 57.616 64.641C57.616 64.621 57.616 64.599 57.638 64.557V64.494C57.658 64.41 57.658 64.326 57.658 64.263L57.743 61.636C57.764 61.657 57.785 61.657 57.785 61.678C58.397 62.204 58.988 62.708 59.599 63.212C59.662 63.275 59.747 63.338 59.831 63.402C60.337 63.842 61.033 64.473 62.003 64.578C62.151 64.599 62.298 64.599 62.446 64.599H62.488C63.078 64.599 63.648 64.452 64.154 64.326C64.324 64.284 64.492 64.242 64.639 64.221C64.661 64.221 64.703 64.2 64.724 64.2L65.082 64.137L65.23 64.116C65.23 64.116 65.293 64.095 65.314 64.095L65.378 64.074C65.398 64.074 65.441 64.053 65.462 64.053C65.483 64.053 65.504 64.032 65.525 64.032C65.546 64.032 65.588 64.011 65.609 64.011C65.631 64.011 65.652 63.99 65.673 63.99C65.715 63.969 65.736 63.969 65.778 63.948C65.799 63.948 65.82 63.927 65.841 63.927C65.884 63.906 65.905 63.906 65.947 63.885C65.968 63.885 65.989 63.864 66.01 63.864C66.031 63.843 66.073 63.843 66.095 63.822C66.263 64.41 66.537 65.104 67.297 65.566C67.929 65.966 68.625 66.007 69.216 66.007H69.785C71.4002 65.9892 73.013 65.877 74.615 65.671C75.3908 65.5686 76.1643 65.4496 76.935 65.314C77.04 65.293 77.145 65.272 77.272 65.251C77.905 65.167 78.769 65.019 79.402 64.431L79.592 64.242L79.655 64.158L79.676 64.137L79.803 63.947L79.823 63.906C79.8597 63.8546 79.8883 63.798 79.908 63.738L79.929 63.675C79.929 63.654 79.95 63.633 79.95 63.612C79.971 63.59 79.971 63.548 79.992 63.528C79.992 63.507 80.014 63.485 80.014 63.464C80.034 63.422 80.034 63.401 80.056 63.359C80.056 63.339 80.076 63.317 80.076 63.296C80.076 63.276 80.098 63.233 80.098 63.191L80.119 63.128C80.119 63.108 80.14 63.065 80.14 63.044V62.96C80.161 62.897 80.161 62.834 80.161 62.792V62.75C80.161 62.708 80.182 62.645 80.182 62.582V62.561C80.182 62.498 80.182 62.435 80.203 62.393V62.182L80.393 55.899V55.227C80.3649 54.325 80.2014 53.4324 79.908 52.579L79.992 49.3C80.0092 48.8872 79.9523 48.4747 79.824 48.082L79.992 41.945C80.056 41.903 80.119 41.882 80.182 41.84C80.2202 41.8241 80.2559 41.8029 80.288 41.777C80.3466 41.7341 80.4105 41.6988 80.478 41.672C80.478 41.672 80.562 41.63 80.583 41.609L80.773 41.483C80.773 41.483 80.857 41.441 80.878 41.42C80.963 41.378 81.026 41.315 81.11 41.273L81.174 41.231C81.258 41.168 81.364 41.105 81.448 41.021L81.532 40.958C81.595 40.916 81.659 40.853 81.722 40.811L81.827 40.727C81.8889 40.6843 81.9456 40.6347 81.996 40.579C82.038 40.559 82.059 40.516 82.102 40.495C82.165 40.453 82.207 40.411 82.27 40.348C82.27 40.348 82.333 40.285 82.376 40.264C82.439 40.222 82.481 40.159 82.544 40.117L82.629 40.033L82.819 39.843L82.882 39.781C82.966 39.697 83.05 39.613 83.114 39.529L83.177 39.466C83.24 39.403 83.283 39.339 83.346 39.276L83.43 39.192C83.472 39.129 83.515 39.087 83.578 39.024C83.598 38.982 83.641 38.961 83.662 38.919C83.662 38.919 83.704 38.856 83.725 38.835C83.746 38.815 83.746 38.793 83.768 38.772C83.8104 38.7041 83.8596 38.6408 83.915 38.583C83.936 38.541 83.978 38.499 84 38.457L84.126 38.267L84.147 38.226C84.1726 38.194 84.1938 38.1586 84.21 38.121C84.253 38.037 84.295 37.974 84.358 37.889L84.379 37.869C84.4012 37.8459 84.4158 37.8166 84.421 37.785C84.485 37.658 84.548 37.553 84.611 37.448C84.653 37.364 84.695 37.301 84.738 37.218L84.78 37.154C84.8 37.091 84.822 37.049 84.843 37.007C84.843 36.986 84.864 36.965 84.864 36.965C84.864 36.944 84.885 36.944 84.885 36.923C84.948 36.797 84.991 36.671 85.033 36.566L85.054 36.503L85.18 36.124L85.202 36.082C85.2468 35.9518 85.2819 35.8184 85.307 35.683V35.641C85.349 35.515 85.37 35.389 85.391 35.263C85.391 35.263 85.412 35.2 85.412 35.179C85.434 35.095 85.434 35.01 85.455 34.926C85.455 34.906 85.455 34.863 85.475 34.842C85.497 34.737 85.497 34.653 85.518 34.548V34.506C85.518 34.422 85.539 34.338 85.539 34.233V34.149C85.539 34.044 85.56 33.939 85.56 33.855L85.729 27.592V27.55C85.771 26.163 85.434 24.818 84.779 23.705C84.801 23.684 84.843 23.621 84.843 23.621V23.6C84.885 23.536 84.927 23.452 84.97 23.39L84.99 23.347C85.033 23.263 85.075 23.2 85.117 23.117L85.138 23.095C85.18 23.032 85.202 22.969 85.244 22.906C85.244 22.885 85.244 22.885 85.264 22.885L85.286 22.843C85.3242 22.7434 85.3662 22.6453 85.412 22.549V22.528C85.4569 22.4192 85.4924 22.3068 85.518 22.192L85.539 22.149V22.129C85.56 22.023 85.602 21.939 85.623 21.834V21.814C85.644 21.708 85.666 21.604 85.687 21.519V21.456C85.707 21.33 85.729 21.183 85.75 21.036V21.015C85.771 20.889 85.792 20.741 85.813 20.595V20.573C85.834 20.447 85.834 20.3 85.855 20.153V20.111C85.855 19.985 85.876 19.838 85.876 19.711L86.046 13.449V13.407C86.172 13.155 86.172 12.945 86.172 12.714ZM46.439 13.597C48.822 9.415 54.749 9.331 58.903 10.192C61.096 10.655 62.995 11.705 64.365 13.492C64.534 13.702 64.682 13.912 64.829 14.142C64.829 14.311 64.935 14.437 65.061 14.522C65.989 16.097 66.474 17.884 66.601 19.712C66.769 22.087 66.474 24.608 65.609 26.836C64.85 28.79 63.459 30.471 61.771 31.669C59.894 32.993 57.68 33.771 55.402 34.002C54.1751 34.1316 52.9375 34.1245 51.712 33.981C51.1 33.897 50.868 33.75 50.762 33.141C50.657 32.551 50.594 31.963 50.509 31.396C49.835 26.542 49.307 21.435 46.481 17.274C46.4644 17.2365 46.4345 17.2066 46.397 17.19L46.334 13.765C46.354 13.702 46.397 13.66 46.439 13.597ZM36.907 3.594C38.362 2.669 40.366 2.228 42.011 2.816C43.74 3.426 44.457 5.044 44.415 6.788C44.373 8.196 43.698 9.583 42.495 10.298C42.389 10.3118 42.2917 10.3637 42.221 10.444C42.086 10.5126 41.9451 10.5688 41.8 10.612C41.21 10.802 41.462 11.747 42.053 11.558C42.2792 11.4888 42.4979 11.3973 42.706 11.285L45.258 11.411C45.448 17.821 45.49 24.251 45.406 30.661C42.8607 30.8953 40.3008 30.93 37.75 30.765C37.2024 24.9295 36.4217 19.1182 35.41 13.345C35.4038 13.2844 35.3833 13.226 35.3503 13.1748C35.3173 13.1235 35.2727 13.0808 35.22 13.05C35.557 12.315 35.895 11.6 36.232 10.844C36.442 10.36 36.696 9.834 36.654 9.289C36.612 8.679 36.169 8.279 35.599 8.112L35.346 8.049C35.3686 7.98778 35.3785 7.9226 35.3751 7.85744C35.3717 7.79228 35.355 7.7285 35.326 7.67C34.608 6.115 35.579 4.434 36.907 3.594ZM7.17004 16.434C6.61945 14.0105 6.07111 11.5865 5.52504 9.162C8.64604 8.259 11.767 7.397 14.931 6.682C15.584 6.536 16.407 6.346 16.934 6.872C17.419 7.355 17.546 8.154 17.736 8.784C18.6863 12.1644 19.0499 15.6827 18.811 19.186C18.558 19.712 19.359 20.174 19.676 19.649C21.131 17.19 22.565 14.731 24.02 12.252C24.358 11.684 24.674 11.138 25.011 10.57C25.349 9.982 25.665 9.267 26.108 8.763C26.508 8.301 27.268 8.427 27.816 8.427L29.926 8.49C31.338 8.553 32.73 8.68 34.122 8.847C34.502 8.889 35.492 8.847 35.662 9.247C35.767 9.477 35.577 9.856 35.492 10.045C35.345 10.381 35.198 10.697 35.05 11.033C33.99 13.3872 32.8146 15.6876 31.528 17.926C30.08 20.4458 28.4888 22.8804 26.762 25.218C26.382 25.722 27.247 26.205 27.605 25.701C27.985 25.197 28.344 24.671 28.702 24.167C29.8668 26.1621 30.8958 28.2335 31.782 30.367L27.816 32.384C27.1243 32.7424 26.4282 33.0924 25.728 33.434C25.307 33.644 25.138 33.624 24.738 33.371C24.4848 33.2003 24.2448 33.0108 24.02 32.804C22.333 31.27 21.236 29.126 19.19 28.013C18.874 27.844 18.453 28.055 18.453 28.433C18.537 31.018 18.473 33.623 18.221 36.208C17.2713 36.485 16.2966 36.6683 15.311 36.755C14.762 36.797 14.214 36.818 13.686 36.818C13.454 36.818 13.201 36.797 12.969 36.797C12.737 36.776 12.273 36.839 12.084 36.692C11.894 36.566 11.852 36.103 11.788 35.893C11.725 35.62 11.641 35.326 11.578 35.053C11.43 34.485 11.303 33.918 11.156 33.371C10.882 32.237 10.607 31.123 10.333 29.988C9.27904 25.47 8.20304 20.953 7.17004 16.434ZM34.923 55.184C34.691 55.899 34.375 56.593 34.08 57.286C33.49 58.6963 32.8782 60.0975 32.245 61.489C31.992 62.035 31.802 62.729 31.106 62.749C30.368 62.792 29.609 62.708 28.892 62.687C25.897 62.603 22.902 62.54 19.908 62.393C18.431 62.33 16.934 62.225 15.479 61.909C15.1814 61.849 14.8859 61.779 14.593 61.699C14.425 61.657 14.235 61.594 14.066 61.552C13.813 61.468 13.792 61.532 13.792 61.279C13.792 61.027 14.087 60.649 14.192 60.417L14.762 59.219C16.196 56.193 17.736 53.23 19.338 50.289C19.508 49.973 19.296 49.658 19.022 49.574C18.917 49.427 18.748 49.322 18.516 49.406C16.702 49.931 14.846 50.246 12.948 50.288C12.21 50.309 11.029 50.478 10.481 49.868C10.017 49.342 9.97504 48.481 9.89104 47.808C9.77149 46.8241 9.69375 45.8355 9.65804 44.845C9.63804 44.425 9.59504 43.942 9.86904 43.585C10.08 43.311 10.459 43.143 10.776 43.017C12.4878 42.2869 14.2177 41.6 15.964 40.957C19.444 39.655 23.008 38.541 26.678 37.953C28.5114 37.6558 30.3668 37.5153 32.224 37.533C32.667 37.533 33.11 37.533 33.532 37.595C34.059 37.658 34.122 37.932 34.122 38.415C34.143 39.319 33.995 40.201 33.742 41.063C33.173 43.123 32.224 45.055 31.38 46.989C30.495 49.027 29.609 51.045 28.744 53.083C28.639 53.335 28.702 53.735 29.04 53.798L33.531 54.596C33.869 54.659 34.228 54.722 34.565 54.786C34.649 54.806 34.818 54.806 34.902 54.869C35.05 54.996 35.008 54.996 34.923 55.185V55.184ZM48.379 53.251C47.535 54.996 46.333 56.698 44.688 57.769C41.756 59.661 37.538 58.547 35.851 55.521L35.915 55.331C36.041 54.869 35.915 54.491 35.619 54.239C35.6415 54.1779 35.6513 54.1129 35.6479 54.0479C35.6444 53.983 35.6278 53.9194 35.599 53.861C34.059 50.225 33.932 45.854 36.252 42.513C38.192 39.718 41.609 38.1 44.962 39.108C46.48 39.55 47.893 40.516 48.737 41.882C49.791 43.606 49.918 45.77 49.791 47.724C49.6812 49.6403 49.2023 51.5171 48.379 53.251ZM65.503 51.444L64.997 55.647L64.87 56.593C64.828 56.929 64.87 57.076 64.533 57.181C63.837 57.391 63.057 57.496 62.361 57.622C61.517 57.769 61.011 57.097 60.441 56.592L58.733 55.08C57.5328 54.0279 56.3378 52.9699 55.148 51.906C54.874 51.654 54.262 51.801 54.305 52.243C54.537 54.239 54.748 56.235 54.98 58.232C55 58.484 55.043 58.757 55.064 59.009C55.064 59.072 55.084 59.156 55.084 59.219H55.043C54.895 59.177 54.621 59.219 54.473 59.219H53.714C52.807 59.199 51.9 59.199 51.014 59.177C50.438 57.1821 50.0707 55.1328 49.918 53.062C49.897 52.894 49.834 52.768 49.708 52.684C50.15 51.591 50.445 50.435 50.635 49.28C50.973 47.115 51.015 44.72 50.255 42.639C50.0644 42.1357 49.8168 41.6559 49.517 41.209C50.5582 40.5961 51.7016 40.1763 52.892 39.97C54.3084 43.5302 56.2024 46.8813 58.522 49.931C58.755 50.225 59.324 50.267 59.408 49.805C59.661 48.418 59.936 47.052 60.188 45.665C60.442 44.32 60.631 42.912 60.948 41.588C61.011 41.315 61.095 41.231 61.37 41.188C61.665 41.147 61.981 41.147 62.297 41.126C63.036 41.105 63.774 41.126 64.512 41.189C65.018 41.231 65.608 41.252 66.052 41.546C66.579 41.903 66.536 42.618 66.473 43.164C66.199 45.959 65.819 48.691 65.503 51.444ZM77.566 58.169C77.398 58.421 76.87 58.421 76.596 58.463C74.9532 58.7813 73.2902 58.9851 71.619 59.073C70.818 59.114 69.995 59.135 69.194 59.135C68.877 59.135 68.477 59.177 68.181 59.072C67.823 58.925 67.801 58.547 67.718 58.211C67.296 56.571 66.895 54.911 66.473 53.272C66.4477 53.1651 66.3884 53.0693 66.304 52.999V52.957C66.705 49.7 67.148 46.443 67.464 43.185C67.528 42.534 67.444 41.925 67.19 41.441C68.772 40.684 70.607 40.327 72.357 40.181C73.981 40.033 75.837 40.243 76.934 41.609C77.735 42.597 77.714 44.467 76.344 44.992C74.951 45.518 73.39 44.509 72.041 45.329C70.965 45.98 70.775 47.556 71.577 48.502C72.695 49.826 74.403 48.859 75.816 48.943C77.208 49.027 77.904 50.813 76.913 51.801C75.879 52.81 74.423 52.474 73.137 52.558C72.463 52.6 71.703 52.789 71.345 53.398C70.923 54.092 71.239 54.953 71.83 55.437C72.59 56.047 73.601 55.941 74.487 55.752C75.478 55.542 76.449 55.332 77.44 55.122C77.6096 55.7165 77.6947 56.3318 77.693 56.95C77.693 57.244 77.735 57.916 77.566 58.169ZM83.682 15.551C83.535 16.391 83.26 17.253 82.543 17.778C81.046 18.913 79.949 17.232 78.789 16.497C77.461 15.635 75.879 16.034 74.719 16.98C74.129 17.442 73.559 18.094 73.369 18.85C73.179 19.607 73.433 20.321 73.918 20.91C74.888 22.108 76.512 22.57 77.904 22.99C79.38 23.452 81.004 23.873 82.079 25.05C83.071 26.121 83.429 27.676 83.282 29.105C82.944 32.405 79.907 34.779 77.018 35.935C75.204 36.65 73.328 36.902 71.387 36.881C70.438 36.881 69.467 36.86 68.519 36.776C67.675 36.692 66.937 36.439 66.389 35.767C65.439 34.632 65.545 32.993 66.684 32.027C67.254 31.564 67.992 31.291 68.73 31.375C69.51 31.459 70.206 31.753 71.007 31.48C72.399 30.997 73.201 29.505 72.863 28.076C72.6628 27.3506 72.2339 26.7092 71.64 26.247C70.986 25.743 70.206 25.596 69.426 25.407C68.73 25.239 67.907 24.965 67.718 24.187C67.675 23.999 67.548 23.873 67.38 23.852C67.549 22.801 67.612 21.729 67.612 20.7C67.591 18.325 67.022 15.95 65.84 13.933C66.684 11.18 68.962 8.973 71.703 8.112C73.391 7.565 75.12 7.67 76.849 8.007C78.347 8.301 79.865 8.637 81.215 9.352C82.543 10.066 83.535 11.138 83.745 12.672C83.893 13.66 83.83 14.647 83.682 15.551Z" fill="#572C54"/>
<path d="M55.128 23.6842C55.191 23.8732 55.381 24.0622 55.592 24.0412C57.11 23.9572 58.776 24.2512 60.042 23.2212C61.138 22.3392 61.286 20.9732 60.358 19.9012C59.515 18.9132 58.144 18.4932 56.858 18.4932C56.246 18.4932 55.465 18.5562 54.938 18.8932C54.432 19.2292 54.242 19.8172 54.495 20.3632C54.601 21.4982 54.812 22.5922 55.128 23.6842ZM41.779 47.7032C40.555 47.8712 39.796 49.3002 40.007 50.4772C40.26 51.9072 42.032 52.3902 43.255 51.8852C44.478 51.3812 45.174 49.8682 44.499 48.6492C43.972 47.7032 42.749 47.3462 41.779 47.7032Z" fill="#572C54"/>
</g>
</g>
</g>
</g>
<defs>
<clipPath id="clip0_3_5161">
<rect width="88" height="70" fill="white" transform="translate(0.969971)"/>
</clipPath>
<clipPath id="clip1_3_5161">
<rect width="88" height="70" fill="white" transform="translate(0.969971)"/>
</clipPath>
<clipPath id="clip2_3_5161">
<rect width="88" height="70" fill="white" transform="translate(0.969971)"/>
</clipPath>
</defs>
</svg>
