<svg width="124" height="70" viewBox="0 0 124 70" fill="none" xmlns="http://www.w3.org/2000/svg">
<g opacity="0.6" clip-path="url(#clip0_3_5136)">
<g clip-path="url(#clip1_3_5136)">
<g clip-path="url(#clip2_3_5136)">
<mask id="mask0_3_5136" style="mask-type:luminance" maskUnits="userSpaceOnUse" x="0" y="0" width="124" height="70">
<path d="M0.0500488 0H123.05V70H0.0500488V0Z" fill="white"/>
</mask>
<g mask="url(#mask0_3_5136)">
<path d="M7.02695 64.6001C6.92695 66.3001 5.13395 67.0001 3.73795 67.3001L3.63795 69.9001L1.34595 69.8001L1.44595 62.1001C3.33895 61.8001 7.32595 61.5001 7.02695 64.6001ZM3.83695 63.4001V65.3001C4.33695 65.2001 5.33295 65.0001 5.43295 64.3001C5.53295 63.5001 4.63495 63.4001 3.83795 63.4001H3.83695Z" fill="url(#paint0_linear_3_5136)"/>
<path d="M12.7091 67.6998H15.0021L14.9021 69.9998H10.1171L10.0171 62.4998L12.6091 62.2998L12.7091 67.6998Z" fill="#224190"/>
<path d="M22.676 62.3002L24.371 69.8002L21.879 70.0002L21.58 67.6002L20.384 67.7002L20.084 69.9002L17.593 69.6002L19.587 62.2002L22.677 62.3002H22.676ZM21.48 66.3002L21.181 63.8002L20.683 66.3002H21.48Z" fill="#E4C062"/>
<path d="M33.64 62.9002L31.15 66.5002L31.05 70.0002H28.858L28.758 66.2002L26.166 62.9002L28.16 62.2002L30.054 64.6002L31.648 62.2002L33.642 62.9002H33.64Z" fill="#02B0E3"/>
<path d="M71.717 62.2002L74.309 62.4002L73.013 69.7002H70.62L69.822 66.6002L68.925 69.7002L66.533 69.6002L65.636 62.4002L68.227 62.2002L68.327 66.3002L68.925 63.6002L70.719 63.4002L71.417 66.5002L71.717 62.2002Z" fill="#7FC142"/>
<path d="M83.4791 65.7001C83.5791 67.7001 82.8811 69.5001 80.6891 69.8001C78.4951 70.1001 76.8011 68.9001 76.9001 66.2001C77.0001 63.5001 78.9941 62.1001 80.6881 62.3001C81.8841 62.6001 83.2801 63.3001 83.4791 65.7001ZM81.1861 65.5001C80.9871 64.6001 80.4891 64.3001 80.0901 64.3001C79.4921 64.3001 78.9941 64.9001 79.0931 66.0001C79.0931 67.1001 79.7911 67.5001 80.5881 67.3001C81.1861 67.1001 81.3861 66.3001 81.1861 65.5001Z" fill="url(#paint1_linear_3_5136)"/>
<path d="M90.855 66.7L92.25 69L90.356 70L89.16 67.4C89.06 67.4 88.96 67.4 88.861 67.5L88.961 70.1L86.768 70L86.468 62.5C88.163 62.1 92.25 61.9 92.051 64.9C91.951 65.7 91.453 66.3 90.855 66.7ZM88.562 65.8C89.06 65.8 90.257 65.5 90.356 64.9C90.456 64.3 89.26 64.3 88.462 64.3L88.562 65.8Z" fill="#21428E"/>
<path d="M97.7321 67.6999H100.025L99.9251 69.8999H95.2411L95.1411 62.5999L97.6331 62.3999L97.7321 67.6999Z" fill="#11ACE3"/>
<path d="M109.096 66.5C108.597 70.7 103.015 69.9 103.015 69.9L102.916 62.3C105.707 62 109.594 62.7 109.096 66.5ZM105.208 64.3V67.5C105.208 67.5 107.202 67.2 107.301 66C107.202 64.8 106.105 64.2 105.208 64.3ZM38.1261 62L43.5091 62.1V64.5L41.8141 64.4L41.9141 69.9L39.6211 70L39.7211 64.3L38.0271 64.2L38.1261 62Z" fill="#7FC142"/>
<path d="M49.7881 62.1001H52.2801V69.7001H49.8881V66.7001H48.6921V69.7001L46.2001 69.8001L46.1001 62.2001L48.5921 62.1001V65.4001L49.8881 65.5001V62.1001H49.7881Z" fill="url(#paint2_linear_3_5136)"/>
<path d="M60.852 67.3998L60.952 69.7998H55.27L55.071 61.9998L60.653 61.7998L60.553 64.2998H57.263L57.363 65.1998H59.357V66.5998H57.363L57.463 67.4998L60.853 67.3998H60.852Z" fill="#02B0E3"/>
<path d="M9.12005 0L0.0500488 30.8L1.44505 58.1L39.92 53.9L43.1101 13.8L9.12005 0Z" fill="#F58921"/>
<path d="M54.1741 15.7L88.8611 10.5L92.9481 53.2L51.6821 51.1L54.1741 15.7Z" fill="#EA3292"/>
<path d="M34.438 17.5L55.768 11L65.936 52.2L38.226 54.1L34.438 17.5Z" fill="#00B3E4"/>
<path d="M25.0689 29.7L41.3159 46.6L30.0529 53.8L19.9849 39.9L19.7859 53.2L7.12693 53L6.42993 12L20.3849 12.6L20.2849 21.2L31.7469 11L38.5249 18.7L25.0689 29.7ZM52.3799 20.5L52.8779 50.5L42.5119 50.6L42.9109 20.4L52.3799 20.5Z" fill="white"/>
<path d="M89.7581 6.7002L123.05 24.5002L110.192 61.5002L77.9961 45.6002L89.7581 6.7002Z" fill="#7FC142"/>
<path d="M85.572 34.9002C83.678 52.7002 59.556 49.6002 59.556 49.6002L58.958 17.0002C71.118 15.6002 87.366 18.6002 85.572 34.9002ZM68.527 25.6002V39.1002C68.527 39.1002 77.099 37.8002 77.299 32.5002C77.498 27.5002 72.614 25.1002 68.527 25.6002ZM110.79 46.0002L108.099 54.5002L84.675 46.6002L87.465 39.2002L104.81 30.3002L92.25 25.7002L95.141 16.9002L117.369 23.8002L114.976 33.3002L99.228 42.7002L110.79 46.0002Z" fill="white"/>
</g>
</g>
</g>
</g>
<defs>
<linearGradient id="paint0_linear_3_5136" x1="1.42095" y1="65.9291" x2="7.08795" y2="65.9291" gradientUnits="userSpaceOnUse">
<stop stop-color="#DB2A64"/>
<stop offset="1" stop-color="#ED4D7A"/>
</linearGradient>
<linearGradient id="paint1_linear_3_5136" x1="76.8491" y1="66.0881" x2="83.4861" y2="66.0881" gradientUnits="userSpaceOnUse">
<stop stop-color="#DB2A64"/>
<stop offset="1" stop-color="#ED4D7A"/>
</linearGradient>
<linearGradient id="paint2_linear_3_5136" x1="45.9751" y1="65.9241" x2="52.2311" y2="65.9241" gradientUnits="userSpaceOnUse">
<stop stop-color="#DB2A64"/>
<stop offset="1" stop-color="#ED4D7A"/>
</linearGradient>
<clipPath id="clip0_3_5136">
<rect width="123" height="70" fill="white" transform="translate(0.0500488)"/>
</clipPath>
<clipPath id="clip1_3_5136">
<rect width="123" height="70" fill="white" transform="translate(0.0500488)"/>
</clipPath>
<clipPath id="clip2_3_5136">
<rect width="123" height="70" fill="white" transform="translate(0.0500488)"/>
</clipPath>
</defs>
</svg>
