<svg width="60" height="61" viewBox="0 0 60 61" fill="none" xmlns="http://www.w3.org/2000/svg">
<rect y="0.0800781" width="60" height="60" rx="30" fill="white"/>
<g clip-path="url(#clip0_3_4129)">
<path fill-rule="evenodd" clip-rule="evenodd" d="M29.9998 47.377C26.2206 47.3716 22.5552 46.0833 19.6038 43.723C16.7606 41.4403 14.7452 38.2877 13.8668 34.749H12.4238C12.3421 34.7487 12.2623 34.7248 12.1939 34.6801C12.1256 34.6354 12.0717 34.5718 12.0387 34.4971C12.0058 34.4223 11.9953 34.3396 12.0084 34.259C12.0216 34.1784 12.0578 34.1034 12.1128 34.043L15.1468 30.718C15.1863 30.6747 15.2345 30.6401 15.2881 30.6165C15.3417 30.5929 15.3997 30.5807 15.4583 30.5807C15.5169 30.5807 15.5749 30.5929 15.6285 30.6165C15.6821 30.6401 15.7303 30.6747 15.7698 30.718L18.8048 34.043C18.8594 34.1036 18.8953 34.1787 18.9081 34.2592C18.921 34.3398 18.9103 34.4223 18.8773 34.497C18.8443 34.5716 18.7905 34.635 18.7223 34.6798C18.6541 34.7245 18.5744 34.7485 18.4928 34.749H17.2778C19.0028 40.275 24.1578 44.089 29.9998 44.089C36.0288 44.089 41.3228 40.029 42.8758 34.219C42.8996 34.1292 42.9524 34.0498 43.0261 33.9932C43.0997 33.9366 43.1899 33.9059 43.2828 33.906H45.7998C45.863 33.9059 45.9255 33.9201 45.9825 33.9475C46.0395 33.9748 46.0897 34.0147 46.1292 34.064C46.1688 34.1134 46.1967 34.171 46.211 34.2326C46.2253 34.2942 46.2256 34.3582 46.2118 34.42C45.3805 38.0887 43.3307 41.3676 40.3968 43.722C37.4453 46.0831 33.7795 47.3718 29.9998 47.377ZM44.5408 29.579C44.4823 29.5788 44.4245 29.5666 44.371 29.543C44.3175 29.5194 44.2694 29.485 44.2298 29.442L41.1958 26.117C41.1542 26.072 41.1229 26.0185 41.1041 25.9602C41.0854 25.9018 41.0796 25.8401 41.0872 25.7793C41.0948 25.7185 41.1157 25.6602 41.1482 25.6083C41.1808 25.5564 41.2244 25.5122 41.2758 25.479C41.3446 25.4343 41.4248 25.4107 41.5068 25.411H42.7218C40.9978 19.884 35.8428 16.07 29.9998 16.07C23.9708 16.07 18.6768 20.13 17.1238 25.94C17.0997 26.0295 17.0468 26.1087 16.9732 26.1653C16.8997 26.2218 16.8096 26.2526 16.7168 26.253H14.1998C14.1367 26.2526 14.0744 26.2382 14.0176 26.2107C13.9608 26.1832 13.9108 26.1434 13.8713 26.0941C13.8318 26.0449 13.8038 25.9874 13.7894 25.926C13.7749 25.8645 13.7744 25.8006 13.7878 25.739C14.619 22.0699 16.6688 18.7907 19.6028 16.436C22.5546 14.0758 26.2204 12.7878 29.9998 12.783C33.7638 12.783 37.4558 14.081 40.3958 16.437C43.2391 18.7194 45.2546 21.8722 46.1328 25.411H47.5758C47.6577 25.4105 47.738 25.4341 47.8068 25.4786C47.8756 25.5232 47.9299 25.5868 47.963 25.6618C47.9961 25.7367 48.0067 25.8197 47.9933 25.9006C47.9799 25.9814 47.9433 26.0566 47.8878 26.117L44.8528 29.442C44.8133 29.4853 44.7651 29.5199 44.7113 29.5435C44.6576 29.5671 44.5995 29.5792 44.5408 29.579Z" fill="#FFD8AA"/>
<path fill-rule="evenodd" clip-rule="evenodd" d="M29.9999 39.8181H29.9909C28.2699 39.8061 26.5979 39.7781 26.1269 39.7701C23.8389 39.7301 22.9529 38.5591 22.6119 37.5831C22.1279 36.1961 22.3889 34.2351 23.3489 32.0641C24.2189 30.0931 25.5459 28.2501 26.8989 27.1351C26.975 27.0725 27.0727 27.0426 27.1708 27.052C27.2688 27.0613 27.3591 27.1092 27.4219 27.1851C27.5249 27.3121 31.1079 27.4051 32.5029 27.5041C32.4912 27.4526 32.4905 27.3993 32.5011 27.3476C32.5116 27.2959 32.5331 27.2471 32.5641 27.2043C32.595 27.1616 32.6348 27.126 32.6806 27.0999C32.7265 27.0739 32.7774 27.0579 32.8299 27.0531C32.9279 27.0431 33.0259 27.0731 33.1019 27.1351C34.4539 28.2511 35.7819 30.0931 36.6519 32.0651C37.6109 34.2361 37.8719 36.1951 37.3879 37.5831C37.0469 38.5591 36.1609 39.7301 33.8739 39.7701C32.9009 39.7871 31.3739 39.8081 30.0029 39.8181H29.9999ZM27.3739 25.3441C27.2923 25.3442 27.2129 25.3172 27.1481 25.2675C27.0834 25.2178 27.0369 25.148 27.0159 25.0691L25.8739 20.8091C25.8588 20.754 25.8566 20.6961 25.8676 20.64C25.8786 20.584 25.9024 20.5312 25.9372 20.4859C25.9719 20.4405 26.0167 20.4039 26.068 20.3787C26.1194 20.3536 26.1758 20.3407 26.2329 20.3411C26.6759 20.3411 27.0459 20.6341 27.4049 20.9151C27.6519 21.1101 27.9319 21.3301 28.1159 21.3301C28.3019 21.3301 28.5819 21.1101 28.8289 20.9151C29.1869 20.6341 29.5579 20.3421 29.9999 20.3421C30.4429 20.3421 30.8139 20.6341 31.1719 20.9151C31.4179 21.1101 31.6979 21.3301 31.8839 21.3301C32.0689 21.3301 32.3489 21.1101 32.5959 20.9151C32.9549 20.6341 33.3249 20.3421 33.7669 20.3421C33.8241 20.3416 33.8805 20.3544 33.9318 20.3794C33.9832 20.4044 34.0281 20.4409 34.0629 20.4862C34.0978 20.5314 34.1217 20.5841 34.1328 20.6401C34.1439 20.6961 34.1419 20.754 34.1269 20.8091L32.9849 25.0691C32.9723 25.1162 32.9505 25.1603 32.9208 25.199C32.8911 25.2376 32.854 25.2701 32.8118 25.2944C32.7695 25.3187 32.7229 25.3345 32.6745 25.3408C32.6261 25.3471 32.577 25.3438 32.5299 25.3311C32.3319 25.2781 32.2139 25.7451 32.2679 25.5471L32.3409 25.2711H27.6599L27.7339 25.5471C27.7869 25.7451 27.6699 25.2781 27.4709 25.3311C27.4397 25.3398 27.4074 25.3442 27.3749 25.3441H27.3739Z" fill="#F88E0F"/>
<path fill-rule="evenodd" clip-rule="evenodd" d="M32.9399 27.7931H27.0599C26.1799 27.7931 25.4639 27.0771 25.4639 26.1971C25.4639 25.3171 26.1799 24.6011 27.0599 24.6011H32.9399C33.8199 24.6011 34.5359 25.3171 34.5359 26.1971C34.5359 27.0771 33.8189 27.7931 32.9399 27.7931Z" fill="#001430"/>
<path fill-rule="evenodd" clip-rule="evenodd" d="M30.0001 36.6041C28.7921 36.6041 27.8101 35.8101 27.8101 34.8341C27.8169 34.7404 27.859 34.6528 27.9278 34.5889C27.9967 34.5249 28.0871 34.4894 28.1811 34.4894C28.275 34.4894 28.3655 34.5249 28.4343 34.5889C28.5031 34.6528 28.5452 34.7404 28.5521 34.8341C28.5521 35.3911 29.2151 35.8621 30.0001 35.8621C30.7851 35.8621 31.4481 35.3921 31.4481 34.8341C31.4481 34.2761 30.7851 33.8061 30.0001 33.8061C28.7921 33.8061 27.8101 33.0111 27.8101 32.0351C27.8101 31.0591 28.7921 30.2651 30.0001 30.2651C31.2081 30.2651 32.1911 31.0591 32.1911 32.0351C32.1911 32.1335 32.152 32.2279 32.0824 32.2975C32.0128 32.367 31.9185 32.4061 31.8201 32.4061C31.7217 32.4061 31.6273 32.367 31.5577 32.2975C31.4881 32.2279 31.4491 32.1335 31.4491 32.0351C31.4491 31.4781 30.7851 31.0071 30.0001 31.0071C29.2151 31.0071 28.5521 31.4771 28.5521 32.0351C28.5521 32.5921 29.2151 33.0631 30.0001 33.0631C31.2081 33.0631 32.1911 33.8571 32.1911 34.8331C32.1911 35.8101 31.2081 36.6041 30.0001 36.6041Z" fill="white"/>
<path fill-rule="evenodd" clip-rule="evenodd" d="M29.9999 37.4451C29.9511 37.4451 29.9028 37.4354 29.8577 37.4167C29.8126 37.398 29.7717 37.3706 29.7372 37.3361C29.7028 37.3015 29.6754 37.2605 29.6569 37.2154C29.6383 37.1702 29.6288 37.1219 29.6289 37.0731V29.7951C29.6289 29.6967 29.668 29.6023 29.7376 29.5327C29.8071 29.4632 29.9015 29.4241 29.9999 29.4241C30.0983 29.4241 30.1927 29.4632 30.2622 29.5327C30.3318 29.6023 30.3709 29.6967 30.3709 29.7951V37.0731C30.3709 37.1716 30.3319 37.266 30.2623 37.3358C30.1928 37.4055 30.0984 37.4448 29.9999 37.4451Z" fill="white"/>
</g>
<defs>
<clipPath id="clip0_3_4129">
<rect width="36" height="36" fill="white" transform="translate(12 12.0801)"/>
</clipPath>
</defs>
</svg>
