<svg width="36" height="37" viewBox="0 0 36 37" fill="none" xmlns="http://www.w3.org/2000/svg">
<g clip-path="url(#clip0_3_4130)">
<path fill-rule="evenodd" clip-rule="evenodd" d="M17.9998 35.377C14.2206 35.3716 10.5552 34.0833 7.6038 31.723C4.76062 29.4403 2.74516 26.2877 1.8668 22.749H0.423797C0.342124 22.7487 0.262269 22.7248 0.19392 22.6801C0.125571 22.6354 0.0716645 22.5718 0.0387396 22.4971C0.00581471 22.4223 -0.0047136 22.3396 0.00843182 22.259C0.0215772 22.1784 0.0578315 22.1034 0.112797 22.043L3.1468 18.718C3.18634 18.6747 3.23446 18.6401 3.28809 18.6165C3.34172 18.5929 3.39969 18.5807 3.4583 18.5807C3.51691 18.5807 3.57487 18.5929 3.62851 18.6165C3.68214 18.6401 3.73026 18.6747 3.7698 18.718L6.8048 22.043C6.85937 22.1036 6.89525 22.1787 6.90812 22.2592C6.92099 22.3398 6.91029 22.4223 6.87732 22.497C6.84435 22.5716 6.79051 22.635 6.72228 22.6798C6.65406 22.7245 6.57437 22.7485 6.4928 22.749H5.2778C7.0028 28.275 12.1578 32.089 17.9998 32.089C24.0288 32.089 29.3228 28.029 30.8758 22.219C30.8996 22.1292 30.9524 22.0498 31.0261 21.9932C31.0997 21.9366 31.1899 21.9059 31.2828 21.906H33.7998C33.863 21.9059 33.9255 21.9201 33.9825 21.9475C34.0395 21.9748 34.0897 22.0147 34.1292 22.064C34.1688 22.1134 34.1967 22.171 34.211 22.2326C34.2253 22.2942 34.2256 22.3582 34.2118 22.42C33.3805 26.0887 31.3307 29.3676 28.3968 31.722C25.4453 34.0831 21.7795 35.3718 17.9998 35.377ZM32.5408 17.579C32.4823 17.5788 32.4245 17.5666 32.371 17.543C32.3175 17.5194 32.2694 17.485 32.2298 17.442L29.1958 14.117C29.1542 14.072 29.1229 14.0185 29.1041 13.9602C29.0854 13.9018 29.0796 13.8401 29.0872 13.7793C29.0948 13.7185 29.1157 13.6602 29.1482 13.6083C29.1808 13.5564 29.2244 13.5122 29.2758 13.479C29.3446 13.4343 29.4248 13.4107 29.5068 13.411H30.7218C28.9978 7.88396 23.8428 4.06996 17.9998 4.06996C11.9708 4.06996 6.6768 8.12996 5.1238 13.94C5.09967 14.0295 5.04676 14.1087 4.97322 14.1653C4.89967 14.2218 4.80957 14.2526 4.7168 14.253H2.1998C2.13667 14.2526 2.07442 14.2382 2.01759 14.2107C1.96076 14.1832 1.91078 14.1434 1.8713 14.0941C1.83182 14.0449 1.80383 13.9874 1.78939 13.926C1.77494 13.8645 1.7744 13.8006 1.7878 13.739C2.61905 10.0699 4.66879 6.79066 7.6028 4.43596C10.5546 2.07577 14.2204 0.787795 17.9998 0.782959C21.7638 0.782959 25.4558 2.08096 28.3958 4.43696C31.2391 6.71944 33.2546 9.87215 34.1328 13.411H35.5758C35.6577 13.4105 35.738 13.4341 35.8068 13.4786C35.8756 13.5232 35.9299 13.5868 35.963 13.6618C35.9961 13.7367 36.0067 13.8197 35.9933 13.9006C35.9799 13.9814 35.9433 14.0566 35.8878 14.117L32.8528 17.442C32.8133 17.4853 32.7651 17.5199 32.7113 17.5435C32.6576 17.5671 32.5995 17.5792 32.5408 17.579Z" fill="#FFD8AA"/>
<path fill-rule="evenodd" clip-rule="evenodd" d="M17.9999 27.8181H17.9909C16.2699 27.8061 14.5979 27.7781 14.1269 27.7701C11.8389 27.7301 10.9529 26.5591 10.6119 25.5831C10.1279 24.1961 10.3889 22.2351 11.3489 20.0641C12.2189 18.0931 13.5459 16.2501 14.8989 15.1351C14.975 15.0725 15.0727 15.0426 15.1708 15.052C15.2688 15.0613 15.3591 15.1092 15.4219 15.1851C15.5249 15.3121 19.1079 15.4051 20.5029 15.5041C20.4912 15.4526 20.4905 15.3993 20.5011 15.3476C20.5116 15.2959 20.5331 15.2471 20.5641 15.2043C20.595 15.1616 20.6348 15.126 20.6806 15.0999C20.7265 15.0739 20.7774 15.0579 20.8299 15.0531C20.9279 15.0431 21.0259 15.0731 21.1019 15.1351C22.4539 16.2511 23.7819 18.0931 24.6519 20.0651C25.6109 22.2361 25.8719 24.1951 25.3879 25.5831C25.0469 26.5591 24.1609 27.7301 21.8739 27.7701C20.9009 27.7871 19.3739 27.8081 18.0029 27.8181H17.9999ZM15.3739 13.3441C15.2923 13.3442 15.2129 13.3172 15.1481 13.2675C15.0834 13.2178 15.0369 13.148 15.0159 13.0691L13.8739 8.80907C13.8588 8.75398 13.8566 8.69612 13.8676 8.64005C13.8786 8.58397 13.9024 8.5312 13.9372 8.48587C13.9719 8.44053 14.0167 8.40387 14.068 8.37875C14.1194 8.35362 14.1758 8.34073 14.2329 8.34107C14.6759 8.34107 15.0459 8.63407 15.4049 8.91507C15.6519 9.11007 15.9319 9.33007 16.1159 9.33007C16.3019 9.33007 16.5819 9.11007 16.8289 8.91507C17.1869 8.63407 17.5579 8.34207 17.9999 8.34207C18.4429 8.34207 18.8139 8.63407 19.1719 8.91507C19.4179 9.11007 19.6979 9.33007 19.8839 9.33007C20.0689 9.33007 20.3489 9.11007 20.5959 8.91507C20.9549 8.63407 21.3249 8.34207 21.7669 8.34207C21.8241 8.34162 21.8805 8.35439 21.9318 8.37939C21.9832 8.40439 22.0281 8.44093 22.0629 8.48616C22.0978 8.5314 22.1217 8.58409 22.1328 8.64011C22.1439 8.69613 22.1419 8.75396 22.1269 8.80907L20.9849 13.0691C20.9723 13.1162 20.9505 13.1603 20.9208 13.199C20.8911 13.2376 20.854 13.2701 20.8118 13.2944C20.7695 13.3187 20.7229 13.3345 20.6745 13.3408C20.6261 13.3471 20.577 13.3438 20.5299 13.3311C20.3319 13.2781 20.2139 13.7451 20.2679 13.5471L20.3409 13.2711H15.6599L15.7339 13.5471C15.7869 13.7451 15.6699 13.2781 15.4709 13.3311C15.4397 13.3398 15.4074 13.3442 15.3749 13.3441H15.3739Z" fill="#F88E0F"/>
<path fill-rule="evenodd" clip-rule="evenodd" d="M20.9399 15.7931H15.0599C14.1799 15.7931 13.4639 15.0771 13.4639 14.1971C13.4639 13.3171 14.1799 12.6011 15.0599 12.6011H20.9399C21.8199 12.6011 22.5359 13.3171 22.5359 14.1971C22.5359 15.0771 21.8189 15.7931 20.9399 15.7931Z" fill="#001430"/>
<path fill-rule="evenodd" clip-rule="evenodd" d="M18.0001 24.6041C16.7921 24.6041 15.8101 23.8101 15.8101 22.8341C15.8169 22.7404 15.859 22.6528 15.9278 22.5889C15.9967 22.5249 16.0871 22.4894 16.1811 22.4894C16.275 22.4894 16.3655 22.5249 16.4343 22.5889C16.5031 22.6528 16.5452 22.7404 16.5521 22.8341C16.5521 23.3911 17.2151 23.8621 18.0001 23.8621C18.7851 23.8621 19.4481 23.3921 19.4481 22.8341C19.4481 22.2761 18.7851 21.8061 18.0001 21.8061C16.7921 21.8061 15.8101 21.0111 15.8101 20.0351C15.8101 19.0591 16.7921 18.2651 18.0001 18.2651C19.2081 18.2651 20.1911 19.0591 20.1911 20.0351C20.1911 20.1335 20.152 20.2279 20.0824 20.2975C20.0128 20.367 19.9185 20.4061 19.8201 20.4061C19.7217 20.4061 19.6273 20.367 19.5577 20.2975C19.4881 20.2279 19.4491 20.1335 19.4491 20.0351C19.4491 19.4781 18.7851 19.0071 18.0001 19.0071C17.2151 19.0071 16.5521 19.4771 16.5521 20.0351C16.5521 20.5921 17.2151 21.0631 18.0001 21.0631C19.2081 21.0631 20.1911 21.8571 20.1911 22.8331C20.1911 23.8101 19.2081 24.6041 18.0001 24.6041Z" fill="white"/>
<path fill-rule="evenodd" clip-rule="evenodd" d="M17.9999 25.4451C17.9511 25.4451 17.9028 25.4354 17.8577 25.4167C17.8126 25.398 17.7717 25.3706 17.7372 25.3361C17.7028 25.3015 17.6754 25.2605 17.6569 25.2154C17.6383 25.1702 17.6288 25.1219 17.6289 25.0731V17.7951C17.6289 17.6967 17.668 17.6023 17.7376 17.5327C17.8071 17.4632 17.9015 17.4241 17.9999 17.4241C18.0983 17.4241 18.1927 17.4632 18.2622 17.5327C18.3318 17.6023 18.3709 17.6967 18.3709 17.7951V25.0731C18.3709 25.1716 18.3319 25.266 18.2623 25.3358C18.1928 25.4055 18.0984 25.4448 17.9999 25.4451Z" fill="white"/>
</g>
<defs>
<clipPath id="clip0_3_4130">
<rect width="36" height="36" fill="white" transform="translate(0 0.0800781)"/>
</clipPath>
</defs>
</svg>
