<svg width="61" height="61" viewBox="0 0 61 61" fill="none" xmlns="http://www.w3.org/2000/svg">
<rect x="0.5" y="0.0800781" width="60" height="60" rx="30" fill="white"/>
<g clip-path="url(#clip0_3_4165)">
<path d="M36.6671 18.9741C36.6551 18.9901 36.1231 19.9041 36.1231 19.9041C36.0822 19.9684 36.0548 20.0404 36.0425 20.1156C36.0301 20.1908 36.0332 20.2678 36.0513 20.3418C36.0695 20.4158 36.1025 20.4854 36.1483 20.5463C36.1941 20.6073 36.2517 20.6583 36.3178 20.6964C36.3838 20.7345 36.4569 20.7588 36.5325 20.7679C36.6082 20.777 36.6849 20.7707 36.7581 20.7494C36.8313 20.728 36.8994 20.6921 36.9583 20.6438C37.0173 20.5954 37.0658 20.5357 37.1011 20.4681C37.1011 20.4681 37.6261 19.5521 37.6341 19.5341C37.3223 19.3297 36.9995 19.1428 36.6671 18.9741ZM40.1901 32.0021C40.1096 31.9563 40.0192 31.9308 39.9267 31.9281C39.8342 31.9253 39.7424 31.9453 39.6594 31.9863C39.5764 32.0272 39.5047 32.0879 39.4506 32.163C39.3965 32.2381 39.3616 32.3254 39.3491 32.4171C39.3346 32.5278 39.3531 32.6403 39.4024 32.7405C39.4517 32.8407 39.5295 32.924 39.6261 32.9801C39.6261 32.9801 40.5441 33.5031 40.5631 33.5111C40.7671 33.2011 40.9531 32.8781 41.1211 32.5461C41.1051 32.5331 40.1901 32.0021 40.1901 32.0021ZM42.1961 27.4291C41.8361 27.4253 41.4761 27.423 41.1161 27.4221C40.9704 27.4282 40.8328 27.4904 40.732 27.5956C40.6311 27.7008 40.5748 27.8408 40.5748 27.9866C40.5748 28.1323 40.6311 28.2724 40.732 28.3776C40.8328 28.4828 40.9704 28.545 41.1161 28.5511C41.1161 28.5511 42.1751 28.5471 42.1961 28.5441C42.2169 28.1727 42.2169 27.8005 42.1961 27.4291ZM39.9101 24.0481C40.0091 24.048 40.1064 24.0218 40.1921 23.9721C40.1921 23.9721 41.1051 23.4401 41.1221 23.4281C40.9534 23.0957 40.7664 22.7728 40.5621 22.4611C40.5441 22.4691 39.6271 22.9941 39.6271 22.9941C39.5195 23.0563 39.4355 23.1523 39.388 23.267C39.3405 23.3818 39.3322 23.5091 39.3643 23.6291C39.3964 23.7491 39.4672 23.8552 39.5656 23.9309C39.6641 24.0067 39.7858 24.0479 39.9101 24.0481ZM32.1071 17.8821C31.9209 17.8823 31.7348 17.8879 31.5491 17.8991C31.5471 17.9201 31.5431 18.9791 31.5431 18.9791C31.5431 19.1288 31.6025 19.2724 31.7084 19.3782C31.8143 19.4841 31.9578 19.5436 32.1076 19.5436C32.2573 19.5436 32.4009 19.4841 32.5067 19.3782C32.6126 19.2724 32.6721 19.1288 32.6721 18.9791C32.6721 18.9791 32.6681 17.9191 32.6651 17.8991C32.4792 17.8884 32.2932 17.8827 32.1071 17.8821ZM27.5471 18.9731C27.2151 19.1421 26.8931 19.3291 26.5811 19.5331C26.5891 19.5511 27.1141 20.4681 27.1141 20.4681C27.1511 20.5323 27.2004 20.5886 27.2592 20.6337C27.318 20.6789 27.3851 20.712 27.4567 20.7313C27.5283 20.7505 27.603 20.7554 27.6765 20.7458C27.75 20.7361 27.8208 20.7121 27.8851 20.6751C27.9493 20.638 28.0056 20.5887 28.0507 20.5299C28.0959 20.4712 28.129 20.404 28.1482 20.3325C28.1675 20.2609 28.1724 20.1862 28.1627 20.1127C28.1531 20.0392 28.1291 19.9683 28.0921 19.9041C28.0921 19.9041 27.5601 18.9901 27.5471 18.9741V18.9731Z" fill="#F88E0F"/>
<path d="M33.934 45.08C33.0758 45.0749 32.2329 44.8523 31.484 44.433C28.1364 42.5284 25.0688 40.1689 22.369 37.422C19.7119 34.8209 17.44 31.8536 15.622 28.61C14.586 26.705 14.863 24.452 16.312 23.002L18.14 21.175C18.3223 21.0071 18.5368 20.8782 18.7706 20.7962C19.0044 20.7142 19.2525 20.6808 19.4997 20.698C19.7468 20.7152 19.9879 20.7827 20.2081 20.8964C20.4282 21.0101 20.6228 21.1675 20.78 21.359L24.502 25.751C24.8016 26.0841 24.9639 26.5182 24.9563 26.9661C24.9487 27.414 24.7717 27.8423 24.461 28.165L22.508 30.118C22.4346 30.196 22.3906 30.2972 22.3836 30.4042C22.3767 30.5111 22.4073 30.6171 22.47 30.704C24.64 33.902 27.553 36.142 29.614 37.458C29.7 37.5154 29.8028 37.5422 29.9058 37.534C30.0089 37.5259 30.1062 37.4832 30.182 37.413L31.946 35.649C32.2713 35.3432 32.6989 35.1696 33.1453 35.1622C33.5917 35.1548 34.0248 35.3141 34.36 35.609L38.752 39.33C38.9436 39.4871 39.1011 39.6817 39.2149 39.9018C39.3286 40.1219 39.3962 40.363 39.4135 40.6101C39.4309 40.8573 39.3975 41.1054 39.3156 41.3392C39.2337 41.5731 39.1048 41.7877 38.937 41.97C37.48 43.426 36.174 45.08 33.934 45.08Z" fill="#00BBAE"/>
<path d="M36.996 29.583C36.8675 29.5593 36.7525 29.4887 36.673 29.385C36.6367 29.3122 36.6155 29.2327 36.6105 29.1515C36.6055 29.0702 36.6169 28.9888 36.644 28.912L36.902 27.696H35.638L35.333 29.152C35.268 29.462 35.086 29.553 34.775 29.558C34.6612 29.5651 34.547 29.5557 34.436 29.53C34.154 29.451 34.12 29.213 34.173 28.96L34.907 25.46C34.919 25.366 34.9533 25.2762 35.007 25.198C35.199 24.964 35.875 24.975 36.04 25.241C36.102 25.381 36.11 25.541 36.06 25.686L35.854 26.662H37.117L37.36 25.497C37.3635 25.4344 37.3795 25.3731 37.4072 25.3168C37.4348 25.2605 37.4734 25.2103 37.5208 25.1692C37.5682 25.1281 37.6233 25.0969 37.6829 25.0774C37.7426 25.058 37.8055 25.0507 37.868 25.056C38.065 25.02 38.268 25.059 38.438 25.164C38.4963 25.2374 38.5345 25.3246 38.5489 25.4172C38.5632 25.5098 38.5533 25.6045 38.52 25.692L37.807 29.104C37.7934 29.225 37.7456 29.3395 37.669 29.434C37.5764 29.51 37.4672 29.5631 37.3503 29.589C37.2334 29.6149 37.112 29.6128 36.996 29.583ZM28.621 28.009C28.877 27.771 29.065 27.583 29.181 27.449C29.469 27.144 29.638 26.745 29.658 26.326C29.6626 26.1541 29.6309 25.983 29.5649 25.8241C29.4989 25.6653 29.4001 25.5221 29.275 25.404C28.9926 25.1535 28.623 25.0238 28.246 25.043C27.9261 25.0369 27.6125 25.1321 27.35 25.315C27.1162 25.5161 26.9474 25.782 26.865 26.079C26.8431 26.1344 26.834 26.194 26.8384 26.2534C26.8428 26.3128 26.8606 26.3704 26.8904 26.422C26.9202 26.4735 26.9613 26.5177 27.0106 26.5511C27.0599 26.5845 27.1161 26.6064 27.175 26.615C27.301 26.642 27.428 26.659 27.556 26.668C27.64 26.6681 27.7219 26.6414 27.7897 26.5918C27.8575 26.5421 27.9077 26.4722 27.933 26.392C27.99 26.222 28.051 26.018 28.266 26.018C28.3014 26.0166 28.3367 26.0228 28.3695 26.0363C28.4023 26.0497 28.4318 26.0701 28.456 26.096C28.5023 26.1604 28.5288 26.2369 28.5324 26.3161C28.536 26.3953 28.5163 26.4738 28.476 26.542C28.2741 26.8707 28.0142 27.1601 27.709 27.396C27.335 27.752 27.073 28.014 26.931 28.176C26.7616 28.3659 26.6215 28.5799 26.515 28.811C26.4599 28.8985 26.4298 28.9993 26.4281 29.1026C26.4263 29.206 26.4529 29.3078 26.505 29.397C26.5424 29.4455 26.5904 29.4847 26.6454 29.5116C26.7003 29.5385 26.7608 29.5523 26.822 29.552H28.865C28.9565 29.5515 29.0451 29.5197 29.1161 29.4618C29.187 29.404 29.236 29.3236 29.255 29.234L29.314 28.952C29.326 28.894 29.325 28.834 29.3109 28.7764C29.2968 28.7188 29.2701 28.665 29.2326 28.619C29.1952 28.5731 29.148 28.536 29.0944 28.5106C29.0408 28.4852 28.9823 28.472 28.923 28.472H28.136C28.221 28.384 28.384 28.229 28.621 28.009ZM32.988 25.207C33.0256 25.2531 33.0525 25.307 33.0665 25.3648C33.0805 25.4226 33.0814 25.4829 33.069 25.541L32.622 27.676H32.636C32.695 27.6769 32.753 27.6906 32.8061 27.7163C32.8592 27.742 32.906 27.7791 32.9432 27.8249C32.9804 27.8707 33.0071 27.924 33.0214 27.9813C33.0357 28.0385 33.0373 28.0981 33.026 28.156L32.978 28.386C32.9592 28.4757 32.9102 28.5562 32.8393 28.6141C32.7683 28.6719 32.6796 28.7037 32.588 28.704H32.408L32.295 29.234C32.2756 29.3235 32.2263 29.4037 32.1552 29.4613C32.0841 29.519 31.9955 29.5506 31.904 29.551H31.61C31.5511 29.5501 31.4931 29.5362 31.4401 29.5104C31.3871 29.4846 31.3404 29.4476 31.3032 29.4019C31.2661 29.3561 31.2393 29.3028 31.225 29.2457C31.2106 29.1885 31.2089 29.1289 31.22 29.071L31.297 28.705H30.157C30.0973 28.7051 30.0383 28.6917 29.9844 28.666C29.9305 28.6402 29.8831 28.6026 29.8457 28.5561C29.8082 28.5095 29.7817 28.4552 29.7681 28.397C29.7545 28.3388 29.7541 28.2784 29.767 28.22C29.779 28.032 29.836 27.85 29.933 27.688L32.062 25.2C32.0994 25.1563 32.1459 25.1211 32.1982 25.0969C32.2505 25.0728 32.3074 25.0602 32.365 25.06H32.679C32.7383 25.0599 32.797 25.073 32.8506 25.0984C32.9043 25.1239 32.9505 25.161 32.988 25.207ZM31.755 26.885L31.021 27.752H31.575L31.755 26.885Z" fill="#001430"/>
<path d="M40.696 37.5161C40.6214 37.5168 40.5495 37.4881 40.496 37.4361L38.815 35.7541C38.7886 35.7268 38.7679 35.6946 38.7541 35.6592C38.7402 35.6239 38.7335 35.5862 38.7344 35.5482C38.7352 35.5103 38.7435 35.4729 38.7589 35.4382C38.7743 35.4035 38.7964 35.3722 38.824 35.3461C40.3249 33.9793 41.3724 32.1866 41.8262 30.2079C42.28 28.2293 42.1184 26.1593 41.3631 24.2751C40.6078 22.3908 39.2948 20.7823 37.6 19.665C35.9052 18.5476 33.9094 17.9748 31.88 18.0231C30.5333 18.0544 29.207 18.3584 27.9811 18.9169C26.7553 19.4753 25.6554 20.2765 24.748 21.2721C24.7221 21.3 24.6909 21.3224 24.6563 21.338C24.6216 21.3537 24.5841 21.3622 24.5461 21.3631C24.5081 21.3641 24.4703 21.3574 24.4349 21.3435C24.3995 21.3295 24.3672 21.3087 24.34 21.2821L22.658 19.5971C22.6065 19.5455 22.577 19.4759 22.5757 19.403C22.5744 19.3301 22.6014 19.2595 22.651 19.2061C23.8318 17.9363 25.2565 16.9176 26.8398 16.2106C28.4232 15.5037 30.1327 15.1232 31.8664 15.0917C33.6001 15.0603 35.3224 15.3785 36.9303 16.0276C38.5383 16.6766 39.9989 17.643 41.225 18.8691C42.4511 20.0952 43.4176 21.5559 44.0666 23.1638C44.7156 24.7717 45.0339 26.494 45.0024 28.2277C44.9709 29.9614 44.5904 31.671 43.8835 33.2543C43.1766 34.8377 42.1578 36.2623 40.888 37.4431C40.8353 37.4904 40.7668 37.5161 40.696 37.5151V37.5161Z" fill="#F88E0F"/>
</g>
<defs>
<clipPath id="clip0_3_4165">
<rect width="31" height="30" fill="white" transform="translate(15 15.0801)"/>
</clipPath>
</defs>
</svg>
