<svg width="60" height="61" viewBox="0 0 60 61" fill="none" xmlns="http://www.w3.org/2000/svg">
<rect y="0.0800781" width="60" height="60" rx="30" fill="white"/>
<g clip-path="url(#clip0_3_4149)">
<path d="M20.5 22.7051C20.5 22.0271 19.95 21.4751 19.27 21.4751H11.897C11.5708 21.4751 11.2579 21.6047 11.0273 21.8354C10.7966 22.066 10.667 22.3789 10.667 22.7051C10.667 23.0313 10.7966 23.3442 11.0273 23.5748C11.2579 23.8055 11.5708 23.9351 11.897 23.9351H19.27C19.596 23.9348 19.9086 23.8051 20.1391 23.5745C20.3695 23.3438 20.499 23.0311 20.499 22.7051H20.5ZM19.27 26.3931H14.355C14.0376 26.4059 13.7375 26.541 13.5175 26.7701C13.2975 26.9992 13.1746 27.3045 13.1746 27.6221C13.1746 27.9397 13.2975 28.245 13.5175 28.4741C13.7375 28.7032 14.0376 28.8383 14.355 28.8511H19.272C19.5894 28.8383 19.8895 28.7032 20.1095 28.4741C20.3295 28.245 20.4524 27.9397 20.4524 27.6221C20.4524 27.3045 20.3295 26.9992 20.1095 26.7701C19.8895 26.541 19.5894 26.4059 19.272 26.3931H19.27ZM19.27 31.3091H16.813C16.493 31.3182 16.1891 31.4518 15.966 31.6813C15.7429 31.9109 15.6181 32.2185 15.6181 32.5386C15.6181 32.8587 15.7429 33.1663 15.966 33.3959C16.1891 33.6254 16.493 33.759 16.813 33.7681H19.272C19.592 33.759 19.8959 33.6254 20.119 33.3959C20.3421 33.1663 20.4669 32.8587 20.4669 32.5386C20.4669 32.2185 20.3421 31.9109 20.119 31.6813C19.8959 31.4518 19.592 31.3182 19.272 31.3091H19.27Z" fill="#F88E0F"/>
<path d="M49.825 30.6771L46.138 24.5321C46.0291 24.3495 45.8746 24.1983 45.6896 24.0935C45.5046 23.9887 45.2956 23.9337 45.083 23.9341H36.48C36.1539 23.9343 35.8413 24.0641 35.6109 24.2947C35.3804 24.5253 35.251 24.838 35.251 25.1641V37.4551C35.251 38.1331 35.801 38.6851 36.481 38.6851H48.771C49.451 38.6851 50.001 38.1331 50.001 37.4551V31.3091C50.001 31.0861 49.94 30.8671 49.825 30.6771Z" fill="#00BBAE"/>
<path d="M40.166 26.3931H44.387L47.337 31.3091H40.167L40.166 26.3931Z" fill="#FAFAFA"/>
<path d="M36.479 19.0181H19.27C18.591 19.0181 18.04 19.5681 18.04 20.2471V37.4551C18.04 38.1331 18.591 38.6851 19.27 38.6851H37.707V20.2461C37.707 19.5671 37.157 19.0161 36.477 19.0161L36.479 19.0181Z" fill="#F88E0F"/>
<path d="M43.854 39.9131C44.5059 39.9131 45.1311 39.6541 45.5921 39.1931C46.053 38.7322 46.312 38.107 46.312 37.4551C46.312 36.8032 46.053 36.178 45.5921 35.717C45.1311 35.256 44.5059 34.9971 43.854 34.9971C43.2021 34.9971 42.5769 35.256 42.1159 35.717C41.655 36.178 41.396 36.8032 41.396 37.4551C41.396 38.107 41.655 38.7322 42.1159 39.1931C42.5769 39.6541 43.2021 39.9131 43.854 39.9131Z" fill="#FAFAFA"/>
<path d="M43.854 41.1421C42.8764 41.141 41.9391 40.7523 41.2477 40.0611C40.5564 39.3699 40.1673 38.4327 40.166 37.4551C40.1671 36.4773 40.556 35.5399 41.2474 34.8484C41.9388 34.157 42.8762 33.7681 43.854 33.7671C44.8316 33.7684 45.7688 34.1574 46.46 34.8488C47.1512 35.5402 47.54 36.4775 47.541 37.4551C47.5397 38.4325 47.1508 39.3696 46.4597 40.0607C45.7685 40.7519 44.8315 41.1408 43.854 41.1421ZM43.854 36.2261C43.178 36.2261 42.624 36.7791 42.624 37.4551C42.624 38.1311 43.178 38.6851 43.854 38.6851C44.53 38.6851 45.083 38.1311 45.083 37.4551C45.083 36.7791 44.53 36.2251 43.853 36.2251L43.854 36.2261Z" fill="#001430"/>
<path d="M37.708 38.6841H19.271C19.1095 38.6841 18.9495 38.6523 18.8003 38.5905C18.6511 38.5286 18.5155 38.438 18.4013 38.3238C18.2871 38.2096 18.1965 38.074 18.1346 37.9248C18.0728 37.7756 18.041 37.6156 18.041 37.4541V33.7671H37.708V38.6841Z" fill="#00BBAE"/>
<path d="M26.646 39.9131C27.2979 39.9131 27.9231 39.6541 28.3841 39.1931C28.845 38.7322 29.104 38.107 29.104 37.4551C29.104 36.8032 28.845 36.178 28.3841 35.717C27.9231 35.256 27.2979 34.9971 26.646 34.9971C25.9941 34.9971 25.3689 35.256 24.9079 35.717C24.447 36.178 24.188 36.8032 24.188 37.4551C24.188 38.107 24.447 38.7322 24.9079 39.1931C25.3689 39.6541 25.9941 39.9131 26.646 39.9131Z" fill="#FAFAFA"/>
<path d="M26.646 41.1421C25.6684 41.141 24.7311 40.7523 24.0397 40.0611C23.3483 39.3699 22.9593 38.4327 22.958 37.4551C22.9591 36.4773 23.348 35.5399 24.0394 34.8484C24.7308 34.157 25.6682 33.7681 26.646 33.7671C27.6236 33.7684 28.5608 34.1574 29.252 34.8488C29.9432 35.5402 30.3319 36.4775 30.333 37.4551C30.3317 38.4325 29.9428 39.3696 29.2516 40.0607C28.5605 40.7519 27.6235 41.1408 26.646 41.1421ZM26.646 36.2261C25.967 36.2261 25.416 36.7791 25.416 37.4551C25.416 38.1311 25.967 38.6851 26.646 38.6851C27.324 38.6851 27.875 38.1311 27.875 37.4551C27.875 36.7791 27.325 36.2251 26.645 36.2251L26.646 36.2261Z" fill="#001430"/>
</g>
<defs>
<clipPath id="clip0_3_4149">
<rect width="40" height="24" fill="white" transform="translate(10 18.0801)"/>
</clipPath>
</defs>
</svg>
