<svg width="59" height="65" viewBox="0 0 59 65" fill="none" xmlns="http://www.w3.org/2000/svg">
<g clip-path="url(#clip0_3_4176)">
<g clip-path="url(#clip1_3_4176)">
<g clip-path="url(#clip2_3_4176)">
<path d="M26.1998 30.855C26.1998 30.855 35.3948 60.558 37.7698 62.78C40.1448 65 51.2548 65.459 49.4158 54.359L46.1978 54.435C46.1978 54.435 45.9678 61.248 41.2178 59.641C37.6168 58.416 29.0348 30.014 29.0348 30.014L26.1998 30.855ZM18.6148 9.57296C18.6148 9.57296 13.0998 1.76397 17.1598 0.232965C21.8338 -1.45104 21.6038 8.11796 21.6038 8.11796L18.6158 9.57296H18.6148Z" fill="#B0C9EB"/>
<path d="M56.6179 21.8981C56.6179 21.8981 58.1499 21.2091 57.7679 19.7551C57.3829 18.2231 42.5959 4.36707 20.2999 7.20007C20.2999 7.20007 12.4079 10.0321 5.74188 20.9031C-0.846116 31.7731 -0.233116 47.6971 2.90988 47.9271C6.27988 48.1571 4.59488 40.5771 9.80488 39.1231C15.0149 37.6691 18.2329 43.7931 21.0679 42.9511C24.2859 41.9561 20.8379 34.1471 26.9679 31.6971C33.0979 29.2471 35.9319 36.4441 39.6859 35.1421C43.0569 33.9941 40.3759 28.1761 45.3559 25.1901C50.3359 22.2041 56.9259 26.0321 58.2279 23.7361C59.6069 21.4391 56.6179 21.8981 56.6179 21.8981ZM42.2139 23.3531C39.2259 25.7261 39.1489 31.4681 38.0759 32.0031C37.0039 32.5391 31.9459 27.3331 25.5869 29.6301C19.2279 31.9271 19.9169 39.1231 19.1519 39.5061C18.3849 39.8891 14.0949 34.9131 9.49788 36.0611C4.97788 37.2861 3.06188 41.4961 3.06188 41.4961C3.06188 41.4961 1.60588 35.9081 6.81588 24.1951C12.0259 12.4821 20.9139 9.87907 20.9139 9.87907C44.4359 7.81207 55.0089 22.2041 55.0089 22.2041C55.0089 22.2041 45.2019 21.0561 42.2139 23.3531Z" fill="#F0B5BE"/>
<path d="M18.9218 11.4871C19.9178 10.7211 13.8648 21.2091 18.4618 36.9801C18.4618 36.9801 16.0868 32.0041 10.7238 33.9941C5.35981 35.9841 9.95681 18.9131 18.9218 11.4871ZM22.4458 11.4871C22.0628 13.5541 30.1078 15.7741 36.4668 29.3241C36.4668 29.3241 37.3868 22.8941 43.5928 20.4441C48.3428 18.6061 22.8288 9.42015 22.4458 11.4871Z" fill="#F0B5BE"/>
<path d="M13.942 18.1471C13.942 18.1471 14.095 18.6831 14.325 18.6071C14.555 18.5301 14.785 18.1471 14.555 17.9171C14.325 17.7641 13.942 18.1471 13.942 18.1471ZM11.95 21.0561C11.95 21.0561 12.103 21.5921 12.333 21.5161C12.563 21.4391 12.793 21.0561 12.563 20.8261C12.333 20.5961 11.949 21.0561 11.949 21.0561H11.95ZM9.95696 23.8891C9.95696 23.8891 10.111 24.4241 10.34 24.3481C10.57 24.2711 10.8 23.8881 10.57 23.6591C10.34 23.4291 9.95696 23.8891 9.95696 23.8891ZM8.65496 27.0271C8.65496 27.0271 8.80796 27.5631 9.03796 27.4871C9.26796 27.4101 9.49796 27.0271 9.26796 26.7971C9.03796 26.5681 8.65496 27.0271 8.65496 27.0271ZM7.50596 30.2431C7.50596 30.2431 7.65896 30.7791 7.88896 30.7021C8.11896 30.6251 8.34896 30.2421 8.11896 30.0131C7.88896 29.8601 7.50596 30.2431 7.50596 30.2431ZM6.35596 33.5351C6.35596 33.5351 6.50996 34.0701 6.73896 33.9941C6.96896 33.9171 7.19896 33.534 6.96896 33.3041C6.73896 33.1521 6.35596 33.534 6.35596 33.534V33.5351ZM15.167 17.5341C15.167 17.5341 15.321 18.0701 15.551 17.9941C15.781 17.9171 16.011 17.5341 15.781 17.3041C15.551 17.1521 15.167 17.5341 15.167 17.5341ZM13.175 20.3671C13.175 20.3671 13.329 20.9031 13.558 20.8271C13.788 20.7501 14.018 20.3671 13.788 20.1371C13.558 19.9071 13.175 20.3671 13.175 20.3671ZM11.107 23.1231C11.107 23.1231 11.26 23.6591 11.49 23.5831C11.72 23.5061 11.95 23.1231 11.72 22.8931C11.566 22.7401 11.107 23.1231 11.107 23.1231ZM9.64996 26.2621C9.64996 26.2621 9.80396 26.7981 10.034 26.7221C10.264 26.6451 10.494 26.2621 10.264 26.0321C10.034 25.8791 9.65096 26.2621 9.65096 26.2621H9.64996ZM8.19496 29.4001C8.19496 29.4001 8.34796 29.9371 8.57796 29.8601C8.80796 29.7831 9.03796 29.4001 8.80796 29.1701C8.57796 28.9411 8.19496 29.4001 8.19496 29.4001Z" fill="#F0B5BE"/>
<path d="M14.2479 18.453C14.2479 18.453 14.4009 18.989 14.6309 18.913C14.8609 18.836 15.0909 18.453 14.8609 18.223C14.6309 17.993 14.2479 18.453 14.2479 18.453ZM12.0259 21.133C12.0259 21.133 12.1789 21.668 12.4089 21.592C12.6389 21.515 12.8689 21.132 12.6389 20.903C12.4089 20.673 12.0259 21.133 12.0259 21.133ZM10.3399 24.118C10.3399 24.118 10.4939 24.654 10.7239 24.578C10.9539 24.501 11.1839 24.118 10.9539 23.888C10.7239 23.659 10.3399 24.118 10.3399 24.118ZM8.88486 27.18C8.88486 27.18 9.03786 27.716 9.26786 27.64C9.49786 27.563 9.72786 27.18 9.49786 26.95C9.26786 26.798 8.88486 27.18 8.88486 27.18ZM7.27586 29.094C7.27586 29.094 7.42886 29.63 7.65886 29.554C7.88886 29.477 8.11886 29.094 7.88886 28.864C7.73486 28.712 7.27586 29.094 7.27586 29.094ZM8.34786 25.803C8.34786 25.803 8.50186 26.338 8.73086 26.262C8.96086 26.185 9.19086 25.802 8.96086 25.572C8.73086 25.42 8.34786 25.803 8.34786 25.803ZM10.0339 22.817C10.0339 22.817 10.1869 23.353 10.4169 23.277C10.6469 23.2 10.8769 22.817 10.6469 22.587C10.4169 22.357 10.0339 22.817 10.0339 22.817ZM11.7199 19.831C11.7199 19.831 11.8729 20.367 12.1029 20.291C12.3329 20.214 12.5629 19.831 12.3329 19.601C12.1789 19.371 11.7199 19.831 11.7199 19.831ZM6.43286 31.085C6.43286 31.085 6.58586 31.621 6.81586 31.545C7.04586 31.467 7.27586 31.085 7.04586 30.855C6.81586 30.702 6.43286 31.085 6.43286 31.085ZM41.7539 18.836C41.7539 18.836 41.9069 19.372 42.1369 19.296C42.3669 19.219 42.5969 18.836 42.3669 18.606C42.1369 18.376 41.7539 18.836 41.7539 18.836ZM39.0719 16.616C39.0719 16.616 39.2259 17.152 39.4549 17.076C39.6849 16.999 39.9149 16.616 39.6849 16.386C39.4549 16.233 39.0719 16.616 39.0719 16.616ZM35.8539 15.314C35.8539 15.314 36.0079 15.85 36.2369 15.774C36.4669 15.697 36.6969 15.314 36.4669 15.084C36.2369 14.932 35.8539 15.314 35.8539 15.314ZM32.5599 14.549C32.5599 14.549 32.7129 15.085 32.9429 15.009C33.1729 14.932 33.4029 14.549 33.1729 14.319C32.9429 14.166 32.5599 14.549 32.5599 14.549ZM29.1119 14.013C29.1119 14.013 29.2649 14.549 29.4949 14.473C29.7249 14.396 29.9549 14.013 29.7249 13.783C29.4949 13.63 29.1119 14.013 29.1119 14.013ZM25.6639 13.554C25.6639 13.554 25.8169 14.089 26.0469 14.013C26.2769 13.936 26.5069 13.553 26.2769 13.324C26.1239 13.094 25.6639 13.554 25.6639 13.554ZM43.6699 18.683C43.6699 18.683 43.8229 19.219 44.0529 19.143C44.2829 19.066 44.5129 18.683 44.2829 18.453C44.0529 18.3 43.6699 18.683 43.6699 18.683ZM40.6049 16.999C40.6049 16.999 40.7579 17.535 40.9879 17.458C41.2179 17.381 41.4479 16.998 41.2179 16.769C41.0649 16.539 40.6049 16.999 40.6049 16.999ZM37.6169 15.238C37.6169 15.238 37.7699 15.774 37.9999 15.698C38.2299 15.621 38.4599 15.238 38.2299 15.008C38.0759 14.855 37.6169 15.238 37.6169 15.238ZM34.3989 14.09C34.3989 14.09 34.5519 14.626 34.7819 14.549C35.0119 14.472 35.2419 14.089 35.0119 13.859C34.8579 13.707 34.3989 14.089 34.3989 14.089V14.09ZM31.0279 13.324C31.0279 13.324 31.1809 13.86 31.4109 13.784C31.6409 13.707 31.8709 13.324 31.6409 13.094C31.4869 12.941 31.0279 13.324 31.0279 13.324ZM27.6559 12.559C27.6559 12.559 27.8099 13.094 28.0389 13.018C28.2689 12.941 28.4989 12.558 28.2689 12.328C28.1159 12.176 27.6559 12.558 27.6559 12.558V12.559ZM44.8949 18.683C44.8949 18.683 45.0489 19.219 45.2779 19.143C45.5079 19.066 45.7379 18.683 45.5079 18.453C45.2779 18.223 44.8949 18.683 44.8949 18.683ZM42.1369 16.616C42.1369 16.616 42.2899 17.152 42.5199 17.076C42.7499 16.999 42.9799 16.616 42.7499 16.386C42.5199 16.233 42.1369 16.616 42.1369 16.616ZM39.2249 14.855C39.2249 14.855 39.3789 15.391 39.6089 15.315C39.8389 15.238 40.0689 14.855 39.8389 14.625C39.6089 14.395 39.2249 14.855 39.2249 14.855ZM35.9299 13.783C35.9299 13.783 36.0839 14.319 36.3139 14.243C36.5439 14.166 36.7739 13.783 36.5439 13.553C36.3139 13.401 35.9299 13.783 35.9299 13.783ZM32.6359 12.788C32.6359 12.788 32.7899 13.324 33.0189 13.248C33.2489 13.171 33.4789 12.788 33.2489 12.558C33.0189 12.328 32.6359 12.788 32.6359 12.788ZM39.8379 18.53C39.8379 18.53 39.9919 19.066 40.2219 18.99C40.4519 18.912 40.6819 18.53 40.4519 18.3C40.2219 18.07 39.8379 18.53 39.8379 18.53ZM36.6969 16.999C36.6969 16.999 36.8499 17.534 37.0799 17.458C37.3099 17.381 37.5399 16.998 37.3099 16.769C37.1569 16.616 36.6969 16.999 36.6969 16.999ZM33.5559 15.62C33.5559 15.62 33.7089 16.157 33.9389 16.08C34.1689 16.004 34.3989 15.62 34.1689 15.391C34.0159 15.161 33.5559 15.621 33.5559 15.621V15.62ZM30.2609 14.625C30.2609 14.625 30.4149 15.161 30.6439 15.085C30.8739 15.008 31.1039 14.625 30.8739 14.395C30.6439 14.243 30.2609 14.625 30.2609 14.625ZM26.9669 13.707C26.9669 13.707 27.1199 14.243 27.3499 14.167C27.5799 14.09 27.8099 13.707 27.5799 13.477C27.3499 13.324 26.9669 13.707 26.9669 13.707ZM37.8459 17.381C37.8459 17.381 37.9999 17.917 38.2299 17.841C38.4599 17.764 38.6899 17.381 38.4599 17.151C38.2299 16.922 37.8459 17.381 37.8459 17.381ZM35.0879 15.314C35.0879 15.314 35.2409 15.85 35.4709 15.774C35.7009 15.697 35.9309 15.314 35.7009 15.084C35.4709 14.932 35.0879 15.314 35.0879 15.314ZM38.3829 17.917C38.3829 17.917 38.5359 18.453 38.7659 18.377C38.9959 18.3 39.2259 17.917 38.9959 17.687C38.7659 17.458 38.3829 17.917 38.3829 17.917ZM35.3179 16.156C35.3179 16.156 35.4709 16.692 35.7009 16.616C35.9309 16.539 36.1609 16.156 35.9309 15.926C35.7779 15.774 35.3179 16.156 35.3179 16.156Z" fill="#F0B5BE"/>
<path d="M40.3749 17.84C40.3749 17.84 40.5279 18.377 40.7579 18.3C40.9879 18.224 41.2179 17.84 40.9879 17.611C40.7579 17.381 40.3749 17.84 40.3749 17.84ZM30.9499 26.798C30.9499 26.798 31.1039 27.334 31.3339 27.258C31.5639 27.18 31.7939 26.798 31.5639 26.568C31.3339 26.415 30.9499 26.798 30.9499 26.798ZM27.5029 27.257C27.5029 27.257 27.6559 27.793 27.8859 27.717C28.1159 27.64 28.3459 27.257 28.1159 27.027C27.8859 26.797 27.5029 27.257 27.5029 27.257ZM24.2849 28.176C24.2849 28.176 24.4379 28.712 24.6679 28.635C24.8979 28.559 25.1279 28.175 24.8979 27.946C24.6679 27.793 24.2849 28.176 24.2849 28.176ZM21.4499 30.09C21.4499 30.09 21.6029 30.625 21.8329 30.549C22.0629 30.472 22.2929 30.089 22.0629 29.859C21.8329 29.707 21.4499 30.09 21.4499 30.09ZM19.3809 32.692C19.3809 32.692 19.5349 33.228 19.7649 33.152C19.9949 33.075 20.2249 32.692 19.9949 32.462C19.7649 32.31 19.3809 32.692 19.3809 32.692Z" fill="#F0B5BE"/>
<path d="M30.7207 26.4152C30.7207 26.4152 30.8737 26.9512 31.1037 26.8752C31.3337 26.7982 31.5637 26.4152 31.3337 26.1852C31.1037 25.9552 30.7207 26.4152 30.7207 26.4152ZM27.5027 25.9562C27.5027 25.9562 27.6557 26.4912 27.8857 26.4152C28.1157 26.3382 28.3457 25.9552 28.1157 25.7262C27.9627 25.5732 27.5027 25.9562 27.5027 25.9562ZM24.2077 27.0272C24.2077 27.0272 24.3617 27.5632 24.5917 27.4872C24.8217 27.4102 25.0517 27.0272 24.8217 26.7972C24.6677 26.6452 24.2077 27.0272 24.2077 27.0272ZM21.0667 28.3292C21.0667 28.3292 21.2197 28.8652 21.4497 28.7892C21.6797 28.7122 21.9097 28.3292 21.6797 28.0992C21.4497 27.9462 21.0667 28.3292 21.0667 28.3292ZM18.6147 30.7022C18.6147 30.7022 18.7687 31.2382 18.9977 31.1622C19.2277 31.0852 19.4577 30.7022 19.2277 30.4722C18.9977 30.3192 18.6147 30.7022 18.6147 30.7022ZM22.1397 29.0942C22.1397 29.0942 22.2927 29.6302 22.5227 29.5542C22.7527 29.4772 22.9827 29.0942 22.7527 28.8642C22.5227 28.7122 22.1397 29.0942 22.1397 29.0942ZM20.2237 30.4722C20.2237 30.4722 20.3767 31.0082 20.6067 30.9322C20.8367 30.8552 21.0667 30.4722 20.8367 30.2422C20.6837 30.0902 20.2237 30.4722 20.2237 30.4722ZM25.6637 27.2572C25.6637 27.2572 25.8167 27.7932 26.0467 27.7172C26.2767 27.6402 26.5067 27.2572 26.2767 27.0272C26.0467 26.8742 25.6637 27.2572 25.6637 27.2572ZM22.6757 27.4102C22.6757 27.4102 22.8287 27.9462 23.0587 27.8702C23.2887 27.7932 23.5187 27.4102 23.2887 27.1802C23.1357 26.9502 22.6757 27.4102 22.6757 27.4102ZM28.8817 25.8032C28.8817 25.8032 29.0347 26.3382 29.2647 26.2622C29.4947 26.1852 29.7247 25.8022 29.4947 25.5722C29.3417 25.4202 28.8817 25.8032 28.8817 25.8032ZM32.1767 27.1802C32.1767 27.1802 32.3297 27.7162 32.5597 27.6402C32.7897 27.5632 33.0197 27.1802 32.7897 26.9502C32.5597 26.7982 32.1767 27.1802 32.1767 27.1802ZM29.8017 27.1042C29.8017 27.1042 29.9547 27.6402 30.1847 27.5642C30.4147 27.4872 30.6447 27.1042 30.4147 26.8742C30.1847 26.7212 29.8017 27.1042 29.8017 27.1042ZM33.7857 28.0232C33.7857 28.0232 33.9387 28.5582 34.1687 28.4822C34.3987 28.4052 34.6287 28.0222 34.3987 27.7922C34.1687 27.5632 33.7857 28.0222 33.7857 28.0222V28.0232ZM31.5637 25.1142C31.5637 25.1142 31.7167 25.6492 31.9467 25.5732C32.1767 25.4962 32.4067 25.1132 32.1767 24.8832C31.9467 24.6542 31.5637 25.1142 31.5637 25.1142ZM28.1157 25.2672C28.1157 25.2672 28.2687 25.8022 28.4987 25.7262C28.7287 25.6492 28.9587 25.2662 28.7287 25.0362C28.4987 24.8072 28.1157 25.2672 28.1157 25.2672ZM24.8207 26.1852C24.8207 26.1852 24.9747 26.7212 25.2037 26.6452C25.4337 26.5682 25.6637 26.1852 25.4337 25.9552C25.2037 25.8032 24.8207 26.1852 24.8207 26.1852ZM21.5267 27.4102C21.5267 27.4102 21.6797 27.9462 21.9097 27.8702C22.1397 27.7932 22.3697 27.4102 22.1397 27.1802C21.9857 26.9502 21.5267 27.4102 21.5267 27.4102ZM19.2277 29.8602C19.2277 29.8602 19.3807 30.3962 19.6107 30.3202C19.8407 30.2432 20.0707 29.8602 19.8407 29.6302C19.6107 29.4772 19.2277 29.8602 19.2277 29.8602ZM26.1997 24.7302C26.1997 24.7302 26.3537 25.2672 26.5837 25.1902C26.8137 25.1142 27.0437 24.7302 26.8137 24.5012C26.6597 24.2712 26.1997 24.7302 26.1997 24.7302ZM22.9057 25.5732C22.9057 25.5732 23.0587 26.1092 23.2887 26.0332C23.5187 25.9562 23.7487 25.5732 23.5187 25.3432C23.2887 25.1902 22.9057 25.5732 22.9057 25.5732ZM23.0597 23.7352C23.0597 23.7352 23.2117 24.2712 23.4417 24.1952C23.6717 24.1182 23.9017 23.7352 23.6717 23.5052C23.4417 23.2762 23.0587 23.7352 23.0587 23.7352H23.0597Z" fill="#F0B5BE"/>
</g>
</g>
</g>
<defs>
<clipPath id="clip0_3_4176">
<rect width="58" height="64" fill="white" transform="translate(0.609863 0.0800781)"/>
</clipPath>
<clipPath id="clip1_3_4176">
<rect width="58" height="64" fill="white" transform="translate(0.609863 0.0800781)"/>
</clipPath>
<clipPath id="clip2_3_4176">
<rect width="58" height="64" fill="white" transform="translate(0.609863 0.0800781)"/>
</clipPath>
</defs>
</svg>
